# Blender 4.1.1
# www.blender.org
mtllib grass.mtl
o grass.042
v 0.500000 0.288675 0.000000
v 0.500000 -0.288675 0.000000
v 0.000000 0.577350 0.000000
v -0.000000 -0.577350 0.000000
v -0.500000 0.288675 0.000000
v -0.500000 -0.288675 0.000000
v 0.500000 0.288675 -0.100000
v 0.000000 0.577350 -0.100000
v -0.000000 -0.577350 -0.100000
v 0.500000 -0.288675 -0.100000
v -0.500000 -0.288675 -0.100000
v -0.500000 0.288675 -0.100000
v -0.500000 -0.288675 -0.200000
v -0.500000 0.288675 -0.200000
v 0.500000 0.288675 -0.200000
v 0.000000 0.577350 -0.200000
v 0.500000 -0.288675 -0.200000
v -0.000000 -0.577350 -0.200000
v 0.000000 0.577350 -0.100000
v -0.000000 -0.577350 -0.100000
vn -0.0000 -0.0000 1.0000
vn 0.5000 0.8660 -0.0000
vn 0.5000 -0.8660 -0.0000
vn -0.5000 -0.8660 -0.0000
vn -1.0000 -0.0000 -0.0000
vn 1.0000 -0.0000 -0.0000
vn -0.5000 0.8660 -0.0000
vn -0.0000 -0.0000 -1.0000
vt 0.906250 0.125000
vt 0.343750 0.075000
vt 0.343750 0.175000
s 0
usemtl colormap.005
f 3/1/1 2/1/1 1/1/1
f 2/1/1 3/1/1 4/1/1
f 4/1/1 3/1/1 5/1/1
f 4/1/1 5/1/1 6/1/1
f 7/1/2 3/1/2 1/1/2
f 3/1/2 7/1/2 8/1/2
f 9/1/3 2/1/3 4/1/3
f 2/1/3 9/1/3 10/1/3
f 11/1/4 4/1/4 6/1/4
f 4/1/4 11/1/4 9/1/4
f 5/1/5 11/1/5 6/1/5
f 11/1/5 5/1/5 12/1/5
f 7/1/6 2/1/6 10/1/6
f 2/1/6 7/1/6 1/1/6
f 8/1/7 5/1/7 3/1/7
f 5/1/7 8/1/7 12/1/7
f 12/2/5 13/3/5 11/2/5
f 13/3/5 12/2/5 14/3/5
f 17/3/8 16/3/8 15/3/8
f 16/3/8 17/3/8 18/3/8
f 16/3/8 18/3/8 14/3/8
f 14/3/8 18/3/8 13/3/8
f 16/3/7 12/2/7 19/2/7
f 12/2/7 16/3/7 14/3/7
f 15/3/2 19/2/2 7/2/2
f 19/2/2 15/3/2 16/3/2
f 18/3/3 10/2/3 20/2/3
f 10/2/3 18/3/3 17/3/3
f 15/3/6 10/2/6 17/3/6
f 10/2/6 15/3/6 7/2/6
f 13/3/4 20/2/4 11/2/4
f 20/2/4 13/3/4 18/3/4
f 3/1/1 2/1/1 1/1/1
f 2/1/1 3/1/1 4/1/1
f 4/1/1 3/1/1 5/1/1
f 4/1/1 5/1/1 6/1/1
f 7/1/2 3/1/2 1/1/2
f 3/1/2 7/1/2 8/1/2
f 9/1/3 2/1/3 4/1/3
f 2/1/3 9/1/3 10/1/3
f 11/1/4 4/1/4 6/1/4
f 4/1/4 11/1/4 9/1/4
f 5/1/5 11/1/5 6/1/5
f 11/1/5 5/1/5 12/1/5
f 7/1/6 2/1/6 10/1/6
f 2/1/6 7/1/6 1/1/6
f 8/1/7 5/1/7 3/1/7
f 5/1/7 8/1/7 12/1/7
f 12/2/5 13/3/5 11/2/5
f 13/3/5 12/2/5 14/3/5
f 17/3/8 16/3/8 15/3/8
f 16/3/8 17/3/8 18/3/8
f 16/3/8 18/3/8 14/3/8
f 14/3/8 18/3/8 13/3/8
f 16/3/7 12/2/7 19/2/7
f 12/2/7 16/3/7 14/3/7
f 15/3/2 19/2/2 7/2/2
f 19/2/2 15/3/2 16/3/2
f 18/3/3 10/2/3 20/2/3
f 10/2/3 18/3/3 17/3/3
f 15/3/6 10/2/6 17/3/6
f 10/2/6 15/3/6 7/2/6
f 13/3/4 20/2/4 11/2/4
f 20/2/4 13/3/4 18/3/4
