# Blender 4.1.1
# www.blender.org
mtllib Plane.017.mtl
o SailTail_(Bendera)
v -1.000000 0.000000 1.000000
v 1.000000 0.000000 1.000000
v -1.000000 0.000000 -1.000000
v -0.790685 0.000000 1.000000
v 0.910450 0.000000 1.000000
v -0.714667 0.000000 0.883395
v -0.585128 0.000000 0.771573
v -0.424187 0.000000 0.688422
v -0.247544 0.000000 0.639679
v -0.023796 0.000000 0.628210
v 0.258834 0.000000 0.648281
v 0.474731 0.000000 0.722829
v 0.686703 0.000000 0.837519
v -0.838238 0.000000 -1.000000
v 1.000000 0.000000 0.096452
v -0.510389 0.000000 -0.948142
v -0.193844 0.000000 -0.869695
v 0.150964 0.000000 -0.716928
v 0.478814 0.000000 -0.485713
v 0.885799 0.000000 -0.089345
v -1.000000 -0.150000 1.000000
v 1.000000 -0.150000 1.000000
v -1.000000 -0.150000 -1.000000
v -0.790685 -0.150000 1.000000
v 0.910450 -0.150000 1.000000
v -0.714667 -0.150000 0.883395
v -0.585128 -0.150000 0.771573
v -0.424187 -0.149995 0.688422
v -0.247544 -0.150000 0.639679
v -0.023796 -0.150000 0.628210
v 0.258834 -0.150000 0.648281
v 0.474731 -0.150000 0.722829
v 0.686703 -0.150000 0.837519
v -0.838238 -0.150000 -1.000000
v 1.000000 -0.150000 0.096452
v -0.510389 -0.149995 -0.948142
v -0.193844 -0.149995 -0.869695
v 0.150964 -0.150000 -0.716928
v 0.478814 -0.150000 -0.485713
v 0.885799 -0.150000 -0.089345
vn -0.0000 1.0000 -0.0000
vn -0.0000 -1.0000 -0.0000
vn -1.0000 -0.0000 -0.0000
vn -0.0000 -0.0000 1.0000
vn -0.0000 -0.0000 -1.0000
vn 0.8377 -0.0000 0.5461
vn 0.6534 -0.0000 0.7570
vn 0.4590 -0.0000 0.8884
vn 0.2660 -0.0000 0.9640
vn 0.0512 -0.0000 0.9987
vn -0.0708 -0.0000 0.9975
vn -0.3264 -0.0000 0.9452
vn -0.4759 -0.0000 0.8795
vn -0.5876 -0.0000 0.8092
vn 1.0000 -0.0000 -0.0000
vn 0.1562 -0.0000 -0.9877
vn 0.2405 -0.0000 -0.9706
vn 0.4051 -0.0000 -0.9143
vn 0.5763 -0.0000 -0.8172
vn 0.6977 -0.0000 -0.7164
vn 0.8519 -0.0000 -0.5236
vn -0.0000 -1.0000 0.0001
vn -0.0000 -1.0000 -0.0001
vt 0.488103 0.185895
vt 0.629417 0.175859
vt 0.000000 1.000000
vt 0.000000 0.000000
vt 0.955225 0.000000
vt 1.000000 0.000000
vt 0.080881 1.000000
vt 0.104657 0.000000
vt 0.142666 0.058303
vt 0.207436 0.114214
vt 0.287907 0.155789
vt 0.376228 0.180160
vt 0.737366 0.138585
vt 0.843351 0.081241
vt 1.000000 0.451774
vt 0.244806 0.974071
vt 0.403078 0.934847
vt 0.575482 0.858464
vt 0.739407 0.742857
vt 0.942900 0.544673
s 1
f 10/1/1 11/2/1 3/3/1
f 23/3/2 31/2/2 30/1/2
f 3/3/3 21/4/3 1/4/3
f 5/5/4 22/6/4 2/6/4
f 14/7/5 23/3/5 3/3/5
f 1/4/4 24/8/4 4/8/4
f 4/8/6 26/9/6 6/9/6
f 6/9/7 27/10/7 7/10/7
f 7/10/8 28/11/8 8/11/8
f 9/12/9 28/11/9 29/12/9
f 9/12/10 30/1/10 10/1/10
f 10/1/11 31/2/11 11/2/11
f 11/2/12 32/13/12 12/13/12
f 12/13/13 33/14/13 13/14/13
f 13/14/14 25/5/14 5/5/14
f 2/6/15 35/15/15 15/15/15
f 14/7/16 36/16/16 34/7/16
f 17/17/17 36/16/17 16/16/17
f 18/18/18 37/17/18 17/17/18
f 19/19/19 38/18/19 18/18/19
f 20/20/20 39/19/20 19/19/20
f 15/15/21 40/20/21 20/20/21
f 3/3/1 1/4/1 4/8/1
f 3/3/1 4/8/1 6/9/1
f 16/16/1 14/7/1 3/3/1
f 18/18/1 17/17/1 16/16/1
f 20/20/1 19/19/1 18/18/1
f 2/6/1 15/15/1 20/20/1
f 13/14/1 5/5/1 2/6/1
f 12/13/1 13/14/1 2/6/1
f 2/6/1 20/20/1 18/18/1
f 18/18/1 16/16/1 3/3/1
f 3/3/1 6/9/1 7/10/1
f 3/3/1 7/10/1 8/11/1
f 2/6/1 18/18/1 3/3/1
f 12/13/1 2/6/1 3/3/1
f 3/3/1 8/11/1 9/12/1
f 3/3/1 9/12/1 10/1/1
f 11/2/1 12/13/1 3/3/1
f 24/8/2 21/4/2 23/3/2
f 23/3/2 34/7/22 36/16/23
f 36/16/23 37/17/23 38/18/2
f 38/18/2 39/19/2 40/20/2
f 40/20/2 35/15/2 22/6/2
f 22/6/2 25/5/2 33/14/2
f 22/6/2 33/14/2 32/13/2
f 38/18/2 40/20/2 22/6/2
f 23/3/2 36/16/23 38/18/2
f 26/9/2 24/8/2 23/3/2
f 27/10/2 26/9/2 23/3/2
f 23/3/2 38/18/2 22/6/2
f 23/3/2 22/6/2 32/13/2
f 28/11/2 27/10/2 23/3/2
f 29/12/2 28/11/2 23/3/2
f 23/3/2 32/13/2 31/2/2
f 30/1/2 29/12/2 23/3/2
f 3/3/3 23/3/3 21/4/3
f 5/5/4 25/5/4 22/6/4
f 14/7/5 34/7/5 23/3/5
f 1/4/4 21/4/4 24/8/4
f 4/8/6 24/8/6 26/9/6
f 6/9/7 26/9/7 27/10/7
f 7/10/8 27/10/8 28/11/8
f 9/12/9 8/11/9 28/11/9
f 9/12/10 29/12/10 30/1/10
f 10/1/11 30/1/11 31/2/11
f 11/2/12 31/2/12 32/13/12
f 12/13/13 32/13/13 33/14/13
f 13/14/14 33/14/14 25/5/14
f 2/6/15 22/6/15 35/15/15
f 14/7/16 16/16/16 36/16/16
f 17/17/17 37/17/17 36/16/17
f 18/18/18 38/18/18 37/17/18
f 19/19/19 39/19/19 38/18/19
f 20/20/20 40/20/20 39/19/20
f 15/15/21 35/15/21 40/20/21
