# Blender 4.1.1
# www.blender.org
mtllib FP_jog_island.md.043.mtl
o FP_jog_island.mo.043
v -10.728360 3.670522 27.875860
v -10.684500 3.736444 27.847370
v -10.680260 3.677387 27.841509
v -10.732599 3.729581 27.881710
v 13.028660 2.382256 15.254900
v 13.028660 2.465437 15.171470
v 13.028660 2.382140 15.171599
v 13.028660 2.465554 15.254769
v 19.214670 0.208990 -77.723221
v 19.403299 0.733989 -77.428391
v 19.403519 0.208990 -77.428535
v 19.214449 0.733989 -77.723076
v -59.921177 4.191229 44.429279
v -59.435757 4.926229 44.496140
v -59.435707 4.191229 44.495758
v -59.921230 4.926229 44.429638
vn -0.5844 0.0385 -0.8106
vn -0.5842 0.0384 -0.8107
vn -1.0000 -0.0000 -0.0000
vn 0.8420 0.0005 -0.5396
vn 0.8419 0.0005 -0.5396
vn 0.1357 0.0005 -0.9908
vn 0.1357 0.0005 -0.9907
vt 0.000000 0.500000
vt 0.500000 0.500000
vt 0.000000 1.000000
vt 0.500000 1.000000
vt 0.500000 0.281250
vt 1.000000 0.281250
vt 1.000000 1.000000
s 0
usemtl jog_dot_chara2
f 3/1/1 1/2/1 2/3/1
f 2/3/2 1/2/2 4/4/2
f 7/1/3 5/2/3 6/3/3
f 6/3/3 5/2/3 8/4/3
f 11/5/4 9/6/4 10/4/4
f 10/4/5 9/6/5 12/7/5
f 15/5/6 13/6/6 14/4/6
f 14/4/7 13/6/7 16/7/7
