# Blender 4.1.1
# www.blender.org
mtllib FP_jog_island.md.005.mtl
o FP_jog_island.mo.005
v 33.305000 0.000000 22.639999
v 32.309998 0.000000 22.740000
v 33.395000 0.000000 22.740000
v 32.309998 0.000000 22.639999
v 32.985001 0.000000 22.287500
v 32.309998 0.000000 22.287500
v 32.309998 0.000000 20.889999
v 31.635002 0.000000 20.889999
v 32.309998 0.000000 19.492500
v 31.635002 0.000000 19.492500
v 32.309998 0.000000 19.139999
v 31.315001 0.000000 19.139999
v 32.309998 0.000000 19.039999
v 31.225002 0.000000 19.039999
v 33.395000 0.000000 20.889999
v 33.305000 0.000000 20.889999
v 33.305000 0.000000 19.139999
v 32.985001 0.000000 19.492500
v 31.225002 0.000000 20.889999
v 31.315001 0.000000 20.889999
v 31.315001 0.000000 22.639999
v 31.635002 0.000000 22.287500
v 32.985001 0.000000 20.889999
v 33.395000 0.000000 19.039999
v 31.225002 0.000000 22.740000
v -16.517500 1.110000 -51.387497
v -16.340000 1.110000 -49.055004
v -16.340000 1.110000 -51.555004
v -16.517500 1.110000 -49.055004
v -16.692499 1.110000 -50.242500
v -16.692499 1.110000 -49.055004
v -17.789999 1.110000 -50.242500
v -17.789999 1.110000 -49.055004
v -18.139999 1.110000 -49.055004
v -17.789999 1.110000 -47.865002
v -18.139999 1.110000 -46.762497
v -16.517500 1.110000 -46.762497
v -18.139999 1.110000 -46.555000
v -16.340000 1.110000 -46.555000
v -19.939999 1.110000 -51.387497
v -18.139999 1.110000 -51.555004
v -19.939999 1.110000 -51.555004
v -18.139999 1.110000 -51.387497
v -18.492500 1.110000 -50.242500
v -18.139999 1.110000 -49.055004
v -18.492500 1.110000 -49.055004
v -18.492500 1.110000 -47.865002
v -19.590000 1.110000 -47.865002
v -18.139999 1.110000 -46.762497
v -19.939999 1.110000 -46.762497
v -19.939999 1.110000 -46.555000
v -20.292500 1.110000 -47.865002
v -19.939999 1.110000 -46.762497
v -19.939999 1.110000 -49.055004
v -21.565001 1.110000 -46.762497
v -21.389999 1.110000 -47.865002
v -21.565001 1.110000 -49.055004
v -21.389999 1.110000 -49.055004
v -21.389999 1.110000 -50.242500
v -20.292500 1.110000 -50.242500
v -21.565001 1.110000 -51.387497
v -19.939999 1.110000 -51.387497
v -19.939999 1.110000 -51.555004
v -19.590000 1.110000 -49.055004
v -20.292500 1.110000 -49.055004
v -21.740000 1.110000 -49.055004
v -21.740000 1.110000 -51.555004
v -19.939999 1.110000 -46.555000
v -21.740000 1.110000 -46.555000
v -19.590000 1.110000 -50.242500
v -18.139999 1.110000 -51.387497
v -16.692499 1.110000 -47.865002
v -18.139999 1.110000 -51.555004
v -18.139999 1.110000 -46.555000
vn -0.0000 1.0000 -0.0000
vt -1.000000 0.500000
vt -0.945923 0.541687
vt -1.000000 1.000000
vt -0.945923 1.000000
vt -0.749023 0.691162
vt -0.749023 1.000000
vt 0.000000 1.000000
vt 0.000000 1.308960
vt 0.748779 1.000000
vt 0.748779 1.308960
vt 0.945923 1.000000
vt 0.945923 1.458313
vt 1.000000 1.000000
vt 1.000000 1.500000
vt 0.000000 0.500000
vt 0.000000 0.541687
vt 0.945923 0.541687
vt 0.748779 0.691162
vt 0.000000 1.500000
vt 0.000000 1.458313
vt -0.945923 1.458313
vt -0.749023 1.308960
vt 0.000000 0.691162
vt 1.000000 0.500000
vt -1.000000 1.500000
vt 1.002808 -0.350586
vt 0.935303 -0.291809
vt 0.000977 -0.350586
vt 0.000977 -0.291809
vt 0.474243 -0.221008
vt 0.000977 -0.221008
vt 0.474243 0.221130
vt 0.000977 0.221130
vt 0.000977 0.367981
vt -0.475464 0.221130
vt -0.919678 0.367981
vt -0.919678 -0.291809
vt -1.004089 0.367981
vt -1.004089 -0.350586
vt 1.002808 0.367981
vt 0.935303 0.367981
vt 0.935303 -0.350586
vt -0.475464 -0.221008
vt -0.919678 -0.350586
vt 0.918457 0.367981
vt 0.918457 -0.291809
vt -0.936523 -0.291809
vt -0.936523 0.367981
s 0
usemtl Coat_256
f 3/1/1 1/2/1 2/3/1
f 2/3/1 1/2/1 4/4/1
f 1/2/1 5/5/1 4/4/1
f 4/4/1 5/5/1 6/6/1
f 5/5/1 7/7/1 6/6/1
f 6/6/1 7/7/1 8/8/1
f 7/7/1 9/9/1 8/8/1
f 8/8/1 9/9/1 10/10/1
f 9/9/1 11/11/1 10/10/1
f 10/10/1 11/11/1 12/12/1
f 11/11/1 13/13/1 12/12/1
f 12/12/1 13/13/1 14/14/1
f 3/1/1 15/15/1 1/2/1
f 1/2/1 15/15/1 16/16/1
f 15/15/1 17/17/1 16/16/1
f 16/16/1 17/17/1 18/18/1
f 17/17/1 11/11/1 18/18/1
f 18/18/1 11/11/1 9/9/1
f 14/14/1 19/19/1 12/12/1
f 12/12/1 19/19/1 20/20/1
f 19/19/1 21/21/1 20/20/1
f 20/20/1 21/21/1 22/22/1
f 21/21/1 4/4/1 22/22/1
f 22/22/1 4/4/1 6/6/1
f 1/2/1 16/16/1 5/5/1
f 5/5/1 16/16/1 23/23/1
f 16/16/1 18/18/1 23/23/1
f 23/23/1 18/18/1 7/7/1
f 18/18/1 9/9/1 7/7/1
f 12/12/1 20/20/1 10/10/1
f 10/10/1 20/20/1 8/8/1
f 20/20/1 22/22/1 8/8/1
f 8/8/1 22/22/1 6/6/1
f 15/15/1 24/24/1 17/17/1
f 17/17/1 24/24/1 13/13/1
f 19/19/1 25/25/1 21/21/1
f 21/21/1 25/25/1 2/3/1
f 17/17/1 13/13/1 11/11/1
f 21/21/1 2/3/1 4/4/1
f 7/7/1 5/5/1 23/23/1
f 28/26/1 26/27/1 27/28/1
f 27/28/1 26/27/1 29/29/1
f 26/27/1 30/30/1 29/29/1
f 29/29/1 30/30/1 31/31/1
f 30/30/1 32/32/1 31/31/1
f 31/31/1 32/32/1 33/33/1
f 32/32/1 34/34/1 33/33/1
f 33/33/1 34/34/1 35/35/1
f 34/34/1 36/36/1 35/35/1
f 35/35/1 36/36/1 37/37/1
f 36/36/1 38/38/1 37/37/1
f 37/37/1 38/38/1 39/39/1
f 42/40/1 40/41/1 41/26/1
f 41/26/1 40/41/1 43/42/1
f 40/41/1 44/30/1 43/42/1
f 43/42/1 44/30/1 45/28/1
f 44/30/1 46/31/1 45/28/1
f 45/28/1 46/31/1 47/43/1
f 46/31/1 48/35/1 47/43/1
f 47/43/1 48/35/1 49/44/1
f 48/35/1 50/36/1 49/44/1
f 49/44/1 50/36/1 51/38/1
f 54/34/1 52/32/1 53/45/1
f 53/45/1 52/32/1 55/46/1
f 52/32/1 56/30/1 55/46/1
f 55/46/1 56/30/1 57/29/1
f 56/30/1 58/31/1 57/29/1
f 57/29/1 58/31/1 59/43/1
f 58/31/1 60/35/1 59/43/1
f 59/43/1 60/35/1 61/47/1
f 60/35/1 62/48/1 61/47/1
f 61/47/1 62/48/1 63/38/1
f 50/36/1 48/35/1 54/34/1
f 54/34/1 48/35/1 64/33/1
f 48/35/1 46/31/1 64/33/1
f 64/33/1 46/31/1 44/30/1
f 62/48/1 60/35/1 54/34/1
f 54/34/1 60/35/1 65/33/1
f 60/35/1 58/31/1 65/33/1
f 65/33/1 58/31/1 56/30/1
f 59/43/1 61/47/1 57/29/1
f 57/29/1 61/47/1 66/28/1
f 61/47/1 67/39/1 66/28/1
f 53/45/1 55/46/1 68/40/1
f 68/40/1 55/46/1 69/26/1
f 55/46/1 66/28/1 69/26/1
f 40/41/1 70/32/1 44/30/1
f 44/30/1 70/32/1 64/33/1
f 70/32/1 54/34/1 64/33/1
f 34/34/1 32/32/1 71/41/1
f 71/41/1 32/32/1 26/27/1
f 32/32/1 30/30/1 26/27/1
f 37/37/1 72/43/1 35/35/1
f 35/35/1 72/43/1 33/33/1
f 72/43/1 31/31/1 33/33/1
f 54/34/1 65/33/1 52/32/1
f 52/32/1 65/33/1 56/30/1
f 28/26/1 73/40/1 26/27/1
f 26/27/1 73/40/1 71/41/1
f 39/39/1 27/28/1 37/37/1
f 37/37/1 27/28/1 29/29/1
f 31/31/1 72/43/1 29/29/1
f 29/29/1 72/43/1 37/37/1
f 47/43/1 49/44/1 45/28/1
f 74/39/1 49/44/1 51/38/1
f 67/39/1 61/47/1 63/38/1
f 55/46/1 57/29/1 66/28/1
f 70/32/1 40/41/1 54/34/1
