# Blender 4.1.1
# www.blender.org
mtllib tree_palmBend.mtl
o tree_palmBend.002
v -0.058411 -0.506382 -1.134503
v 0.038842 -0.506382 -1.134503
v -0.081044 -0.405806 -1.279508
v 0.081044 -0.405806 -1.279508
v 0.035000 -0.035000 -1.300000
v 0.035000 0.035000 -1.300000
v -0.035000 -0.035000 -1.300000
v -0.035000 0.035000 -1.300000
v 0.028868 -0.050000 -1.300000
v 0.043301 -0.025000 -1.300000
v -0.000000 -0.050000 -1.300000
v -0.028868 -0.050000 -1.300000
v -0.043301 -0.025000 -1.300000
v -0.043301 0.025000 -1.300000
v -0.057735 0.000000 -1.300000
v 0.043301 0.025000 -1.300000
v 0.057735 -0.000000 -1.300000
v 0.028868 0.050000 -1.300000
v 0.000000 0.050000 -1.300000
v -0.028868 0.050000 -1.300000
v 0.081044 -0.262366 -1.354023
v -0.081044 -0.262366 -1.354023
v -0.186694 0.201369 -1.354023
v -0.310917 0.273089 -1.279508
v -0.267738 0.060997 -1.354023
v -0.391960 0.132717 -1.279508
v 0.391961 0.132717 -1.279508
v 0.310917 0.273089 -1.279508
v 0.267738 0.060997 -1.354023
v 0.186694 0.201369 -1.354023
v 0.058411 0.506382 -1.155196
v -0.038842 0.506382 -1.155196
v 0.081044 0.405806 -1.319689
v -0.081044 0.405806 -1.319689
v 0.081044 -0.120789 -1.354023
v 0.060783 -0.050000 -1.300000
v -0.081044 -0.120789 -1.354023
v -0.060783 -0.050000 -1.300000
v 0.267738 -0.060997 -1.379911
v 0.145128 0.009792 -1.379911
v 0.186694 -0.201369 -1.379911
v 0.064084 -0.130580 -1.379911
v -0.012910 0.077639 -1.300000
v -0.064084 0.130580 -1.354023
v -0.073693 -0.027639 -1.300000
v -0.145128 -0.009792 -1.354023
v 0.391960 -0.132717 -1.319689
v 0.310917 -0.273089 -1.319689
v -0.064084 -0.130580 -1.379911
v -0.145128 0.009792 -1.379911
v -0.186694 -0.201369 -1.379911
v -0.267738 -0.060997 -1.379911
v 0.409334 -0.303776 -1.155196
v 0.457960 -0.219553 -1.155196
v 0.145128 -0.009792 -1.354023
v 0.064084 0.130580 -1.354023
v -0.071600 0.087793 -1.342664
v 0.071600 0.087794 -1.342664
v -0.081044 0.120789 -1.379911
v 0.081044 0.120789 -1.379911
v -0.419119 -0.286829 -1.155196
v -0.310917 -0.273089 -1.319689
v -0.467745 -0.202606 -1.155196
v -0.391961 -0.132717 -1.319689
v 0.467745 0.202606 -1.134503
v 0.419119 0.286829 -1.134503
v 0.073693 -0.027639 -1.300000
v 0.012910 0.077639 -1.300000
v 0.081044 0.262366 -1.379911
v -0.081044 0.262366 -1.379911
v -0.457960 0.219553 -1.134503
v -0.409334 0.303776 -1.134503
v -0.040231 -0.105904 -1.342664
v -0.111831 0.018111 -1.342664
v 0.111831 0.018111 -1.342664
v 0.040231 -0.105904 -1.342664
v 0.050000 0.050000 0.000000
v 0.050000 -0.050000 0.000000
v -0.050000 0.050000 0.000000
v -0.050000 -0.050000 0.000000
v -0.050000 0.150000 -1.000000
v -0.150000 0.150000 -1.000000
v -0.050000 0.050000 -1.000000
v -0.150000 0.050000 -1.000000
v 0.065500 -0.065500 -0.100000
v 0.065500 0.065500 -0.100000
v -0.065500 -0.065500 -0.100000
v -0.065500 0.065500 -0.100000
v -0.050000 -0.050000 -0.600000
v -0.150000 -0.050000 -0.600000
v -0.150000 -0.150000 -0.600000
v -0.050000 -0.150000 -0.600000
vn -0.0000 -0.8217 -0.5699
vn -0.0000 0.8217 0.5699
vn -0.0000 -0.0000 -1.0000
vn -0.0000 -0.0001 -1.0000
vn -0.0000 -0.4610 -0.8874
vn -0.0000 0.4610 0.8874
vn -0.3992 0.2305 -0.8874
vn 0.3992 -0.2305 0.8874
vn 0.3992 0.2305 -0.8874
vn -0.3992 -0.2305 0.8874
vn -0.0000 0.8532 -0.5216
vn -0.0000 -0.8532 0.5216
vn -0.0000 0.6067 -0.7950
vn -0.0000 0.6067 -0.7949
vn -0.0000 -0.6067 0.7950
vn -0.0000 -0.6067 0.7949
vn -0.0000 -0.0000 1.0000
vn 0.5254 -0.3033 -0.7950
vn -0.5254 0.3033 0.7950
vn 0.3352 -0.1936 -0.9220
vn -0.3352 0.1936 0.9220
vn 0.7389 -0.4266 -0.5216
vn -0.7389 0.4266 0.5216
vn -0.0000 -0.7485 -0.6631
vn -0.0000 0.7485 0.6631
vn -0.7389 -0.4266 -0.5216
vn 0.7389 0.4266 0.5216
vn 0.7116 0.4108 -0.5699
vn -0.7116 -0.4108 0.5699
vn -0.5254 -0.3033 -0.7950
vn -0.5254 -0.3033 -0.7949
vn -0.5254 -0.3034 -0.7949
vn 0.5254 0.3033 0.7950
vn 0.5254 0.3034 0.7949
vn 0.5253 0.3034 0.7950
vn -0.0000 0.3871 -0.9220
vn -0.0000 -0.3871 0.9220
vn -0.7116 0.4108 -0.5699
vn 0.7116 -0.4108 0.5699
vn 0.6483 0.3743 -0.6631
vn 0.6482 0.3743 -0.6631
vn -0.6483 -0.3743 0.6631
vn -0.6482 -0.3743 0.6631
vn -0.6483 0.3743 -0.6631
vn 0.6483 -0.3743 0.6631
vn -0.3352 -0.1936 -0.9220
vn 0.3352 0.1936 0.9220
vn -0.0000 0.9337 -0.3579
vn 0.9621 -0.0000 0.2726
vn -0.9337 -0.0000 -0.3579
vn -0.0000 -0.9621 0.2726
vn 0.9882 -0.0000 0.1532
vn -0.9882 -0.0000 0.1532
vn -0.0000 -0.9882 0.1532
vn -0.0000 0.9882 0.1532
vn -0.0000 0.8944 0.4472
vn -0.0000 0.9743 -0.2251
vn -0.0000 -0.8944 -0.4472
vn 1.0000 -0.0000 -0.0000
vn -0.9860 -0.0000 0.1666
vn -0.0000 -0.9860 0.1666
vn 0.9743 -0.0000 -0.2251
vn -1.0000 -0.0000 -0.0000
vt 3.190702 32.286949
vt -1.529200 25.339260
vt 2.299639 25.339260
vt -3.190695 32.286949
vt 1.377953 -1.377953
vt -1.377953 1.377953
vt -1.377953 -1.377953
vt 1.377953 1.377953
vt -1.136516 -1.968504
vt -1.704774 -0.984252
vt 0.000000 -1.968504
vt 1.136516 -1.968504
vt 1.704774 -0.984252
vt 1.704774 0.984252
vt 2.273033 0.000000
vt -1.704774 0.984252
vt -2.273033 -0.000000
vt -1.136516 1.968504
vt -0.000000 1.968504
vt 1.136516 1.968504
vt 3.190702 9.044314
vt -3.190695 15.408100
vt -3.190695 9.044314
vt 3.190702 15.408100
vt 3.190702 35.992931
vt -1.529200 28.402229
vt 2.299639 28.402229
vt -3.190695 35.992931
vt -3.190702 36.120899
vt 2.393024 32.615070
vt 3.190695 36.120899
vt 1.136516 32.615070
vt -0.000000 32.615070
vt -1.136516 32.615070
vt -2.393024 32.615070
vt -7.350147 -7.927915
vt -5.713696 0.385493
vt -10.540850 -2.401463
vt -2.522998 -5.140959
vt 0.000000 32.615070
vt 3.190702 5.381551
vt -3.190695 11.506320
vt -3.190695 5.381551
vt 3.190702 11.506320
vt 7.350151 -7.927909
vt 5.713700 0.385499
vt 2.523001 -5.140953
vt 10.540850 -2.401457
vt -5.713700 -0.385499
vt -7.350151 7.927909
vt -10.540850 2.401457
vt -2.523001 5.140953
vt 2.818893 41.860279
vt -0.000000 39.616341
vt 1.136516 39.616341
vt -1.136516 39.616341
vt -2.818898 41.860279
vt 3.190695 43.819321
vt -3.190702 43.819321
vt 3.190702 -10.329370
vt -3.190695 -4.755460
vt -3.190695 -10.329370
vt 3.190702 -4.755460
vt -0.000000 32.615070
vt -3.190702 4.755460
vt 3.190695 10.329370
vt -3.190702 10.329370
vt 3.190695 4.755460
vt 0.000000 39.616341
vt -0.000000 39.616341
vt 5.713696 -0.385493
vt 7.350147 7.927915
vt 2.522998 5.140959
vt 10.540850 2.401463
vt -1.968504 1.968504
vt 1.968504 -1.968504
vt 1.968504 1.968504
vt -1.968504 -1.968504
vt 1.377953 47.296940
vt -5.905512 34.647861
vt -1.968504 34.647861
vt -1.377953 47.296940
vt -1.377953 49.618340
vt -1.968504 37.342381
vt 1.377953 49.618340
vt -5.905512 37.342381
vt 1.968504 34.647861
vt 5.905512 34.647861
vt 1.968504 37.342381
vt 5.905512 37.342381
vt -2.578740 4.285538
vt 1.968504 0.301518
vt 2.578740 4.285538
vt -1.968504 0.301518
vt -1.968504 37.854691
vt -5.905512 20.247860
vt -1.968504 20.247860
vt -5.905512 37.854691
vt -1.968504 23.459009
vt -2.578740 3.255587
vt 2.578740 3.255587
vt -5.905512 23.459009
vt 5.905512 36.094009
vt 1.968504 18.487181
vt 5.905512 18.487181
vt 1.968504 36.094009
vt -1.968504 39.370079
vt 1.968504 23.622049
vt 5.905512 23.622049
vt -5.905512 39.370079
vt -2.578740 4.311676
vt -1.968504 24.275850
vt -5.905512 24.275850
vt 2.578740 4.311676
vt 5.905512 24.275850
vt 1.968504 24.275850
vt 1.968504 23.459009
vt 5.905512 23.459009
vt -1.968504 23.622049
vt 1.968504 39.370079
vt -5.905512 23.622049
vt 5.905512 39.370079
s 0
usemtl leafsGreen
f 3/1/1 2/2/1 1/3/1
f 2/2/1 3/1/1 4/4/1
f 1/3/2 2/2/2 3/1/2
f 4/4/2 3/1/2 2/2/2
f 7/5/3 6/6/3 5/7/3
f 6/6/3 7/5/3 8/8/3
f 5/7/3 9/9/3 7/5/3
f 9/9/3 5/7/3 10/10/3
f 6/6/3 10/10/3 5/7/3
f 7/5/3 9/9/3 11/11/3
f 7/5/3 11/11/3 12/12/3
f 7/5/4 12/12/4 13/13/4
f 7/5/3 13/13/3 8/8/3
f 8/8/3 13/13/3 14/14/3
f 14/14/3 13/13/3 15/15/3
f 16/16/3 10/10/3 6/6/3
f 10/10/3 16/16/3 17/17/3
f 16/16/3 6/6/3 18/18/3
f 18/18/3 6/6/3 8/8/3
f 18/18/3 8/8/3 19/19/3
f 19/19/3 8/8/3 20/20/3
f 20/20/3 8/8/3 14/14/3
f 3/21/5 21/22/5 4/23/5
f 21/22/5 3/21/5 22/24/5
f 4/23/6 21/22/6 3/21/6
f 22/24/6 3/21/6 21/22/6
f 25/22/7 24/21/7 23/24/7
f 24/21/7 25/22/7 26/23/7
f 23/24/8 24/21/8 25/22/8
f 26/23/8 25/22/8 24/21/8
f 29/24/9 28/23/9 27/21/9
f 28/23/9 29/24/9 30/22/9
f 27/21/10 28/23/10 29/24/10
f 30/22/10 29/24/10 28/23/10
f 33/25/11 32/26/11 31/27/11
f 32/26/11 33/25/11 34/28/11
f 31/27/12 32/26/12 33/25/12
f 34/28/12 33/25/12 32/26/12
f 37/29/13 36/30/13 35/31/13
f 36/30/14 37/29/14 9/32/14
f 9/32/13 37/29/13 11/33/13
f 11/33/13 37/29/13 12/34/13
f 12/34/13 37/29/13 38/35/13
f 35/31/15 36/30/15 37/29/15
f 9/32/16 37/29/16 36/30/16
f 11/33/15 37/29/15 9/32/15
f 12/34/15 37/29/15 11/33/15
f 38/35/16 37/29/16 12/34/16
f 41/36/3 40/37/3 39/38/3
f 40/37/3 41/36/3 42/39/3
f 39/38/17 40/37/17 41/36/17
f 42/39/17 41/36/17 40/37/17
f 20/34/18 44/29/18 43/35/18
f 44/29/18 20/34/18 14/40/18
f 44/29/18 14/40/18 15/32/18
f 44/29/18 15/32/18 45/30/18
f 44/29/18 45/30/18 46/31/18
f 43/35/19 44/29/19 20/34/19
f 14/40/19 20/34/19 44/29/19
f 15/32/19 14/40/19 44/29/19
f 45/30/19 15/32/19 44/29/19
f 46/31/19 45/30/19 44/29/19
f 48/41/20 39/42/20 47/43/20
f 39/42/20 48/41/20 41/44/20
f 47/43/21 39/42/21 48/41/21
f 41/44/21 48/41/21 39/42/21
f 51/45/3 50/46/3 49/47/3
f 50/46/3 51/45/3 52/48/3
f 49/47/17 50/46/17 51/45/17
f 52/48/17 51/45/17 50/46/17
f 48/25/22 54/26/22 53/27/22
f 54/26/22 48/25/22 47/28/22
f 53/27/23 54/26/23 48/25/23
f 47/28/23 48/25/23 54/26/23
f 55/49/3 30/50/3 29/51/3
f 30/50/3 55/49/3 56/52/3
f 29/51/17 30/50/17 55/49/17
f 56/52/17 55/49/17 30/50/17
f 57/53/24 19/54/24 20/55/24
f 19/54/24 57/53/24 18/56/24
f 18/56/24 57/53/24 58/57/24
f 58/57/24 57/53/24 59/58/24
f 58/57/24 59/58/24 60/59/24
f 20/55/25 19/54/25 57/53/25
f 18/56/25 57/53/25 19/54/25
f 58/57/25 57/53/25 18/56/25
f 59/58/25 57/53/25 58/57/25
f 60/59/25 59/58/25 58/57/25
f 63/27/26 62/28/26 61/26/26
f 62/28/26 63/27/26 64/25/26
f 61/26/27 62/28/27 63/27/27
f 64/25/27 63/27/27 62/28/27
f 22/60/3 35/61/3 21/62/3
f 35/61/3 22/60/3 37/63/3
f 21/62/17 35/61/17 22/60/17
f 37/63/17 22/60/17 35/61/17
f 28/4/28 65/3/28 27/1/28
f 65/3/28 28/4/28 66/2/28
f 27/1/29 65/3/29 28/4/29
f 66/2/29 28/4/29 65/3/29
f 67/35/30 56/31/30 55/29/30
f 56/31/30 67/35/30 17/34/30
f 56/31/30 17/34/30 16/64/30
f 56/31/30 16/64/30 68/30/30
f 68/30/31 16/64/32 18/32/32
f 55/29/33 56/31/33 67/35/33
f 17/34/33 67/35/33 56/31/33
f 16/64/33 17/34/33 56/31/33
f 68/30/33 16/64/33 56/31/33
f 18/32/34 16/64/35 68/30/34
f 60/65/3 70/66/3 69/67/3
f 70/66/3 60/65/3 59/68/3
f 69/67/17 70/66/17 60/65/17
f 59/68/17 60/65/17 70/66/17
f 69/44/36 34/43/36 33/41/36
f 34/43/36 69/44/36 70/42/36
f 33/41/37 34/43/37 69/44/37
f 70/42/37 69/44/37 34/43/37
f 71/2/38 24/1/38 26/4/38
f 24/1/38 71/2/38 72/3/38
f 26/4/39 24/1/39 71/2/39
f 72/3/39 71/2/39 24/1/39
f 73/53/40 13/69/40 12/55/40
f 13/69/41 73/53/41 49/58/41
f 13/69/40 49/58/40 15/56/40
f 15/56/40 49/58/40 74/57/40
f 74/57/40 49/58/40 50/59/40
f 12/55/42 13/69/42 73/53/42
f 49/58/43 73/53/43 13/69/43
f 15/56/42 49/58/42 13/69/42
f 74/57/42 49/58/42 15/56/42
f 50/59/42 49/58/42 74/57/42
f 42/59/44 75/53/44 40/58/44
f 75/53/44 42/59/44 17/55/44
f 17/55/44 42/59/44 76/57/44
f 17/55/44 76/57/44 10/70/44
f 10/70/44 76/57/44 9/56/44
f 40/58/45 75/53/45 42/59/45
f 17/55/45 42/59/45 75/53/45
f 76/57/45 42/59/45 17/55/45
f 10/70/45 76/57/45 17/55/45
f 9/56/45 76/57/45 10/70/45
f 10/10/17 5/7/17 9/9/17
f 7/5/17 9/9/17 5/7/17
f 11/11/17 9/9/17 7/5/17
f 12/12/17 11/11/17 7/5/17
f 13/13/17 12/12/17 7/5/17
f 8/8/17 13/13/17 7/5/17
f 14/14/17 13/13/17 8/8/17
f 15/15/17 13/13/17 14/14/17
f 5/7/17 10/10/17 6/6/17
f 6/6/17 10/10/17 16/16/17
f 17/17/17 16/16/17 10/10/17
f 18/18/17 6/6/17 16/16/17
f 8/8/17 6/6/17 18/18/17
f 19/19/17 8/8/17 18/18/17
f 20/20/17 8/8/17 19/19/17
f 14/14/17 8/8/17 20/20/17
f 46/71/3 23/72/3 44/73/3
f 23/72/3 46/71/3 25/74/3
f 44/73/17 23/72/17 46/71/17
f 25/74/17 46/71/17 23/72/17
f 62/43/46 52/44/46 51/42/46
f 52/44/46 62/43/46 64/41/46
f 51/42/47 52/44/47 62/43/47
f 64/41/47 62/43/47 52/44/47
usemtl woodBark
f 79/75/17 78/76/17 77/77/17
f 78/76/17 79/75/17 80/78/17
f 6/79/48 82/80/48 81/81/48
f 82/80/48 6/79/48 8/82/48
f 6/83/49 83/84/49 5/85/49
f 83/84/49 6/83/49 81/86/49
f 84/87/50 8/79/50 7/82/50
f 8/79/50 84/87/50 82/88/50
f 7/85/51 83/89/51 84/90/51
f 83/89/51 7/85/51 5/83/51
f 86/91/52 78/92/52 85/93/52
f 78/92/52 86/91/52 77/94/52
f 80/94/53 88/93/53 87/91/53
f 88/93/53 80/94/53 79/92/53
f 87/93/54 78/94/54 80/92/54
f 78/94/54 87/93/54 85/91/54
f 86/93/55 79/94/55 77/92/55
f 79/94/55 86/93/55 88/91/55
f 81/95/56 90/96/56 89/97/56
f 90/96/56 81/95/56 82/98/56
f 89/99/57 88/100/57 86/101/57
f 88/100/57 89/99/57 90/102/57
f 84/103/58 92/104/58 91/105/58
f 92/104/58 84/103/58 83/106/58
f 83/107/59 89/108/59 92/109/59
f 89/108/59 83/107/59 81/110/59
f 87/111/60 90/112/60 91/113/60
f 90/112/60 87/111/60 88/114/60
f 91/115/61 85/111/61 87/114/61
f 85/111/61 91/115/61 92/116/61
f 89/117/62 85/101/62 92/118/62
f 85/101/62 89/117/62 86/100/62
f 90/119/63 84/120/63 91/121/63
f 84/120/63 90/119/63 82/122/63
