# Blender 4.1.1
# www.blender.org
mtllib FP_jog_island.md.033.mtl
o FP_jog_island.mo.033
v -7.896036 1.086843 -48.861080
v -9.047265 1.118096 -48.193920
v -9.047217 1.086842 -48.193958
v -7.896072 1.118360 -48.861057
v -9.048383 1.873852 -48.193287
v -7.896890 1.873853 -48.860580
v -8.015971 1.138937 -51.027760
v -7.348243 1.458769 -51.419937
v -7.345451 1.139751 -51.420338
v -8.015969 1.454291 -51.027760
v -10.810860 1.451092 -49.435768
v -11.495900 1.139500 -49.049957
v -11.495910 1.457388 -49.049957
v -10.810860 1.138355 -49.435768
v -9.298232 1.459061 -50.298759
v -9.531493 1.068858 -50.163589
v -9.531489 1.460715 -50.163589
v -9.298233 1.068858 -50.298759
v -11.502959 1.461567 -49.223351
v -11.354839 1.496862 -48.952770
v -11.354839 1.461567 -48.952770
v -11.502959 1.496862 -49.223351
v -11.517529 1.496862 -49.214558
v -11.369420 1.461567 -48.943977
v -11.369420 1.496862 -48.943977
v -11.517529 1.461567 -49.214558
v -11.502959 1.461567 -49.223351
v -11.517529 1.496862 -49.214558
v -11.502959 1.496862 -49.223351
v -11.517529 1.461567 -49.214558
v -11.502959 1.461567 -49.223351
v -11.354839 1.461567 -48.952770
v -11.369420 1.496862 -48.943977
v -11.517529 1.496862 -49.214558
v -11.525290 1.461567 -49.193588
v -10.928570 1.496862 -49.523048
v -10.928570 1.461567 -49.523048
v -11.525290 1.496862 -49.193588
v -11.516470 1.496862 -49.179020
v -10.919749 1.461567 -49.508488
v -10.919749 1.496862 -49.508488
v -11.516470 1.461567 -49.179020
v -11.525290 1.461567 -49.193588
v -11.516470 1.496862 -49.179020
v -11.525290 1.496862 -49.193588
v -11.516470 1.461567 -49.179020
v -11.525290 1.461567 -49.193588
v -10.928570 1.461567 -49.523048
v -10.928570 1.496862 -49.523048
v -10.919749 1.461567 -49.508488
v -10.928570 1.461567 -49.523048
v -10.919749 1.496862 -49.508488
v -10.919749 1.496862 -49.508488
v -11.516470 1.496862 -49.179020
v -11.495860 1.510845 -49.210449
v -11.487969 1.060911 -49.196678
v -11.496480 1.060904 -49.209999
v -11.487350 1.510851 -49.197140
v -11.501890 1.511611 -49.188328
v -11.511020 1.061655 -49.201187
v -11.502510 1.061661 -49.187878
v -11.510400 1.511604 -49.201649
v -11.495860 1.510845 -49.210449
v -11.501890 1.511611 -49.188328
v -11.487350 1.510851 -49.197140
v -11.510400 1.511604 -49.201649
v -11.495860 1.510845 -49.210449
v -11.496480 1.060904 -49.209999
v -11.502510 1.061661 -49.187878
v -11.501890 1.511611 -49.188328
v -10.935980 1.510845 -49.518890
v -10.928090 1.060911 -49.505108
v -10.936600 1.060904 -49.518429
v -10.927469 1.510851 -49.505558
v -10.942010 1.511611 -49.496758
v -10.951139 1.061655 -49.509617
v -10.942630 1.061661 -49.496300
v -10.950520 1.511604 -49.510078
v -10.935980 1.510845 -49.518890
v -10.942010 1.511611 -49.496758
v -10.927469 1.510851 -49.505558
v -10.950520 1.511604 -49.510078
v -10.935980 1.510845 -49.518890
v -10.936600 1.060904 -49.518429
v -10.942630 1.061661 -49.496300
v -10.942010 1.511611 -49.496758
v -10.943080 1.461567 -49.531780
v -10.790740 1.496862 -49.266018
v -10.790740 1.461567 -49.266018
v -10.943080 1.496862 -49.531780
v -10.957650 1.496862 -49.523003
v -10.805320 1.461567 -49.257240
v -10.805320 1.496862 -49.257240
v -10.957650 1.461567 -49.523003
v -10.943080 1.461567 -49.531780
v -10.957650 1.496862 -49.523003
v -10.943080 1.496862 -49.531780
v -10.957650 1.461567 -49.523003
v -10.943080 1.461567 -49.531780
v -10.790740 1.461567 -49.266018
v -10.805320 1.496862 -49.257240
v -10.957650 1.496862 -49.523003
v -8.032337 1.461567 -51.209278
v -7.884220 1.496862 -50.938698
v -7.884220 1.461567 -50.938698
v -8.032337 1.496862 -51.209278
v -8.046912 1.496862 -51.200489
v -7.898795 1.461567 -50.929909
v -7.898795 1.496862 -50.929909
v -8.046912 1.461567 -51.200489
v -8.032337 1.461567 -51.209278
v -8.046912 1.496862 -51.200489
v -8.032337 1.496862 -51.209278
v -8.046912 1.461567 -51.200489
v -8.032337 1.461567 -51.209278
v -7.884220 1.461567 -50.938698
v -7.898795 1.496862 -50.929909
v -8.046912 1.496862 -51.200489
v -8.054669 1.461567 -51.179508
v -7.457948 1.496862 -51.508968
v -7.457948 1.461567 -51.508968
v -8.054669 1.496862 -51.179508
v -8.045851 1.496862 -51.164948
v -7.449132 1.461567 -51.494408
v -7.449132 1.496862 -51.494408
v -8.045851 1.461567 -51.164948
v -8.054669 1.461567 -51.179508
v -8.045851 1.496862 -51.164948
v -8.054669 1.496862 -51.179508
v -8.045851 1.461567 -51.164948
v -8.054669 1.461567 -51.179508
v -7.457948 1.461567 -51.508968
v -7.457948 1.496862 -51.508968
v -7.449132 1.461567 -51.494408
v -7.457948 1.461567 -51.508968
v -7.449132 1.496862 -51.494408
v -7.449132 1.496862 -51.494408
v -8.045851 1.496862 -51.164948
v -8.025239 1.510845 -51.196377
v -8.017347 1.060911 -51.182598
v -8.025858 1.060904 -51.195930
v -8.016728 1.510851 -51.183067
v -8.031269 1.511611 -51.174259
v -8.040402 1.061655 -51.187119
v -8.031890 1.061661 -51.173798
v -8.039779 1.511604 -51.187580
v -8.025239 1.510845 -51.196377
v -8.031269 1.511611 -51.174259
v -8.016728 1.510851 -51.183067
v -8.039779 1.511604 -51.187580
v -8.025239 1.510845 -51.196377
v -8.025858 1.060904 -51.195930
v -8.031890 1.061661 -51.173798
v -8.031269 1.511611 -51.174259
v -7.465363 1.510845 -51.504810
v -7.457469 1.060911 -51.491028
v -7.465981 1.060904 -51.504360
v -7.456851 1.510851 -51.491489
v -7.471392 1.511611 -51.482677
v -7.480525 1.061655 -51.495548
v -7.472013 1.061661 -51.482227
v -7.479902 1.511604 -51.496002
v -7.465363 1.510845 -51.504810
v -7.471392 1.511611 -51.482677
v -7.456851 1.510851 -51.491489
v -7.479902 1.511604 -51.496002
v -7.465363 1.510845 -51.504810
v -7.465981 1.060904 -51.504360
v -7.472013 1.061661 -51.482227
v -7.471392 1.511611 -51.482677
v -7.472460 1.461567 -51.517700
v -7.320122 1.496862 -51.251949
v -7.320122 1.461567 -51.251949
v -7.472460 1.496862 -51.517700
v -7.487035 1.496862 -51.508930
v -7.334697 1.461567 -51.243160
v -7.334697 1.496862 -51.243160
v -7.487035 1.461567 -51.508930
v -7.472460 1.461567 -51.517700
v -7.487035 1.496862 -51.508930
v -7.472460 1.496862 -51.517700
v -7.487035 1.461567 -51.508930
v -7.472460 1.461567 -51.517700
v -7.320122 1.461567 -51.251949
v -7.334697 1.496862 -51.243160
v -7.487035 1.496862 -51.508930
v -20.838299 1.114914 -49.055218
v -20.838299 1.206914 -49.052967
v -20.838299 1.114914 -49.052967
v -20.838299 1.206914 -49.055218
v -20.845800 1.114914 -49.052967
v -20.845810 1.206914 -49.055218
v -20.845810 1.114914 -49.055218
v -20.845800 1.206914 -49.052967
v -17.241510 1.114914 -49.055218
v -17.241510 1.206914 -49.052967
v -17.241510 1.114914 -49.052967
v -17.241510 1.206914 -49.055218
v -17.249010 1.114914 -49.052967
v -17.249010 1.206914 -49.055218
v -17.249010 1.114914 -49.055218
v -17.249010 1.206914 -49.052967
v -19.037020 1.114914 -49.055218
v -19.037020 1.206914 -49.052967
v -19.037020 1.114914 -49.052967
v -19.037020 1.206914 -49.055218
v -19.044519 1.114914 -49.052967
v -19.044519 1.206914 -49.055218
v -19.044519 1.114914 -49.055218
v -19.044519 1.206914 -49.052967
vn 0.5014 -0.0002 0.8652
vn 0.5014 -0.0000 0.8652
vn -0.5052 -0.0033 -0.8630
vn -0.5061 -0.0008 -0.8624
vn -0.5055 -0.0026 -0.8628
vn -0.5056 -0.0024 -0.8628
vn -0.5062 -0.0007 -0.8624
vn -0.5064 -0.0000 -0.8623
vn -0.4907 -0.0000 -0.8713
vn -0.5014 -0.0000 -0.8652
vn 0.8772 -0.0000 -0.4802
vn 0.6121 0.7163 -0.3351
vn 0.6286 0.6974 -0.3441
vn -0.8772 -0.0000 0.4801
vn -0.8772 -0.0000 0.4802
vn -0.6286 -0.6975 0.3441
vn -0.6120 -0.7164 0.3350
vn -0.5161 -0.0000 -0.8565
vn -0.5163 -0.0000 -0.8564
vn -0.5162 -0.0000 -0.8565
vn -0.0000 -1.0000 -0.0000
vn -0.0000 1.0000 -0.0000
vn -0.4833 -0.0000 -0.8754
vn -0.3374 0.7160 -0.6112
vn -0.3461 0.6980 -0.6269
vn 0.4834 -0.0000 0.8754
vn 0.3462 -0.6979 0.6270
vn 0.3375 -0.7159 0.6112
vn -0.8555 -0.0000 0.5178
vn -0.8554 -0.0000 0.5179
vn 0.8556 -0.0000 -0.5177
vn 0.8556 -0.0000 -0.5176
vn 0.8553 -0.0000 -0.5181
vn 0.8427 -0.0017 -0.5384
vn 0.8427 -0.0017 -0.5385
vn 0.9770 -0.0011 0.2133
vn 0.9708 -0.0011 0.2400
vn -0.8425 0.0017 0.5387
vn -0.8427 0.0017 0.5383
vn -0.9708 0.0011 -0.2399
vn -0.9770 0.0011 -0.2131
vn 0.0374 0.9990 -0.0244
vn -0.5179 -0.0002 -0.8554
vn -0.5181 -0.0001 -0.8553
vn 0.5178 0.0002 0.8555
vn 0.5183 0.0001 0.8552
vn 0.8428 -0.0017 -0.5383
vn 0.8429 -0.0017 -0.5381
vn 0.9770 -0.0011 0.2131
vn 0.9707 -0.0011 0.2404
vn -0.8426 0.0017 0.5385
vn -0.9708 0.0011 -0.2400
vn -0.9771 0.0011 -0.2128
vn 0.0375 0.9990 -0.0244
vn -0.5183 -0.0002 -0.8552
vn 0.5182 0.0002 0.8553
vn 0.5177 0.0002 0.8555
vn 0.8676 -0.0000 -0.4973
vn 0.6093 0.7119 -0.3493
vn 0.6177 0.7022 -0.3541
vn -0.8676 -0.0000 0.4973
vn -0.6177 -0.7022 0.3540
vn -0.6093 -0.7119 0.3492
vn -0.5156 -0.0000 -0.8568
vn 0.6286 0.6975 -0.3441
vn -0.6121 -0.7163 0.3350
vn -0.5164 -0.0000 -0.8564
vn -0.5164 -0.0000 -0.8563
vn -0.3375 0.7159 -0.6112
vn -0.3462 0.6979 -0.6270
vn 0.4833 -0.0000 0.8754
vn 0.3461 -0.6979 0.6269
vn 0.3374 -0.7160 0.6112
vn -0.8554 -0.0000 0.5180
vn -0.8556 -0.0000 0.5177
vn -0.8553 -0.0000 0.5181
vn 0.8554 -0.0000 -0.5180
vn 0.8554 -0.0000 -0.5179
vn 0.8429 -0.0017 -0.5380
vn 0.8425 -0.0017 -0.5387
vn 0.9770 -0.0011 0.2134
vn 0.9707 -0.0011 0.2402
vn -0.8425 0.0017 0.5386
vn -0.8427 0.0017 0.5384
vn -0.9707 0.0011 -0.2401
vn -0.9771 0.0011 -0.2127
vn -0.5178 -0.0001 -0.8555
vn -0.5180 -0.0001 -0.8554
vn 0.5181 0.0002 0.8553
vn 0.8426 -0.0017 -0.5385
vn -0.9771 0.0011 -0.2130
vn -0.5182 -0.0001 -0.8553
vn 0.5182 0.0001 0.8552
vn 0.6092 0.7120 -0.3492
vn 0.6176 0.7023 -0.3540
vn -0.6178 -0.7021 0.3541
vn -0.6094 -0.7118 0.3493
vn -0.5160 -0.0000 -0.8566
vn -0.5156 -0.0000 -0.8569
vn -0.5159 -0.0000 -0.8567
vn 0.7071 -0.0000 0.7071
vn 0.7071 -0.0000 -0.7071
vn 0.5774 0.5773 0.5774
vn 0.5773 0.5773 -0.5774
vn -0.7081 -0.0000 -0.7061
vn -0.7062 -0.0000 0.7080
vn -0.5778 0.5772 -0.5771
vn -0.5769 0.5775 0.5776
vn -0.7071 -0.0000 -0.7071
vn -0.7071 -0.0000 0.7071
vn -0.5774 0.5773 -0.5774
vn -0.5773 0.5773 0.5774
vt -0.005127 2.071777
vt 0.994873 2.071777
vt -0.005127 2.897461
vt 0.994873 2.897461
vt 2.034058 2.060913
vt 2.970825 2.060913
vt 2.034058 2.842163
vt 2.970825 2.842163
vt 2.970825 2.060547
vt 2.034058 2.060547
vt 2.650024 2.842529
vt 2.325073 2.842529
vt 2.651489 1.997925
vt 2.324829 1.997925
vt -1.164551 0.844727
vt -1.830200 0.844727
vt -1.164551 0.900269
vt -1.830200 0.900269
vt -0.479370 0.900269
vt -0.479370 0.844727
vt -0.523926 0.900269
vt -0.523926 0.844727
vt 0.500000 0.005493
vt 0.000732 0.005493
vt 0.500000 0.055542
vt 0.000732 0.055542
s 0
usemtl png_kanban
f 3/1/1 1/2/1 2/1/1
f 2/1/2 1/2/2 4/2/2
f 2/1/2 4/2/2 5/3/2
f 5/3/2 4/2/2 6/4/2
f 9/5/3 7/6/4 8/7/5
f 8/7/6 7/6/7 10/8/8
f 13/8/9 11/7/9 12/9/9
f 12/9/9 11/7/9 14/10/9
f 17/11/10 15/12/10 16/13/10
f 16/13/10 15/12/10 18/14/10
s 1
f 21/15/11 19/16/11 20/17/12
f 20/17/12 19/16/11 22/18/13
f 25/17/14 23/18/15 24/15/16
f 24/15/16 23/18/15 26/16/17
s 0
f 29/19/18 27/20/19 28/21/20
f 28/21/19 27/20/19 30/22/19
s 1
f 32/17/21 24/15/16 31/18/21
f 31/18/21 24/15/16 26/16/17
f 20/17/12 22/18/13 33/15/22
f 33/15/22 22/18/13 34/16/22
f 37/15/23 35/16/23 36/17/24
f 36/17/24 35/16/23 38/18/25
f 41/17/26 39/18/26 40/15/27
f 40/15/27 39/18/26 42/16/28
s 0
f 45/19/29 43/20/29 44/21/29
f 44/21/30 43/20/30 46/22/30
s 1
f 48/17/21 40/15/27 47/18/21
f 47/18/21 40/15/27 42/16/28
s 0
f 51/20/31 49/19/32 50/22/31
f 50/22/33 49/19/31 52/21/33
s 1
f 36/17/24 38/18/25 53/15/22
f 53/15/22 38/18/25 54/16/22
f 57/15/34 55/16/35 56/17/36
f 56/17/36 55/16/35 58/18/37
f 61/17/38 59/18/39 60/15/40
f 60/15/40 59/18/39 62/16/41
s 0
f 65/19/42 63/20/42 64/21/42
f 64/21/42 63/20/42 66/22/42
s 1
f 68/17/43 60/15/40 67/18/44
f 67/18/44 60/15/40 62/16/41
f 56/17/36 58/18/37 69/15/45
f 69/15/45 58/18/37 70/16/46
f 73/15/47 71/16/48 72/17/49
f 72/17/49 71/16/48 74/18/50
f 77/17/51 75/18/39 76/15/52
f 76/15/52 75/18/39 78/16/53
s 0
f 81/19/54 79/20/54 80/21/54
f 80/21/42 79/20/42 82/22/42
s 1
f 84/17/55 76/15/52 83/18/55
f 83/18/55 76/15/52 78/16/53
f 72/17/49 74/18/50 85/15/56
f 85/15/56 74/18/50 86/16/57
f 89/15/58 87/16/58 88/17/59
f 88/17/59 87/16/58 90/18/60
f 93/17/61 91/18/61 92/15/62
f 92/15/62 91/18/61 94/16/63
s 0
f 97/19/64 95/20/64 96/21/64
f 96/21/64 95/20/64 98/22/64
s 1
f 100/17/21 92/15/62 99/18/21
f 99/18/21 92/15/62 94/16/63
f 88/17/59 90/18/60 101/15/22
f 101/15/22 90/18/60 102/16/22
f 105/15/11 103/16/11 104/17/12
f 104/17/12 103/16/11 106/18/65
f 109/17/15 107/18/15 108/15/16
f 108/15/16 107/18/15 110/16/66
s 0
f 113/19/67 111/20/67 112/21/67
f 112/21/68 111/20/68 114/22/68
s 1
f 116/17/21 108/15/16 115/18/21
f 115/18/21 108/15/16 110/16/66
f 104/17/12 106/18/65 117/15/22
f 117/15/22 106/18/65 118/16/22
f 121/15/23 119/16/23 120/17/69
f 120/17/69 119/16/23 122/18/70
f 125/17/71 123/18/71 124/15/72
f 124/15/72 123/18/71 126/16/73
s 0
f 129/19/74 127/20/74 128/21/74
f 128/21/75 127/20/75 130/22/76
s 1
f 132/17/21 124/15/72 131/18/21
f 131/18/21 124/15/72 126/16/73
s 0
f 135/20/77 133/19/77 134/22/77
f 134/22/78 133/19/78 136/21/78
s 1
f 120/17/69 122/18/70 137/15/22
f 137/15/22 122/18/70 138/16/22
f 141/15/79 139/16/80 140/17/81
f 140/17/81 139/16/80 142/18/82
f 145/17/83 143/18/84 144/15/85
f 144/15/85 143/18/84 146/16/86
s 0
f 149/19/42 147/20/42 148/21/42
f 148/21/42 147/20/42 150/22/42
s 1
f 152/17/87 144/15/85 151/18/88
f 151/18/88 144/15/85 146/16/86
f 140/17/81 142/18/82 153/15/45
f 153/15/45 142/18/82 154/16/89
f 157/15/90 155/16/90 156/17/81
f 156/17/81 155/16/90 158/18/82
f 161/17/84 159/18/38 160/15/85
f 160/15/85 159/18/38 162/16/91
s 0
f 165/19/42 163/20/42 164/21/42
f 164/21/42 163/20/42 166/22/42
s 1
f 168/17/92 160/15/85 167/18/92
f 167/18/92 160/15/85 162/16/91
f 156/17/81 158/18/82 169/15/57
f 169/15/57 158/18/82 170/16/93
f 173/15/58 171/16/58 172/17/94
f 172/17/94 171/16/58 174/18/95
f 177/17/61 175/18/61 176/15/96
f 176/15/96 175/18/61 178/16/97
s 0
f 181/19/98 179/20/99 180/21/98
f 180/21/64 179/20/64 182/22/100
s 1
f 184/17/21 176/15/96 183/18/21
f 183/18/21 176/15/96 178/16/97
f 172/17/94 174/18/95 185/15/22
f 185/15/22 174/18/95 186/16/22
f 189/23/101 187/23/102 188/24/103
f 188/24/103 187/23/102 190/24/104
f 193/25/105 191/25/106 192/26/107
f 192/26/107 191/25/106 194/26/108
f 191/25/106 189/23/101 194/26/108
f 194/26/108 189/23/101 188/24/103
f 194/26/108 188/24/103 192/26/107
f 192/26/107 188/24/103 190/24/104
f 187/23/102 193/25/105 190/24/104
f 190/24/104 193/25/105 192/26/107
f 197/23/101 195/23/102 196/24/103
f 196/24/103 195/23/102 198/24/104
f 201/25/109 199/25/110 200/26/111
f 200/26/111 199/25/110 202/26/112
f 199/25/110 197/23/101 202/26/112
f 202/26/112 197/23/101 196/24/103
f 202/26/112 196/24/103 200/26/111
f 200/26/111 196/24/103 198/24/104
f 195/23/102 201/25/109 198/24/104
f 198/24/104 201/25/109 200/26/111
f 205/23/101 203/23/102 204/24/103
f 204/24/103 203/23/102 206/24/104
f 209/25/109 207/25/110 208/26/111
f 208/26/111 207/25/110 210/26/112
f 207/25/110 205/23/101 210/26/112
f 210/26/112 205/23/101 204/24/103
f 210/26/112 204/24/103 208/26/111
f 208/26/111 204/24/103 206/24/104
f 203/23/102 209/25/109 206/24/104
f 206/24/104 209/25/109 208/26/111
