# Blender 4.1.1
# www.blender.org
mtllib FP_jog_island.md.045.mtl
o FP_jog_island.mo.045
v -10.698540 4.148008 28.353279
v -11.069990 4.181428 28.458349
v -10.700600 4.087244 28.371170
v -11.077829 4.240974 28.438450
v -11.080050 4.276619 28.382120
v -11.304080 4.242576 28.451818
v -11.313040 4.285667 28.403978
v -11.509689 4.227181 28.380499
v -11.320040 4.313874 28.294029
v -11.548989 4.262376 28.270500
v -11.314290 4.298697 28.127829
v -11.550090 4.244795 28.119589
v -11.316879 4.245508 28.012280
v -11.527530 4.189953 28.014849
v -11.310369 4.140254 27.962540
v -11.513519 4.068159 27.938829
v -11.312050 4.024895 27.996698
v -11.612160 3.947657 28.014509
v -11.311210 3.991096 28.217218
v -11.612160 3.904384 28.206600
v -11.612160 3.945085 28.398689
v -11.856279 3.882909 28.281639
v -11.906620 3.951117 28.409790
v -12.051650 3.821688 28.280710
v -12.080219 3.931719 28.375710
v -12.411819 3.873998 28.385979
v -10.700600 4.087244 28.371170
v -10.384500 4.073299 28.293139
v -10.698540 4.148008 28.353279
v -10.682720 3.998586 28.332001
v -11.044169 4.046439 28.415449
v -11.048130 4.002248 28.230000
v -11.052090 4.042031 28.044538
v -11.087939 4.166521 27.920130
v -11.125199 4.204281 27.937679
v -11.100240 4.218914 27.958910
v -11.100120 4.255498 27.993158
v -11.051869 4.205837 27.943659
v -10.732540 4.106954 27.873739
v -12.545640 3.881262 28.269709
v -12.113150 4.027238 27.999420
v -12.592259 3.877879 28.058399
v -12.113359 4.042579 28.186880
v -12.103829 4.000000 28.302889
v -11.948140 4.096963 28.216740
v -11.949400 4.060102 28.336349
v -11.664630 4.178208 28.260540
v -11.671550 4.155030 28.384069
v -11.461530 4.176116 28.454079
v -11.326440 4.145147 28.473228
v -12.099140 4.000000 27.873360
v -12.462880 3.862917 27.714699
v -12.530960 3.881262 27.872980
v -12.088910 3.922832 27.820900
v -11.908629 3.948554 27.842609
v -12.051650 3.804877 27.795099
v -11.856279 3.875788 27.893280
v -12.051650 3.771296 28.037899
v -11.856279 3.837361 28.087460
v -10.432990 4.016391 27.814390
v -10.608280 3.970539 27.897699
v -10.347870 4.077409 27.871449
v -10.691120 4.173142 27.929190
v -10.656850 4.222671 28.051399
v -11.096880 4.304398 28.108679
v -11.928460 4.045907 27.915659
v -11.920070 4.011809 27.864719
v -11.653130 4.127846 28.000330
v -11.632420 4.023359 27.960079
v -10.294340 4.085236 27.982620
v -10.303909 4.098057 28.098679
v -10.648001 4.227810 28.181290
v -10.333540 4.097768 28.201729
v -10.671070 4.181076 28.293789
v -10.384500 4.073299 28.293139
v -11.646749 4.028885 28.447590
v -11.675489 4.109656 28.436399
v -11.929669 4.008441 28.409470
v -11.661389 4.163184 28.104460
v -11.937560 4.076914 28.032110
v -11.037749 4.194001 27.894619
v -11.100240 4.218914 27.958910
v -11.051869 4.205837 27.943659
v -11.078790 4.250506 27.866879
v -10.981250 4.293558 27.699520
v -11.021359 4.312635 27.703669
v -11.102329 4.324304 28.272869
v -11.069990 4.181428 28.458349
v -11.310369 4.041271 28.437729
v -11.326440 4.145147 28.473228
v -11.646749 4.028885 28.447590
v -11.037749 4.194001 27.894619
v -11.012250 4.258184 27.708469
v -10.981250 4.293558 27.699520
v -11.087939 4.166521 27.920130
v -11.051869 4.205837 27.943659
v -11.048110 4.291245 27.719790
v -11.078790 4.250506 27.866879
v -11.021359 4.312635 27.703669
v -11.118120 4.240516 27.854029
v -11.012250 4.258184 27.708469
v -11.118120 4.240516 27.854029
v -11.048110 4.291245 27.719790
v -11.087939 4.166521 27.920130
v -11.100240 4.218914 27.958910
v -11.125199 4.204281 27.937679
v -11.012250 4.258184 27.708469
v -11.021359 4.312635 27.703669
v -10.981250 4.293558 27.699520
v -11.048110 4.291245 27.719790
v -10.690189 3.950736 28.176659
v -12.411819 3.873998 28.385979
v -12.080219 3.931719 28.375710
v -11.906620 3.951117 28.409790
v -11.125199 4.204281 27.937679
vn 0.2844 0.2618 0.9222
vn 0.3072 0.6233 0.7192
vn 0.1586 0.3281 0.9312
vn 0.1654 0.6167 0.7696
vn 0.1713 0.8793 0.4444
vn -0.0559 0.5268 0.8481
vn -0.1157 0.8691 0.4809
vn -0.3328 0.8011 0.4974
vn -0.1325 0.9847 0.1135
vn -0.4251 0.8921 0.1535
vn -0.1276 0.9590 -0.2532
vn -0.3910 0.8751 -0.2851
vn -0.1602 0.7280 -0.6666
vn -0.2464 0.6991 -0.6712
vn -0.1001 0.1025 -0.9897
vn -0.0233 -0.0353 -0.9991
vn 0.1434 -0.7613 -0.6323
vn 0.3230 -0.8056 -0.4967
vn 0.1646 -0.9861 0.0218
vn 0.2531 -0.9671 0.0262
vn 0.1288 -0.8072 0.5760
vn 0.1758 -0.9207 0.3485
vn 0.0688 -0.7925 0.6060
vn 0.1759 -0.8245 0.5378
vn 0.0326 -0.6483 0.7607
vn 0.1330 -0.6277 0.7670
vn 0.2421 0.2665 0.9329
vn 0.2076 -0.1686 0.9636
vn 0.2327 -0.1234 0.9647
vn 0.0898 -0.6659 0.7406
vn 0.0689 -0.7055 0.7053
vn -0.0420 -0.9986 0.0311
vn -0.0612 -0.8922 -0.4476
vn -0.0845 -0.2644 -0.9607
vn -0.1492 0.5489 -0.8224
vn -0.0573 0.7248 -0.6866
vn -0.0071 0.8293 -0.5587
vn 0.0299 0.6624 -0.7485
vn -0.1728 0.1085 -0.9790
vn -0.2986 0.9543 -0.0090
vn -0.2968 0.9429 0.1510
vn -0.2681 0.9520 -0.1477
vn -0.3222 0.9403 0.1097
vn -0.3060 0.8094 0.5012
vn -0.3173 0.9441 0.0897
vn -0.3736 0.8177 0.4379
vn -0.4268 0.9016 0.0702
vn -0.3508 0.8410 0.4119
vn -0.2059 0.4253 0.8813
vn -0.0415 0.2079 0.9773
vn -0.2837 0.9469 -0.1512
vn -0.1096 0.8305 -0.5462
vn -0.1604 0.8882 -0.4306
vn 0.1215 0.4231 -0.8979
vn 0.2809 0.1092 -0.9535
vn 0.3572 -0.2045 -0.9113
vn 0.4751 -0.6690 -0.5717
vn 0.3368 -0.9416 -0.0062
vn 0.3056 -0.9522 0.0008
vn -0.3070 -0.6273 -0.7157
vn -0.0346 0.4652 -0.8845
vn 0.2059 0.8600 -0.4670
vn 0.0923 0.7908 -0.6051
vn 0.2187 0.9504 -0.2210
vn 0.0523 0.9662 -0.2523
vn -0.1416 0.8963 -0.4201
vn 0.0386 0.5762 -0.8164
vn -0.1679 0.7350 -0.6570
vn 0.1836 -0.0966 -0.9783
vn 0.3261 0.9338 -0.1472
vn 0.3541 0.9352 -0.0062
vn 0.2871 0.9428 0.1695
vn 0.3566 0.9033 0.2386
vn 0.2962 0.8237 0.4835
vn 0.3195 0.8470 0.4248
vn -0.1389 0.0880 0.9864
vn -0.2478 0.4435 0.8613
vn -0.2895 0.3587 0.8874
vn -0.3766 0.8957 -0.2363
vn -0.2391 0.9515 -0.1936
vn 0.2058 0.9631 -0.1732
vn 0.5698 0.7461 0.3443
vn 0.5222 0.8325 0.1849
vn 0.5882 0.6691 0.4543
vn 0.4558 0.7611 0.4615
vn 0.4213 0.7883 0.4484
vn 0.0977 0.9848 0.1435
vn 0.1152 -0.2844 0.9518
vn 0.1197 -0.7004 0.7037
vn 0.0708 -0.3127 0.9472
vn 0.0326 -0.4765 0.8786
vn 0.7287 -0.6720 -0.1319
vn 0.4681 -0.8805 -0.0745
vn 0.7018 -0.6976 -0.1444
vn 0.5117 -0.8549 0.0859
vn 0.5796 -0.7382 0.3451
vn -0.5832 0.8060 0.1016
vn -0.5567 0.8232 0.1119
vn -0.3204 0.9227 0.2146
vn -0.3470 0.9108 0.2238
vn -0.6560 -0.5263 -0.5410
vn -0.6312 -0.5681 -0.5281
vn -0.6115 -0.6417 -0.4630
vn -0.6754 -0.6251 -0.3913
vn -0.6425 0.7215 0.2581
vn -0.5508 0.7939 0.2574
vn -0.1550 -0.1124 -0.9815
vn -0.2776 -0.1303 -0.9518
vn -0.2969 -0.1330 -0.9456
vn -0.4201 -0.1493 -0.8951
vn -0.1539 -0.9873 0.0405
vn -0.2487 0.8778 0.4093
vn -0.2843 0.5928 0.7535
vn -0.1411 -0.0367 0.9893
vn -0.7446 -0.5873 -0.3174
vt 0.901611 -0.529541
vt 1.048584 -0.571533
vt 0.901611 0.026855
vt 1.048584 0.005859
vt 1.470703 0.005859
vt 1.048584 0.269043
vt 1.356934 0.269043
vt 1.516846 0.603271
vt 1.592773 0.269043
vt 1.699463 0.609375
vt 1.828613 0.269043
vt 1.882080 0.615479
vt 2.064453 0.269043
vt 2.064453 0.621582
vt 2.331787 0.269043
vt 2.331787 0.630615
vt 2.476074 0.269043
vt 2.476074 0.991211
vt 2.630615 0.269043
vt 2.630615 0.991211
vt 2.785156 0.991211
vt 2.785156 1.346924
vt 3.143066 1.346924
vt 2.785156 1.632324
vt 3.154541 1.671631
vt 3.170166 1.890869
vt 3.167725 -0.771729
vt 3.143066 -0.529541
vt 2.920898 -0.771729
vt 2.785156 -0.529541
vt 2.785156 0.026855
vt 2.630615 0.026855
vt 2.476074 0.026855
vt 2.331787 0.026855
vt 2.135986 0.076172
vt 2.064453 0.005859
vt 1.955811 0.005859
vt 2.197998 0.016357
vt 2.331787 -0.529541
vt 1.798584 1.906250
vt 1.532959 1.906250
vt 1.887207 1.617187
vt 1.710205 1.597412
vt 1.532959 1.577393
vt 1.710205 1.301514
vt 1.532959 1.277100
vt 1.710205 0.968506
vt 1.532959 0.956299
vt 1.048584 0.611572
vt 0.901611 0.269043
vt 2.064453 1.906250
vt 2.064453 1.637207
vt 2.331787 1.981201
vt 2.331787 1.632324
vt 2.331787 1.346924
vt 2.476074 1.632324
vt 2.476074 1.346924
vt 2.630615 1.632324
vt 2.630615 1.346924
vt 2.476074 -0.529541
vt 2.331787 -0.771729
vt 2.064453 -0.834717
vt 2.064453 -0.571533
vt 1.845703 -0.571533
vt 1.794189 0.005859
vt 2.064453 1.350098
vt 2.197998 1.348389
vt 2.064453 0.992920
vt 2.331787 0.991211
vt 1.824951 -0.834717
vt 1.585449 -0.834717
vt 1.626953 -0.571533
vt 1.345947 -0.834717
vt 1.408203 -0.571533
vt 1.048584 -0.834717
vt 0.901611 0.991211
vt 1.048584 0.972900
vt 1.048584 1.310303
vt 1.887207 0.980713
vt 1.887207 1.325684
vt 5.233643 -0.245605
vt 5.122314 0.039062
vt 5.438721 -0.213135
vt 5.417480 0.034424
vt 5.210449 0.553223
vt 5.434814 0.539062
vt 1.632324 0.005859
vt 3.143066 0.026855
vt 2.785156 0.269043
vt 3.143066 0.269043
vt 3.143066 0.991211
vt 5.981201 0.059326
vt 5.925293 -0.310303
vt 6.209473 -0.002686
vt 6.158691 -0.408691
vt 5.892090 -0.430176
vt 4.577881 0.342529
vt 4.405029 0.326904
vt 4.662598 -0.225586
vt 4.471191 -0.250244
vt 4.055908 0.313232
vt 4.280762 0.330322
vt 4.014404 -0.209961
vt 4.272461 -0.189209
vt 4.513428 -0.373779
vt 4.663330 -0.346191
vt 4.109863 0.934570
vt 4.127686 0.791016
vt 4.854980 0.938721
vt 4.637939 0.728760
vt 2.630615 -0.529541
vt 1.048584 1.981201
vt 1.048584 1.577393
vt 0.901611 1.346924
vt 4.003662 -0.366211
s 1
usemtl jog_maruta
f 3/1/1 1/2/2 2/3/3
f 2/3/3 1/2/2 4/4/4
f 1/2/2 5/5/5 4/4/4
f 4/4/4 5/5/5 6/6/6
f 5/5/5 7/7/7 6/6/6
f 6/6/6 7/7/7 8/8/8
f 7/7/7 9/9/9 8/8/8
f 8/8/8 9/9/9 10/10/10
f 9/9/9 11/11/11 10/10/10
f 10/10/10 11/11/11 12/12/12
f 11/11/11 13/13/13 12/12/12
f 12/12/12 13/13/13 14/14/14
f 13/13/13 15/15/15 14/14/14
f 14/14/14 15/15/15 16/16/16
f 15/15/15 17/17/17 16/16/16
f 16/16/16 17/17/17 18/18/18
f 17/17/17 19/19/19 18/18/18
f 18/18/18 19/19/19 20/20/20
f 19/19/19 21/21/21 20/20/20
f 20/20/20 21/21/21 22/22/22
f 21/21/21 23/23/23 22/22/22
f 22/22/22 23/23/23 24/24/24
f 23/23/23 25/25/25 24/24/24
f 24/24/24 25/25/25 26/26/26
f 29/27/27 27/28/28 28/29/29
f 28/29/29 27/28/28 30/30/30
f 27/28/28 31/31/31 30/30/30
f 30/30/30 31/31/31 32/32/32
f 31/31/31 19/19/19 32/32/32
f 32/32/32 19/19/19 33/33/33
f 19/19/19 17/17/17 33/33/33
f 33/33/33 17/17/17 34/34/34
f 17/17/17 15/15/15 34/34/34
f 34/34/34 15/15/15 35/35/35
f 15/15/15 13/13/13 35/35/35
f 35/35/35 13/13/13 36/36/36
f 13/13/13 37/37/37 36/36/36
f 36/36/36 37/37/37 38/38/38
f 37/37/37 39/39/39 38/38/38
f 38/38/38 39/39/39 34/34/34
f 39/39/39 33/33/33 34/34/34
f 42/40/40 40/41/41 41/42/42
f 41/42/42 40/41/41 43/43/43
f 40/41/41 44/44/44 43/43/43
f 43/43/43 44/44/44 45/45/45
f 44/44/44 46/46/46 45/45/45
f 45/45/45 46/46/46 47/47/47
f 46/46/46 48/48/48 47/47/47
f 47/47/47 48/48/48 8/8/8
f 48/48/48 49/49/49 8/8/8
f 8/8/8 49/49/49 6/6/6
f 49/49/49 50/50/50 6/6/6
f 53/51/51 51/52/52 52/53/53
f 52/53/53 51/52/52 54/54/54
f 51/52/52 55/55/55 54/54/54
f 54/54/54 55/55/55 56/56/56
f 55/55/55 57/57/57 56/56/56
f 56/56/56 57/57/57 58/58/58
f 57/57/57 59/59/59 58/58/58
f 58/58/58 59/59/59 24/24/24
f 59/59/59 22/22/22 24/24/24
f 61/60/60 39/39/39 60/61/61
f 60/61/61 39/39/39 62/62/62
f 39/39/39 63/63/63 62/62/62
f 62/62/62 63/63/63 64/64/64
f 63/63/63 37/37/37 64/64/64
f 64/64/64 37/37/37 65/65/65
f 37/37/37 13/13/13 65/65/65
f 65/65/65 13/13/13 11/11/11
f 42/40/40 41/42/42 53/51/51
f 53/51/51 41/42/42 51/52/52
f 41/42/42 66/66/66 51/52/52
f 51/52/52 66/66/66 67/67/67
f 66/66/66 68/68/68 67/67/67
f 67/67/67 68/68/68 69/69/69
f 68/68/68 16/16/16 69/69/69
f 69/69/69 16/16/16 18/18/18
f 62/62/62 64/64/64 70/70/70
f 70/70/70 64/64/64 71/71/71
f 64/64/64 72/72/72 71/71/71
f 71/71/71 72/72/72 73/73/73
f 72/72/72 74/74/74 73/73/73
f 73/73/73 74/74/74 75/75/75
f 74/74/74 1/2/2 75/75/75
f 50/50/50 49/49/49 76/76/76
f 76/76/76 49/49/49 77/77/77
f 49/49/49 48/48/48 77/77/77
f 77/77/77 48/48/48 78/78/78
f 48/48/48 46/46/46 78/78/78
f 78/78/78 46/46/46 44/44/44
f 16/16/16 68/68/68 14/14/14
f 14/14/14 68/68/68 79/79/79
f 68/68/68 80/80/80 79/79/79
f 79/79/79 80/80/80 45/45/45
f 80/80/80 43/43/43 45/45/45
f 83/81/81 81/82/82 82/83/83
f 82/83/83 81/82/82 84/84/84
f 81/82/82 85/85/85 84/84/84
f 84/84/84 85/85/85 86/86/86
f 64/64/64 65/65/65 72/72/72
f 72/72/72 65/65/65 87/87/87
f 65/65/65 11/11/11 87/87/87
f 87/87/87 11/11/11 9/9/9
f 72/72/72 87/87/87 74/74/74
f 74/74/74 87/87/87 5/5/5
f 87/87/87 9/9/9 5/5/5
f 5/5/5 9/9/9 7/7/7
f 27/28/28 88/88/88 31/31/31
f 31/31/31 88/88/88 89/89/89
f 88/88/88 90/90/90 89/89/89
f 89/89/89 90/90/90 91/91/91
f 23/23/23 21/21/21 91/91/91
f 91/91/91 21/21/21 89/89/89
f 21/21/21 19/19/19 89/89/89
f 89/89/89 19/19/19 31/31/31
f 94/92/92 92/93/93 93/94/94
f 93/94/94 92/93/93 95/95/95
f 92/93/93 96/96/96 95/95/95
f 45/45/45 47/47/47 79/79/79
f 79/79/79 47/47/47 12/12/12
f 47/47/47 10/10/10 12/12/12
f 43/43/43 80/80/80 41/42/42
f 41/42/42 80/80/80 66/66/66
f 80/80/80 68/68/68 66/66/66
f 99/97/97 97/98/98 98/99/99
f 98/99/99 97/98/98 100/100/100
f 103/101/101 101/102/102 102/103/103
f 102/103/103 101/102/102 104/104/104
f 106/105/105 105/106/106 100/100/100
f 100/100/100 105/106/106 98/99/99
f 109/107/107 107/108/108 108/109/109
f 108/109/109 107/108/108 110/110/110
f 30/30/30 32/32/32 111/111/111
f 111/111/111 32/32/32 33/33/33
f 111/111/111 33/33/33 61/60/60
f 61/60/60 33/33/33 39/39/39
f 2/3/3 4/4/4 50/50/50
f 50/50/50 4/4/4 6/6/6
f 51/52/52 67/67/67 55/55/55
f 55/55/55 67/67/67 69/69/69
f 55/55/55 69/69/69 57/57/57
f 57/57/57 69/69/69 18/18/18
f 57/57/57 18/18/18 59/59/59
f 59/59/59 18/18/18 20/20/20
f 40/41/41 112/112/112 44/44/44
f 44/44/44 112/112/112 113/113/113
f 76/76/76 77/77/77 114/114/114
f 114/114/114 77/77/77 78/78/78
f 114/114/114 78/78/78 113/113/113
f 113/113/113 78/78/78 44/44/44
f 102/103/103 104/104/104 115/115/115
f 37/37/37 63/63/63 39/39/39
f 1/2/2 74/74/74 5/5/5
f 79/79/79 12/12/12 14/14/14
f 10/10/10 47/47/47 8/8/8
f 54/54/54 56/56/56 52/53/53
f 22/22/22 59/59/59 20/20/20
