# Blender 4.1.1
# www.blender.org
mtllib Sphere.002.mtl
o Sphere.002
v 0.000000 0.900969 -0.433884
v 0.000000 0.623490 -0.781832
v 0.000000 0.222521 -0.974928
v 0.000000 -0.623490 -0.781832
v 0.339224 0.900969 -0.270522
v 0.611260 0.623490 -0.487464
v 0.762229 0.222521 -0.607858
v 0.762229 -0.222521 -0.607858
v 0.611260 -0.623490 -0.487464
v 0.339224 -0.900969 -0.270522
v 0.423005 0.900969 0.096548
v 0.762229 0.623490 0.173974
v 0.950484 0.222521 0.216942
v 0.950484 -0.222521 0.216942
v 0.762229 -0.623490 0.173974
v 0.423005 -0.900969 0.096548
v 0.188255 0.900969 0.390915
v 0.339224 0.623490 0.704406
v 0.423005 0.222521 0.878379
v 0.423005 -0.222521 0.878379
v 0.339224 -0.623490 0.704406
v 0.188255 -0.900969 0.390916
v 0.000000 -1.000000 -0.000000
v -0.188255 0.900969 0.390915
v -0.339224 0.623490 0.704406
v -0.423005 0.222521 0.878379
v -0.423005 -0.222521 0.878379
v -0.339224 -0.623490 0.704406
v -0.188255 -0.900969 0.390915
v -0.423005 0.900969 0.096548
v -0.762229 0.623490 0.173974
v -0.950484 0.222521 0.216942
v -0.950484 -0.222521 0.216942
v -0.762229 -0.623490 0.173974
v -0.423005 -0.900969 0.096548
v -0.339224 0.900969 -0.270522
v -0.611260 0.623490 -0.487464
v -0.762229 0.222521 -0.607858
v -0.762229 -0.222521 -0.607858
v -0.611260 -0.623490 -0.487464
v -0.339224 -0.900969 -0.270522
v -0.000000 1.000000 0.000000
v 0.000000 -0.222521 -0.974928
v 0.000000 -0.900969 -0.433884
vn 0.1066 0.9694 -0.2213
vn 0.2876 -0.7488 -0.5972
vn 0.4339 -0.0000 -0.9010
vn 0.2876 0.7488 -0.5972
vn 0.1066 -0.9694 -0.2213
vn 0.3980 -0.3980 -0.8265
vn 0.3980 0.3980 -0.8265
vn 0.8944 -0.3980 -0.2041
vn 0.8944 0.3980 -0.2041
vn 0.2394 0.9694 -0.0546
vn 0.6462 -0.7488 -0.1475
vn 0.9749 -0.0000 -0.2225
vn 0.6462 0.7488 -0.1475
vn 0.2394 -0.9694 -0.0546
vn 0.1920 0.9694 0.1531
vn 0.5182 -0.7488 0.4132
vn 0.7818 -0.0000 0.6235
vn 0.5182 0.7488 0.4132
vn 0.1920 -0.9694 0.1531
vn 0.7172 -0.3980 0.5720
vn 0.7172 0.3980 0.5720
vn -0.0000 -0.7488 0.6628
vn -0.0000 -0.0000 1.0000
vn -0.0000 0.7488 0.6628
vn -0.0000 -0.9694 0.2456
vn -0.0000 -0.3980 0.9174
vn -0.0000 0.3980 0.9174
vn -0.0000 0.9694 0.2456
vn -0.7818 -0.0000 0.6235
vn -0.5182 0.7488 0.4132
vn -0.1920 -0.9694 0.1531
vn -0.7172 -0.3980 0.5720
vn -0.7172 0.3980 0.5720
vn -0.1920 0.9694 0.1531
vn -0.5182 -0.7488 0.4132
vn -0.2394 -0.9694 -0.0546
vn -0.8944 -0.3980 -0.2041
vn -0.8944 0.3980 -0.2041
vn -0.2394 0.9694 -0.0546
vn -0.6462 -0.7488 -0.1475
vn -0.9749 -0.0000 -0.2225
vn -0.6462 0.7488 -0.1475
vn -0.1066 -0.9694 -0.2213
vn -0.3980 -0.3980 -0.8265
vn -0.3980 0.3980 -0.8265
vn -0.1066 0.9694 -0.2213
vn -0.2876 -0.7488 -0.5972
vn -0.4339 -0.0000 -0.9010
vn -0.2876 0.7488 -0.5972
vt 0.714286 0.857143
vt 0.642857 1.000000
vt 0.571429 0.857143
vt 0.714286 0.142857
vt 0.571429 0.285714
vt 0.571429 0.142857
vt 0.714286 0.428571
vt 0.571429 0.571429
vt 0.571429 0.428571
vt 0.571429 0.714286
vt 0.714286 0.714286
vt 0.642857 0.000000
vt 0.714286 0.285714
vt 0.714286 0.571429
vt 0.428572 0.285714
vt 0.428572 0.714286
vt 0.428572 0.571429
vt 0.500000 1.000000
vt 0.428572 0.857143
vt 0.428572 0.142857
vt 0.428572 0.428571
vt 0.500000 0.000000
vt 0.357143 1.000000
vt 0.285714 0.857143
vt 0.285714 0.142857
vt 0.285714 0.428571
vt 0.285714 0.714286
vt 0.357143 0.000000
vt 0.285714 0.285714
vt 0.285714 0.571429
vt 0.142857 0.142857
vt 0.142857 0.428571
vt 0.142857 0.714286
vt 0.214286 0.000000
vt 0.142857 0.285714
vt 0.142857 0.571429
vt 0.214286 1.000000
vt 0.142857 0.857143
vt 0.000000 0.428571
vt 0.000000 0.857143
vt 0.000000 0.714286
vt 0.071429 0.000000
vt 0.000000 0.142857
vt 0.000000 0.285714
vt 0.000000 0.571429
vt 0.071429 1.000000
vt 0.928571 0.000000
vt 1.000000 0.142857
vt 0.857143 0.142857
vt 1.000000 0.428571
vt 0.857143 0.285714
vt 1.000000 0.285714
vt 1.000000 0.714286
vt 0.857143 0.571429
vt 1.000000 0.571429
vt 1.000000 0.857143
vt 0.928571 1.000000
vt 0.857143 0.857143
vt 0.857143 0.428571
vt 0.857143 0.714286
vt 0.785714 0.000000
vt 0.785714 1.000000
s 1
usemtl Kapal
f 1/1/1 42/2/1 5/3/1
f 44/4/2 9/5/2 10/6/2
f 43/7/3 7/8/3 8/9/3
f 1/1/4 6/10/4 2/11/4
f 23/12/5 44/4/5 10/6/5
f 43/7/6 9/5/6 4/13/6
f 2/11/7 7/8/7 3/14/7
f 8/9/8 15/15/8 9/5/8
f 7/8/9 12/16/9 13/17/9
f 5/3/10 42/18/10 11/19/10
f 9/5/11 16/20/11 10/6/11
f 7/8/12 14/21/12 8/9/12
f 5/3/13 12/16/13 6/10/13
f 23/22/14 10/6/14 16/20/14
f 11/19/15 42/23/15 17/24/15
f 15/15/16 22/25/16 16/20/16
f 13/17/17 20/26/17 14/21/17
f 11/19/18 18/27/18 12/16/18
f 23/28/19 16/20/19 22/25/19
f 14/21/20 21/29/20 15/15/20
f 12/16/21 19/30/21 13/17/21
f 21/29/22 29/31/22 22/25/22
f 19/30/23 27/32/23 20/26/23
f 17/24/24 25/33/24 18/27/24
f 23/34/25 22/25/25 29/31/25
f 20/26/26 28/35/26 21/29/26
f 18/27/27 26/36/27 19/30/27
f 17/24/28 42/37/28 24/38/28
f 26/36/29 33/39/29 27/32/29
f 25/33/30 30/40/30 31/41/30
f 23/42/31 29/31/31 35/43/31
f 27/32/32 34/44/32 28/35/32
f 25/33/33 32/45/33 26/36/33
f 24/38/34 42/46/34 30/40/34
f 28/35/35 35/43/35 29/31/35
f 23/47/36 35/48/36 41/49/36
f 33/50/37 40/51/37 34/52/37
f 31/53/38 38/54/38 32/55/38
f 30/56/39 42/57/39 36/58/39
f 34/52/40 41/49/40 35/48/40
f 32/55/41 39/59/41 33/50/41
f 30/56/42 37/60/42 31/53/42
f 23/61/43 41/49/43 44/4/43
f 39/59/44 4/13/44 40/51/44
f 37/60/45 3/14/45 38/54/45
f 36/58/46 42/62/46 1/1/46
f 41/49/47 4/13/47 44/4/47
f 38/54/48 43/7/48 39/59/48
f 36/58/49 2/11/49 37/60/49
f 44/4/2 4/13/2 9/5/2
f 43/7/3 3/14/3 7/8/3
f 1/1/4 5/3/4 6/10/4
f 43/7/6 8/9/6 9/5/6
f 2/11/7 6/10/7 7/8/7
f 8/9/8 14/21/8 15/15/8
f 7/8/9 6/10/9 12/16/9
f 9/5/11 15/15/11 16/20/11
f 7/8/12 13/17/12 14/21/12
f 5/3/13 11/19/13 12/16/13
f 15/15/16 21/29/16 22/25/16
f 13/17/17 19/30/17 20/26/17
f 11/19/18 17/24/18 18/27/18
f 14/21/20 20/26/20 21/29/20
f 12/16/21 18/27/21 19/30/21
f 21/29/22 28/35/22 29/31/22
f 19/30/23 26/36/23 27/32/23
f 17/24/24 24/38/24 25/33/24
f 20/26/26 27/32/26 28/35/26
f 18/27/27 25/33/27 26/36/27
f 26/36/29 32/45/29 33/39/29
f 25/33/30 24/38/30 30/40/30
f 27/32/32 33/39/32 34/44/32
f 25/33/33 31/41/33 32/45/33
f 28/35/35 34/44/35 35/43/35
f 33/50/37 39/59/37 40/51/37
f 31/53/38 37/60/38 38/54/38
f 34/52/40 40/51/40 41/49/40
f 32/55/41 38/54/41 39/59/41
f 30/56/42 36/58/42 37/60/42
f 39/59/44 43/7/44 4/13/44
f 37/60/45 2/11/45 3/14/45
f 41/49/47 40/51/47 4/13/47
f 38/54/48 3/14/48 43/7/48
f 36/58/49 1/1/49 2/11/49
