# Blender 4.1.1
# www.blender.org
mtllib water-rocks.mtl
o water-rocks.006
v 0.500000 0.288675 -0.100000
v 0.000000 0.577350 -0.100000
v 0.500000 -0.288675 -0.100000
v -0.000000 -0.577350 -0.100000
v -0.500000 0.288675 -0.100000
v -0.500000 -0.288675 -0.100000
v 0.500000 0.288675 0.000000
v 0.500000 -0.288675 0.000000
v 0.000000 0.577350 0.000000
v -0.000000 -0.577350 0.000000
v -0.500000 0.288675 0.000000
v -0.500000 -0.288675 0.000000
v 0.043697 0.378426 -0.187000
v 0.086793 0.403308 -0.187000
v 0.018575 0.421937 -0.187000
v 0.061672 0.446819 -0.187000
v -0.009332 0.429558 -0.100000
v 0.069026 0.474798 -0.100000
v 0.114701 0.395687 -0.100000
v 0.036343 0.350447 -0.100000
v 0.142115 0.225797 -0.259329
v 0.136293 0.273158 -0.194482
v 0.078530 0.254520 -0.259329
v 0.129057 0.085594 -0.238087
v 0.164650 0.159454 -0.259329
v 0.047296 0.091700 -0.259329
v -0.060026 0.173110 -0.125087
v -0.000680 0.147485 -0.259329
v -0.006392 0.188841 -0.259329
v 0.172534 0.173110 -0.259329
v 0.031528 0.254520 -0.259329
v 0.031528 0.091700 -0.259329
v 0.005089 0.045907 -0.100000
v -0.068352 0.173110 -0.100000
v 0.005089 0.300313 -0.100000
v 0.151971 0.045907 -0.100000
v 0.225411 0.173110 -0.100000
v 0.151971 0.300313 -0.100000
v -0.323762 0.258835 -0.219497
v -0.351967 0.280864 -0.170861
v -0.372716 0.240347 -0.219497
v -0.256333 0.177556 -0.203565
v -0.276627 0.235603 -0.219497
v -0.302932 0.137434 -0.219497
v -0.403022 0.123692 -0.118815
v -0.357959 0.141576 -0.219497
v -0.382921 0.160479 -0.219497
v -0.279688 0.247026 -0.219497
v -0.397642 0.215420 -0.219497
v -0.311294 0.129072 -0.219497
v -0.301030 0.090765 -0.100000
v -0.407437 0.119277 -0.100000
v -0.435949 0.225684 -0.100000
v -0.223134 0.168661 -0.100000
v -0.251646 0.275068 -0.100000
v -0.358053 0.303580 -0.100000
v -0.317066 -0.198519 -0.143500
v -0.360577 -0.173398 -0.143500
v -0.341948 -0.241616 -0.143500
v -0.385459 -0.216495 -0.143500
v -0.413438 -0.223849 -0.100000
v -0.368198 -0.145491 -0.100000
v -0.289087 -0.191166 -0.100000
v -0.334327 -0.269524 -0.100000
v 0.375896 0.200175 -0.143500
v 0.332385 0.225296 -0.143500
v 0.351014 0.157078 -0.143500
v 0.307503 0.182199 -0.143500
v 0.279524 0.174846 -0.100000
v 0.324764 0.253204 -0.100000
v 0.403875 0.207529 -0.100000
v 0.358635 0.129171 -0.100000
v -0.080635 -0.096798 -0.143500
v -0.032567 -0.109678 -0.143500
v -0.067631 -0.048268 -0.143500
v -0.019563 -0.061148 -0.143500
v -0.081976 -0.023145 -0.100000
v 0.005421 -0.046563 -0.100000
v -0.018222 -0.134801 -0.100000
v -0.105619 -0.111383 -0.100000
v 0.082861 -0.277925 -0.229058
v 0.082861 -0.239352 -0.229058
v 0.018302 -0.363290 -0.229058
v 0.062858 -0.239352 -0.229058
v -0.041077 -0.269377 -0.229058
v -0.003028 -0.363290 -0.229058
v -0.041077 -0.285232 -0.229058
v 0.152584 -0.301321 -0.100000
v 0.152584 -0.169629 -0.100000
v 0.052989 -0.433013 -0.100000
v 0.052989 -0.169629 -0.100000
v -0.046606 -0.433013 -0.100000
v -0.110800 -0.301321 -0.100000
v -0.110800 -0.216946 -0.100000
v -0.127698 0.329284 -0.143500
v -0.077934 0.329284 -0.143500
v -0.127698 0.379526 -0.143500
v -0.077934 0.379526 -0.143500
v -0.148056 0.400080 -0.100000
v -0.057576 0.400080 -0.100000
v -0.057576 0.308730 -0.100000
v -0.148056 0.308730 -0.100000
v 0.311895 -0.191148 -0.186469
v 0.305207 -0.216112 -0.186469
v 0.368479 -0.147098 -0.186469
v 0.318152 -0.219580 -0.186469
v 0.390622 -0.218172 -0.186469
v 0.382283 -0.150796 -0.186469
v 0.393372 -0.207911 -0.186469
v 0.270830 -0.163916 -0.100000
v 0.247993 -0.249144 -0.100000
v 0.358121 -0.095960 -0.100000
v 0.312448 -0.266414 -0.100000
v 0.422576 -0.113231 -0.100000
v 0.441284 -0.209590 -0.100000
v 0.426653 -0.264194 -0.100000
vn -0.0000 -0.0000 -1.0000
vn -0.0000 -0.0000 1.0000
vn 0.5000 0.8660 -0.0000
vn -1.0000 -0.0000 -0.0000
vn -0.5000 0.8660 -0.0000
vn 0.5000 -0.8660 -0.0000
vn 1.0000 -0.0000 -0.0000
vn -0.5000 -0.8660 -0.0000
vn 0.2500 0.9154 -0.3155
vn -0.9178 0.2411 -0.3155
vn -0.9177 0.2412 -0.3155
vn 0.2500 0.9154 -0.3156
vn 0.9178 -0.2413 -0.3155
vn 0.2499 0.9154 -0.3155
vn 0.9177 -0.2412 -0.3155
vn 0.9177 -0.2413 -0.3155
vn -0.2500 -0.9154 -0.3155
vn 0.9178 -0.2411 -0.3155
vn 0.9178 -0.2412 -0.3155
vn -0.9178 0.2413 -0.3155
vn -0.2499 -0.9154 -0.3155
vn -0.9177 0.2413 -0.3155
vn 0.3485 0.7716 -0.5322
vn 0.2090 -0.3620 -0.9084
vn -0.9160 -0.1265 -0.3808
vn -0.8323 -0.4805 -0.2762
vn -0.8323 -0.4806 -0.2762
vn -0.8323 0.4805 -0.2762
vn -0.0000 -0.9611 -0.2762
vn 0.8323 -0.4805 -0.2762
vn 0.8323 -0.4806 -0.2762
vn 0.8323 0.4805 -0.2762
vn -0.0000 0.9611 -0.2762
vn -0.2991 0.7920 -0.5322
vn 0.4038 -0.1082 -0.9084
vn -0.5582 -0.7371 -0.3808
vn -0.2487 -0.9283 -0.2762
vn -0.2488 -0.9283 -0.2762
vn -0.9283 -0.2487 -0.2762
vn 0.6796 -0.6796 -0.2762
vn 0.9283 0.2487 -0.2762
vn 0.2487 0.9283 -0.2762
vn -0.6796 0.6796 -0.2762
vn -0.2116 0.8053 -0.5538
vn -0.8033 -0.2194 -0.5537
vn -0.2116 0.8054 -0.5537
vn -0.2116 0.8053 -0.5537
vn 0.8032 0.2193 -0.5538
vn -0.2117 0.8054 -0.5537
vn 0.8033 0.2193 -0.5538
vn 0.8033 0.2193 -0.5537
vn -0.2117 0.8053 -0.5538
vn 0.2116 -0.8053 -0.5538
vn 0.8033 0.2194 -0.5537
vn 0.2116 -0.8053 -0.5537
vn -0.8032 -0.2193 -0.5538
vn 0.2117 -0.8054 -0.5537
vn -0.8033 -0.2193 -0.5538
vn -0.8033 -0.2193 -0.5537
vn 0.2117 -0.8053 -0.5538
vn 0.7231 0.4129 -0.5538
vn -0.4198 0.7191 -0.5537
vn 0.7231 0.4129 -0.5537
vn 0.4197 -0.7191 -0.5538
vn 0.4198 -0.7191 -0.5538
vn 0.4198 -0.7191 -0.5537
vn -0.7231 -0.4128 -0.5538
vn -0.7231 -0.4129 -0.5538
vn -0.7231 -0.4129 -0.5537
vn -0.4197 0.7191 -0.5538
vn -0.4198 0.7191 -0.5538
vn 0.8798 -0.0000 -0.4753
vn 0.7017 -0.5307 -0.4753
vn -0.0000 0.8798 -0.4753
vn -0.0000 -0.8798 -0.4753
vn -0.7909 -0.3855 -0.4753
vn -0.8798 -0.0000 -0.4753
vn -0.2442 0.8453 -0.4753
vn 0.5916 0.5859 -0.5538
vn -0.5916 0.5860 -0.5537
vn -0.5917 0.5860 -0.5537
vn 0.5916 0.5860 -0.5537
vn 0.5916 -0.5860 -0.5538
vn 0.5916 -0.5860 -0.5537
vn 0.5916 0.5860 -0.5538
vn -0.5916 -0.5859 -0.5538
vn -0.5916 -0.5860 -0.5537
vn -0.5916 0.5860 -0.5538
vn -0.5916 -0.5860 -0.5538
vn -0.8498 0.2277 -0.4753
vn -0.5405 0.6942 -0.4753
vn -0.2277 -0.8498 -0.4753
vn 0.2277 0.8498 -0.4753
vn 0.8637 0.1677 -0.4753
vn 0.8498 -0.2277 -0.4753
vn 0.0171 -0.8796 -0.4753
vn 0.0171 -0.8797 -0.4753
vt 0.156250 0.125000
vt 0.718750 0.197717
vt 0.718750 0.149144
vt 0.718750 0.117231
vt 0.718750 0.134445
vt 0.718750 0.122870
vt 0.718750 0.152865
vt 0.718750 0.159524
vt 0.718750 0.087264
vt 0.718750 0.105071
vt 0.718750 0.093097
vt 0.718750 0.124127
vt 0.718750 0.131015
vt 0.718750 0.174701
vt 0.718750 0.086888
vt 0.718750 0.076158
vt 0.718750 0.067781
vt 0.718750 0.143760
vt 0.718750 0.098977
vt 0.718750 0.151592
vt 0.718750 0.172905
vt 0.718750 0.219707
vt 0.718750 0.076513
vt 0.718750 0.085357
vt 0.718750 0.158919
s 0
usemtl colormap.004
f 3/1/1 2/1/1 1/1/1
f 2/1/1 3/1/1 4/1/1
f 2/1/1 4/1/1 5/1/1
f 5/1/1 4/1/1 6/1/1
f 9/1/2 8/1/2 7/1/2
f 8/1/2 9/1/2 10/1/2
f 10/1/2 9/1/2 11/1/2
f 10/1/2 11/1/2 12/1/2
f 1/1/3 9/1/3 7/1/3
f 9/1/3 1/1/3 2/1/3
f 11/1/4 6/1/4 12/1/4
f 6/1/4 11/1/4 5/1/4
f 2/1/5 11/1/5 9/1/5
f 11/1/5 2/1/5 5/1/5
f 4/1/6 8/1/6 10/1/6
f 8/1/6 4/1/6 3/1/6
f 1/1/7 8/1/7 3/1/7
f 8/1/7 1/1/7 7/1/7
f 6/1/8 10/1/8 12/1/8
f 10/1/8 6/1/8 4/1/8
f 15/2/1 14/2/1 13/2/1
f 14/2/1 15/2/1 16/2/1
f 18/3/9 15/2/10 17/3/10
f 15/2/11 18/3/12 16/2/9
f 14/2/13 18/3/14 19/3/15
f 18/3/14 14/2/16 16/2/14
f 13/2/17 19/3/18 20/3/17
f 19/3/19 13/2/17 14/2/19
f 15/2/20 20/3/21 17/3/11
f 20/3/21 15/2/22 13/2/21
f 23/4/23 22/5/23 21/4/23
f 26/4/24 25/4/24 24/6/24
f 29/4/25 28/4/25 27/7/25
f 25/4/1 21/4/1 30/4/1
f 21/4/1 25/4/1 26/4/1
f 21/4/1 26/4/1 23/4/1
f 23/4/1 26/4/1 31/4/1
f 31/4/1 26/4/1 32/4/1
f 31/4/1 32/4/1 28/4/1
f 31/4/1 28/4/1 29/4/1
f 34/8/26 32/4/26 33/8/26
f 32/4/26 34/8/26 28/4/26
f 28/4/27 34/8/27 27/7/27
f 35/8/28 27/7/28 34/8/28
f 27/7/28 35/8/28 29/4/28
f 29/4/28 35/8/28 31/4/28
f 32/4/29 36/8/29 33/8/29
f 36/8/29 32/4/29 24/6/29
f 24/6/29 32/4/29 26/4/29
f 24/6/30 37/8/30 36/8/30
f 37/8/30 24/6/30 25/4/30
f 37/8/31 25/4/31 30/4/31
f 30/4/32 38/8/32 37/8/32
f 38/8/32 30/4/32 21/4/32
f 38/8/32 21/4/32 22/5/32
f 22/5/33 35/8/33 38/8/33
f 35/8/33 22/5/33 31/4/33
f 31/4/33 22/5/33 23/4/33
f 41/9/34 40/10/34 39/9/34
f 44/9/35 43/9/35 42/11/35
f 47/9/36 46/9/36 45/12/36
f 43/9/1 39/9/1 48/9/1
f 39/9/1 43/9/1 44/9/1
f 39/9/1 44/9/1 41/9/1
f 41/9/1 44/9/1 49/9/1
f 49/9/1 44/9/1 50/9/1
f 49/9/1 50/9/1 46/9/1
f 49/9/1 46/9/1 47/9/1
f 52/13/37 50/9/37 51/13/37
f 50/9/37 52/13/37 46/9/37
f 46/9/38 52/13/38 45/12/38
f 53/13/39 45/12/39 52/13/39
f 45/12/39 53/13/39 47/9/39
f 47/9/39 53/13/39 49/9/39
f 50/9/40 54/13/40 51/13/40
f 54/13/40 50/9/40 42/11/40
f 42/11/40 50/9/40 44/9/40
f 42/11/41 55/13/41 54/13/41
f 55/13/41 42/11/41 43/9/41
f 55/13/41 43/9/41 48/9/41
f 48/9/42 56/13/42 55/13/42
f 56/13/42 48/9/42 39/9/42
f 56/13/42 39/9/42 40/10/42
f 40/10/43 53/13/43 56/13/43
f 53/13/43 40/10/43 49/9/43
f 49/9/43 40/10/43 41/9/43
f 59/14/1 58/14/1 57/14/1
f 58/14/1 59/14/1 60/14/1
f 62/15/44 60/14/45 61/15/45
f 60/14/45 62/15/46 58/14/47
f 57/14/48 62/15/49 63/15/50
f 62/15/49 57/14/51 58/14/52
f 59/14/53 63/15/54 64/15/53
f 63/15/54 59/14/55 57/14/54
f 60/14/56 64/15/57 61/15/58
f 64/15/57 60/14/59 59/14/60
f 67/16/1 66/16/1 65/16/1
f 66/16/1 67/16/1 68/16/1
f 70/17/44 68/16/45 69/17/45
f 68/16/45 70/17/46 66/16/47
f 65/16/48 70/17/49 71/17/50
f 70/17/49 65/16/51 66/16/52
f 67/16/53 71/17/54 72/17/53
f 71/17/54 67/16/55 65/16/54
f 68/16/56 72/17/57 69/17/58
f 72/17/57 68/16/59 67/16/60
f 75/18/1 74/18/1 73/18/1
f 74/18/1 75/18/1 76/18/1
f 78/19/61 75/18/62 77/19/62
f 75/18/62 78/19/63 76/18/63
f 74/18/64 78/19/63 79/19/65
f 78/19/63 74/18/66 76/18/61
f 73/18/67 79/19/66 80/19/68
f 79/19/66 73/18/69 74/18/66
f 75/18/70 80/19/69 77/19/71
f 80/19/69 75/18/62 73/18/68
f 83/20/1 82/20/1 81/20/1
f 82/20/1 83/20/1 84/20/1
f 84/20/1 83/20/1 85/20/1
f 85/20/1 83/20/1 86/20/1
f 85/20/1 86/20/1 87/20/1
f 81/20/72 89/21/72 88/21/72
f 89/21/72 81/20/72 82/20/72
f 83/20/73 88/21/73 90/21/73
f 88/21/73 83/20/73 81/20/73
f 82/20/74 91/21/74 89/21/74
f 91/21/74 82/20/74 84/20/74
f 86/20/75 90/21/75 92/21/75
f 90/21/75 86/20/75 83/20/75
f 93/21/76 86/20/76 92/21/76
f 86/20/76 93/21/76 87/20/76
f 94/21/77 87/20/77 93/21/77
f 87/20/77 94/21/77 85/20/77
f 84/20/78 94/21/78 91/21/78
f 94/21/78 84/20/78 85/20/78
f 97/22/1 96/22/1 95/22/1
f 96/22/1 97/22/1 98/22/1
f 100/23/79 97/22/80 99/23/81
f 97/22/80 100/23/82 98/22/82
f 96/22/83 100/23/82 101/23/83
f 100/23/82 96/22/84 98/22/85
f 95/22/86 101/23/84 102/23/86
f 101/23/84 95/22/87 96/22/84
f 97/22/88 102/23/87 99/23/88
f 102/23/87 97/22/80 95/22/89
f 105/24/1 104/24/1 103/24/1
f 104/24/1 105/24/1 106/24/1
f 106/24/1 105/24/1 107/24/1
f 107/24/1 105/24/1 108/24/1
f 107/24/1 108/24/1 109/24/1
f 103/24/90 111/25/90 110/25/90
f 111/25/90 103/24/90 104/24/90
f 105/24/91 110/25/91 112/25/91
f 110/25/91 105/24/91 103/24/91
f 104/24/92 113/25/92 111/25/92
f 113/25/92 104/24/92 106/24/92
f 108/24/93 112/25/93 114/25/93
f 112/25/93 108/24/93 105/24/93
f 115/25/94 108/24/94 114/25/94
f 108/24/94 115/25/94 109/24/94
f 116/25/95 109/24/95 115/25/95
f 109/24/95 116/25/95 107/24/95
f 106/24/96 116/25/96 113/25/96
f 116/25/97 106/24/97 107/24/97
f 3/1/1 2/1/1 1/1/1
f 2/1/1 3/1/1 4/1/1
f 2/1/1 4/1/1 5/1/1
f 5/1/1 4/1/1 6/1/1
f 9/1/2 8/1/2 7/1/2
f 8/1/2 9/1/2 10/1/2
f 10/1/2 9/1/2 11/1/2
f 10/1/2 11/1/2 12/1/2
f 1/1/3 9/1/3 7/1/3
f 9/1/3 1/1/3 2/1/3
f 11/1/4 6/1/4 12/1/4
f 6/1/4 11/1/4 5/1/4
f 2/1/5 11/1/5 9/1/5
f 11/1/5 2/1/5 5/1/5
f 4/1/6 8/1/6 10/1/6
f 8/1/6 4/1/6 3/1/6
f 1/1/7 8/1/7 3/1/7
f 8/1/7 1/1/7 7/1/7
f 6/1/8 10/1/8 12/1/8
f 10/1/8 6/1/8 4/1/8
f 15/2/1 14/2/1 13/2/1
f 14/2/1 15/2/1 16/2/1
f 18/3/9 15/2/10 17/3/10
f 15/2/11 18/3/12 16/2/9
f 14/2/13 18/3/14 19/3/15
f 18/3/14 14/2/16 16/2/14
f 13/2/17 19/3/18 20/3/17
f 19/3/19 13/2/17 14/2/19
f 15/2/20 20/3/21 17/3/11
f 20/3/21 15/2/22 13/2/21
f 23/4/23 22/5/23 21/4/23
f 26/4/24 25/4/24 24/6/24
f 29/4/25 28/4/25 27/7/25
f 25/4/1 21/4/1 30/4/1
f 21/4/1 25/4/1 26/4/1
f 21/4/1 26/4/1 23/4/1
f 23/4/1 26/4/1 31/4/1
f 31/4/1 26/4/1 32/4/1
f 31/4/1 32/4/1 28/4/1
f 31/4/1 28/4/1 29/4/1
f 34/8/26 32/4/26 33/8/26
f 32/4/26 34/8/26 28/4/26
f 28/4/27 34/8/27 27/7/27
f 35/8/28 27/7/28 34/8/28
f 27/7/28 35/8/28 29/4/28
f 29/4/28 35/8/28 31/4/28
f 32/4/29 36/8/29 33/8/29
f 36/8/29 32/4/29 24/6/29
f 24/6/29 32/4/29 26/4/29
f 24/6/30 37/8/30 36/8/30
f 37/8/30 24/6/30 25/4/30
f 37/8/31 25/4/31 30/4/31
f 30/4/32 38/8/32 37/8/32
f 38/8/32 30/4/32 21/4/32
f 38/8/32 21/4/32 22/5/32
f 22/5/33 35/8/33 38/8/33
f 35/8/33 22/5/33 31/4/33
f 31/4/33 22/5/33 23/4/33
f 41/9/34 40/10/34 39/9/34
f 44/9/35 43/9/35 42/11/35
f 47/9/36 46/9/36 45/12/36
f 43/9/1 39/9/1 48/9/1
f 39/9/1 43/9/1 44/9/1
f 39/9/1 44/9/1 41/9/1
f 41/9/1 44/9/1 49/9/1
f 49/9/1 44/9/1 50/9/1
f 49/9/1 50/9/1 46/9/1
f 49/9/1 46/9/1 47/9/1
f 52/13/37 50/9/37 51/13/37
f 50/9/37 52/13/37 46/9/37
f 46/9/38 52/13/38 45/12/38
f 53/13/39 45/12/39 52/13/39
f 45/12/39 53/13/39 47/9/39
f 47/9/39 53/13/39 49/9/39
f 50/9/40 54/13/40 51/13/40
f 54/13/40 50/9/40 42/11/40
f 42/11/40 50/9/40 44/9/40
f 42/11/41 55/13/41 54/13/41
f 55/13/41 42/11/41 43/9/41
f 55/13/41 43/9/41 48/9/41
f 48/9/42 56/13/42 55/13/42
f 56/13/42 48/9/42 39/9/42
f 56/13/42 39/9/42 40/10/42
f 40/10/43 53/13/43 56/13/43
f 53/13/43 40/10/43 49/9/43
f 49/9/43 40/10/43 41/9/43
f 59/14/1 58/14/1 57/14/1
f 58/14/1 59/14/1 60/14/1
f 62/15/44 60/14/45 61/15/45
f 60/14/45 62/15/46 58/14/47
f 57/14/48 62/15/49 63/15/50
f 62/15/49 57/14/51 58/14/52
f 59/14/53 63/15/54 64/15/53
f 63/15/54 59/14/55 57/14/54
f 60/14/56 64/15/57 61/15/58
f 64/15/57 60/14/59 59/14/60
f 67/16/1 66/16/1 65/16/1
f 66/16/1 67/16/1 68/16/1
f 70/17/44 68/16/45 69/17/45
f 68/16/45 70/17/46 66/16/47
f 65/16/48 70/17/49 71/17/50
f 70/17/49 65/16/51 66/16/52
f 67/16/53 71/17/54 72/17/53
f 71/17/54 67/16/55 65/16/54
f 68/16/56 72/17/57 69/17/58
f 72/17/57 68/16/59 67/16/60
f 75/18/1 74/18/1 73/18/1
f 74/18/1 75/18/1 76/18/1
f 78/19/61 75/18/62 77/19/62
f 75/18/62 78/19/63 76/18/63
f 74/18/64 78/19/63 79/19/65
f 78/19/63 74/18/66 76/18/61
f 73/18/67 79/19/66 80/19/68
f 79/19/66 73/18/69 74/18/66
f 75/18/70 80/19/69 77/19/71
f 80/19/69 75/18/62 73/18/68
f 83/20/1 82/20/1 81/20/1
f 82/20/1 83/20/1 84/20/1
f 84/20/1 83/20/1 85/20/1
f 85/20/1 83/20/1 86/20/1
f 85/20/1 86/20/1 87/20/1
f 81/20/72 89/21/72 88/21/72
f 89/21/72 81/20/72 82/20/72
f 83/20/73 88/21/73 90/21/73
f 88/21/73 83/20/73 81/20/73
f 82/20/74 91/21/74 89/21/74
f 91/21/74 82/20/74 84/20/74
f 86/20/75 90/21/75 92/21/75
f 90/21/75 86/20/75 83/20/75
f 93/21/76 86/20/76 92/21/76
f 86/20/76 93/21/76 87/20/76
f 94/21/77 87/20/77 93/21/77
f 87/20/77 94/21/77 85/20/77
f 84/20/78 94/21/78 91/21/78
f 94/21/78 84/20/78 85/20/78
f 97/22/1 96/22/1 95/22/1
f 96/22/1 97/22/1 98/22/1
f 100/23/79 97/22/80 99/23/81
f 97/22/80 100/23/82 98/22/82
f 96/22/83 100/23/82 101/23/83
f 100/23/82 96/22/84 98/22/85
f 95/22/86 101/23/84 102/23/86
f 101/23/84 95/22/87 96/22/84
f 97/22/88 102/23/87 99/23/88
f 102/23/87 97/22/80 95/22/89
f 105/24/1 104/24/1 103/24/1
f 104/24/1 105/24/1 106/24/1
f 106/24/1 105/24/1 107/24/1
f 107/24/1 105/24/1 108/24/1
f 107/24/1 108/24/1 109/24/1
f 103/24/90 111/25/90 110/25/90
f 111/25/90 103/24/90 104/24/90
f 105/24/91 110/25/91 112/25/91
f 110/25/91 105/24/91 103/24/91
f 104/24/92 113/25/92 111/25/92
f 113/25/92 104/24/92 106/24/92
f 108/24/93 112/25/93 114/25/93
f 112/25/93 108/24/93 105/24/93
f 115/25/94 108/24/94 114/25/94
f 108/24/94 115/25/94 109/24/94
f 116/25/95 109/24/95 115/25/95
f 109/24/95 116/25/95 107/24/95
f 106/24/96 116/25/96 113/25/96
f 116/25/97 106/24/97 107/24/97
