# Blender 4.1.1
# www.blender.org
mtllib Plane.mtl
o House_Wall_(Tembok_Rumah)
v -0.989096 -0.353835 1.015792
v 1.000000 -0.353835 1.087689
v -0.989096 -0.353835 -1.021244
v 1.000000 -0.353835 -1.087689
v -0.737079 -0.353835 0.943134
v -0.519756 -0.353835 0.906152
v -0.301930 -0.353835 0.883605
v -0.084858 -0.353835 0.883981
v 0.131461 -0.353835 0.907342
v 0.346523 -0.353835 0.941798
v 0.564977 -0.353835 1.001514
v 0.777778 -0.353835 1.097003
v 0.777778 -0.353835 -1.105311
v 0.564977 -0.353835 -1.009991
v 0.346523 -0.353835 -0.951365
v 0.131460 -0.353835 -0.913623
v -0.084858 -0.353835 -0.895340
v -0.301930 -0.353835 -0.896794
v -0.519756 -0.353835 -0.915312
v -0.737079 -0.353835 -0.948786
v -0.989096 -0.353835 1.015792
v -0.989096 -0.353835 -1.021244
v -1.823797 -0.353835 0.059140
v -1.823797 -0.353835 -0.064592
v -0.989096 -11.774105 -1.021244
v -0.989096 -11.774105 1.015792
v 0.777778 -11.774105 1.097003
v 1.000000 -11.774105 1.087689
v 1.000000 -11.774105 -1.087689
v -0.737079 -11.774105 -0.948786
v -0.737079 -11.774105 0.943134
v -0.519756 -11.774105 0.906152
v -0.301930 -11.774105 0.883605
v -0.084858 -11.774105 0.883981
v 0.131460 -11.774105 0.907342
v 0.346523 -11.774105 0.941798
v 0.564976 -11.774105 1.001514
v 0.777778 -11.774105 -1.105311
v 0.564976 -11.774105 -1.009991
v 0.346523 -11.774105 -0.951365
v 0.131460 -11.774105 -0.913623
v -0.084858 -11.774105 -0.895340
v -0.301930 -11.774105 -0.896794
v -0.519756 -11.774105 -0.915312
v -0.989096 -11.774105 -1.021244
v -0.989096 -11.774105 1.015792
v -1.823797 -11.774105 -0.064592
v -1.823797 -11.774105 0.059140
vn -0.0000 -1.0000 -0.0000
vn -0.0000 -0.0000 -0.0000
vn -0.0000 1.0000 -0.0000
vn -0.0847 -0.0000 0.9964
vn 0.7535 -0.0000 0.6574
vn 0.4094 -0.0000 -0.9124
vn -0.2770 -0.0000 -0.9609
vn -0.1522 -0.0000 0.9883
vn -0.0790 -0.0000 0.9969
vn -0.1678 -0.0000 -0.9858
vn 0.4088 -0.0000 0.9126
vn -0.1030 -0.0000 -0.9947
vn 0.2592 -0.0000 0.9658
vn 0.0017 -0.0000 -1.0000
vn 0.1729 -0.0000 0.9849
vn 0.1074 -0.0000 -0.9942
vn -0.0419 -0.0000 -0.9991
vn 0.0842 -0.0000 0.9964
vn 1.0000 -0.0000 -0.0000
vn 0.1582 -0.0000 -0.9874
vn -1.0000 -0.0000 -0.0000
vn -0.0067 -0.0000 1.0000
vn 0.7535 -0.0000 -0.6574
vn 0.2637 -0.0000 -0.9646
vn -0.2763 -0.0000 0.9611
vt 0.888889 0.000000
vt 1.000000 1.000000
vt 1.000000 0.000000
vt 0.000000 1.000000
vt 0.111111 0.000000
vt 0.000000 0.000000
vt 0.111111 1.000000
vt 0.222222 0.000000
vt 0.222222 1.000000
vt 0.333333 0.000000
vt 0.444444 1.000000
vt 0.444444 0.000000
vt 0.555556 1.000000
vt 0.555556 0.000000
vt 0.666667 0.000000
vt 0.777778 1.000000
vt 0.777778 0.000000
vt 0.888889 1.000000
vt 0.333333 1.000000
vt 0.666667 1.000000
s 1
usemtl TembokRumah
f 12/1/1 4/2/1 2/3/1
f 3/4/1 5/5/1 1/6/1
f 20/7/1 6/8/1 5/5/1
f 19/9/1 7/10/1 6/8/1
f 7/10/1 17/11/1 8/12/1
f 8/12/1 16/13/1 9/14/1
f 16/13/1 10/15/1 9/14/1
f 10/15/1 14/16/1 11/17/1
f 11/17/1 13/18/1 12/1/1
f 1/6/2 22/4/2 3/4/2
f 23/6/1 22/4/1 21/6/1
f 27/1/3 29/2/3 38/18/3
f 31/5/3 25/4/2 26/6/2
f 32/8/3 30/7/3 31/5/3
f 33/10/3 44/9/3 32/8/3
f 33/10/3 42/11/3 43/19/3
f 34/12/3 41/13/3 42/11/3
f 36/15/3 41/13/3 35/14/3
f 36/15/3 39/16/3 40/20/3
f 37/17/3 38/18/3 39/16/3
f 26/6/2 45/4/2 46/6/2
f 45/4/2 48/6/3 46/6/2
f 19/9/4 43/19/4 18/19/4
f 24/4/5 45/4/5 22/4/5
f 12/1/6 37/17/6 11/17/6
f 5/5/7 26/6/7 1/6/7
f 20/7/8 44/9/8 19/9/8
f 13/18/9 29/2/9 4/2/9
f 6/8/10 31/5/10 5/5/10
f 14/16/11 38/18/11 13/18/11
f 7/10/12 32/8/12 6/8/12
f 15/20/13 39/16/13 14/16/13
f 21/6/2 26/6/2 46/6/2
f 7/10/14 34/12/14 33/10/14
f 16/13/15 40/20/15 15/20/15
f 3/4/2 45/4/2 25/4/2
f 9/14/16 34/12/16 8/12/16
f 2/3/17 27/1/17 12/1/17
f 17/11/18 41/13/18 16/13/18
f 23/6/19 47/4/19 24/4/19
f 10/15/20 35/14/20 9/14/20
f 4/2/21 28/3/21 2/3/21
f 18/19/22 42/11/22 17/11/22
f 21/6/23 48/6/23 23/6/23
f 11/17/24 36/15/24 10/15/24
f 3/4/25 30/7/25 20/7/25
f 12/1/1 13/18/1 4/2/1
f 3/4/1 20/7/1 5/5/1
f 20/7/1 19/9/1 6/8/1
f 19/9/1 18/19/1 7/10/1
f 7/10/1 18/19/1 17/11/1
f 8/12/1 17/11/1 16/13/1
f 16/13/1 15/20/1 10/15/1
f 10/15/1 15/20/1 14/16/1
f 11/17/1 14/16/1 13/18/1
f 1/6/2 21/6/2 22/4/2
f 23/6/1 24/4/1 22/4/1
f 27/1/3 28/3/3 29/2/3
f 31/5/3 30/7/3 25/4/2
f 32/8/3 44/9/3 30/7/3
f 33/10/3 43/19/3 44/9/3
f 33/10/3 34/12/3 42/11/3
f 34/12/3 35/14/3 41/13/3
f 36/15/3 40/20/3 41/13/3
f 36/15/3 37/17/3 39/16/3
f 37/17/3 27/1/3 38/18/3
f 26/6/2 25/4/2 45/4/2
f 45/4/2 47/4/3 48/6/3
f 19/9/4 44/9/4 43/19/4
f 24/4/5 47/4/5 45/4/5
f 12/1/6 27/1/6 37/17/6
f 5/5/7 31/5/7 26/6/7
f 20/7/8 30/7/8 44/9/8
f 13/18/9 38/18/9 29/2/9
f 6/8/10 32/8/10 31/5/10
f 14/16/11 39/16/11 38/18/11
f 7/10/12 33/10/12 32/8/12
f 15/20/13 40/20/13 39/16/13
f 21/6/2 1/6/2 26/6/2
f 7/10/14 8/12/14 34/12/14
f 16/13/15 41/13/15 40/20/15
f 3/4/2 22/4/2 45/4/2
f 9/14/16 35/14/16 34/12/16
f 2/3/17 28/3/17 27/1/17
f 17/11/18 42/11/18 41/13/18
f 23/6/19 48/6/19 47/4/19
f 10/15/20 36/15/20 35/14/20
f 4/2/21 29/2/21 28/3/21
f 18/19/22 43/19/22 42/11/22
f 21/6/23 46/6/23 48/6/23
f 11/17/24 37/17/24 36/15/24
f 3/4/25 25/4/25 30/7/25
