# Blender 4.1.1
# www.blender.org
mtllib FP_jog_island.md.038.mtl
o FP_jog_island.mo.038
v -28.752819 19.114670 -24.506479
v -30.245220 24.632610 -25.743370
v -29.686810 24.903929 -23.359779
v -28.496729 19.300001 -25.643250
v -28.462160 19.194559 -25.641270
v -28.336988 19.438370 -27.278280
v -28.301630 19.342129 -27.306719
v -28.879759 19.570459 -28.565859
v -28.852659 19.469999 -28.621880
v -29.079689 19.569170 -28.787239
v -29.007549 19.469999 -28.816479
v -31.367140 19.469999 -29.164049
v -29.634748 17.653120 -16.402269
v -29.056450 17.328300 -14.703560
v -29.056530 17.206860 -14.761350
v -29.646029 17.762789 -16.401180
v -29.934370 17.996500 -18.114389
v -29.942070 18.097559 -18.108339
v -29.751009 18.421980 -20.688629
v -29.757799 18.518770 -20.673180
v -29.252029 18.878870 -22.922029
v -30.134270 23.882410 -19.816959
v -29.455820 24.164099 -21.789799
v -49.692078 24.844450 -20.510590
v -52.693077 20.799040 -20.751410
v -50.291599 24.890209 -18.927120
v -51.952339 21.078270 -21.979919
v -51.026867 21.309330 -23.462990
v -51.090080 21.209999 -23.486969
v -50.320820 21.368219 -24.599659
v -50.371147 21.260000 -24.657709
v -47.099869 21.359400 -28.404739
v -50.252838 21.260000 -24.816660
v -47.117950 21.260000 -28.479488
v -48.506279 25.270390 -22.506689
v -46.354370 25.455750 -25.324389
v -45.373470 25.512659 -26.400509
v -46.937248 21.360619 -28.556419
v -45.667839 21.189810 -29.631510
v -46.975147 21.260000 -28.608669
v -45.674538 21.091410 -29.705059
v -43.105808 25.439720 -27.896460
v -43.902569 20.895849 -30.527180
v -41.358150 25.398001 -28.412159
v -41.816040 20.477600 -31.313688
v -39.020370 25.188389 -28.607769
v -40.073048 20.113539 -31.730160
v -38.586830 19.834469 -31.869619
v -40.093491 20.015001 -31.790789
v -38.579819 19.748001 -31.922298
v -47.152878 23.007439 -8.493499
v -47.779327 25.198559 -11.687750
v -49.305679 23.275780 -10.738560
v -43.688957 26.027328 -9.574195
v -45.102348 21.464510 -7.484970
v -39.811817 24.567549 -9.045895
v -39.944458 20.600170 -7.741879
v -35.732079 21.493950 -7.778688
v -43.920078 20.795969 -30.585009
v -41.825729 20.373510 -31.375069
v -35.712360 19.564770 -31.709749
v -35.706181 19.469999 -31.768089
v -35.952778 19.565620 -31.832329
v -34.554710 19.469999 -30.521330
v -34.581928 19.569679 -30.482399
v -31.396700 19.567930 -29.129040
v -33.040951 25.014570 -27.182119
v -53.834099 20.583490 -15.795219
v -50.034531 25.018009 -16.201220
v -53.490719 20.378649 -19.168350
v -52.751587 20.699369 -20.795849
v -52.012417 20.978170 -22.018980
v -36.067600 25.010679 -28.357279
v -37.051239 19.614960 -31.904280
v -35.950871 19.475000 -31.890160
v -29.247940 18.772829 -22.944750
v -28.736528 19.013710 -24.526470
v -48.794460 25.702250 -14.178149
v -52.326210 21.786640 -13.097939
v -50.034531 25.018009 -16.201220
v -53.834099 20.583490 -15.795219
v -29.052330 23.441330 -11.794530
v -32.067490 25.457239 -10.556410
v -30.058559 23.953840 -9.706144
v -29.917540 25.404369 -12.778399
v -37.066151 19.533140 -31.958059
v -30.389719 23.972330 -17.756849
v -30.314299 24.258739 -16.336800
v -36.013718 25.870359 -9.498750
v -33.363270 22.275169 -7.480831
v -31.420660 28.095428 -13.803410
v -32.764290 27.838469 -11.847320
v -53.564190 20.275040 -19.173899
vn 0.9811 0.1369 -0.1371
vn 0.9556 0.1479 0.2550
vn 0.7958 0.4080 -0.4474
vn 0.9323 0.3092 0.1879
vn 0.9334 0.3035 0.1915
vn 0.9235 0.3697 -0.1028
vn 0.9194 0.3739 -0.1222
vn 0.7408 0.4862 -0.4634
vn 0.7405 0.4825 -0.4679
vn 0.3947 0.5041 -0.7681
vn 0.4723 0.5473 -0.6909
vn 0.2362 0.3895 -0.8902
vn 0.9452 0.1398 -0.2950
vn 0.9655 0.1026 -0.2392
vn 0.9414 0.1569 -0.2985
vn 0.9709 0.1137 -0.2106
vn 0.9959 0.0789 -0.0453
vn 0.9966 0.0754 -0.0343
vn 0.9872 0.0443 0.1533
vn 0.9872 0.0449 0.1530
vn 0.9681 0.0186 0.2501
vn 0.9800 0.0282 0.1972
vn 0.9953 0.0180 0.0950
vn -0.7772 0.6103 -0.1531
vn -0.7539 0.5726 -0.3221
vn -0.7682 0.5749 -0.2817
vn -0.7401 0.5780 -0.3437
vn -0.7282 0.5634 -0.3903
vn -0.7296 0.5598 -0.3930
vn -0.6813 0.5596 -0.4719
vn -0.6616 0.5819 -0.4729
vn -0.6125 0.5391 -0.5781
vn -0.2035 0.9672 -0.1521
vn -0.5980 0.5445 -0.5881
vn -0.7152 0.5662 -0.4097
vn -0.6520 0.5434 -0.5288
vn -0.5528 0.5463 -0.6293
vn -0.5368 0.5411 -0.6474
vn -0.4160 0.5482 -0.7256
vn -0.5317 0.5394 -0.6530
vn -0.3694 0.5711 -0.7331
vn -0.3319 0.5367 -0.7757
vn -0.2639 0.5168 -0.8144
vn -0.1308 0.5155 -0.8468
vn -0.1482 0.5177 -0.8426
vn 0.0308 0.5206 -0.8532
vn -0.0361 0.5289 -0.8479
vn 0.0407 0.5261 -0.8495
vn -0.0341 0.5289 -0.8480
vn 0.0395 0.5226 -0.8517
vn -0.5753 0.6772 0.4587
vn -0.3152 0.6014 0.7341
vn -0.5386 0.6895 0.4844
vn -0.1412 0.5241 0.8398
vn -0.0109 0.3968 0.9178
vn 0.0143 0.3502 0.9366
vn 0.0237 0.3114 0.9500
vn -0.1228 0.3423 0.9315
vn -0.2546 0.5175 -0.8169
vn -0.1454 0.5131 -0.8460
vn 0.2401 0.5258 -0.8160
vn 0.5374 0.4672 -0.7021
vn 0.5128 0.4741 -0.7157
vn 0.5200 0.4300 -0.7380
vn 0.5183 0.4275 -0.7406
vn 0.2482 0.3917 -0.8860
vn 0.3574 0.4530 -0.8168
vn -0.7569 0.6523 0.0408
vn -0.7949 0.6026 -0.0705
vn -0.7936 0.5736 -0.2029
vn -0.7681 0.5758 -0.2800
vn -0.7406 0.5782 -0.3423
vn 0.2488 0.4805 -0.8410
vn 0.0684 0.5391 -0.8395
vn 0.2301 0.5270 -0.8181
vn 0.9658 -0.0158 0.2589
vn 0.9536 0.0975 0.2847
vn -0.6621 0.6852 0.3035
vn -0.7093 0.6700 0.2193
vn -0.7146 0.6768 0.1770
vn -0.7475 0.6521 0.1270
vn 0.4318 0.8060 0.4048
vn 0.8822 0.4630 -0.0853
vn 0.4166 0.6237 0.6614
vn 0.8727 0.4598 0.1644
vn 0.0675 0.5394 -0.8393
vn 0.9962 0.0864 0.0057
vn 0.9774 0.1615 -0.1367
vn 0.0934 0.4780 0.8734
vn 0.0215 0.5195 0.8542
vn 0.8029 0.5259 0.2808
vn 0.5491 0.5168 0.6568
vn -0.7848 0.5696 -0.2442
vt -2.311768 -0.123047
vt -2.381348 -0.788330
vt -2.075439 -0.089844
vt -2.226074 -0.774170
vt -2.229004 -0.787598
vt -2.081543 -0.770264
vt -2.081787 -0.782715
vt -1.930420 -0.767578
vt -1.927734 -0.781006
vt -1.779785 -0.760742
vt -1.781494 -0.773926
vt -1.649902 -0.768066
vt -3.112305 -1.041260
vt -2.999023 -0.963379
vt -3.121094 -1.030029
vt -3.000244 -0.951416
vt -2.867432 -0.912842
vt -2.867676 -0.902344
vt -2.657227 -0.863770
vt -2.657471 -0.853271
vt -2.517578 -0.810303
vt -2.660889 -0.270752
vt -2.503662 -0.267822
vt 0.770996 -0.055420
vt 0.591309 -0.026855
vt 0.705566 -0.605225
vt 0.524170 -0.586670
vt 0.337647 -0.553467
vt 0.338379 -0.564941
vt 0.238770 -0.552246
vt 0.236816 -0.564941
vt -0.155762 -0.551025
vt 0.191406 -0.564941
vt -0.158691 -0.562988
vt 0.305908 -0.090820
vt -0.027100 -0.063477
vt -0.147949 -0.055176
vt -0.224365 -0.550049
vt -0.340576 -0.556641
vt -0.226318 -0.562256
vt -0.344971 -0.568115
vt -0.627930 -0.096924
vt -0.610107 -0.593994
vt -0.807861 -0.068848
vt -0.802490 -0.632324
vt -1.014160 -0.006592
vt -0.955322 -0.681885
vt -1.039062 -0.703613
vt -0.954102 -0.694824
vt -1.039551 -0.714844
vt -5.879639 -0.382080
vt -5.391113 -0.421875
vt -5.879639 -0.148926
vt -5.148926 -0.115479
vt -5.139648 -0.593506
vt -4.776123 -0.252686
vt -4.776367 -0.616943
vt -4.452637 -0.533936
vt -0.609619 -0.604736
vt -0.802490 -0.644287
vt -1.278076 -0.757324
vt -1.314453 -0.756836
vt -1.313477 -0.768311
vt -1.427734 -0.768311
vt -1.426514 -0.756104
vt -1.650635 -0.755127
vt -1.681641 -0.040283
vt 1.117920 -0.070557
vt 1.117920 -0.635498
vt 0.883057 -0.622559
vt 0.704102 -0.618652
vt 0.522461 -0.601562
vt -1.362793 -0.087646
vt -1.164062 -0.727295
vt -1.276611 -0.768311
vt -2.517822 -0.821289
vt -2.382568 -0.799805
vt -6.246094 -0.164307
vt -6.244385 -0.524902
vt -6.632080 -0.070557
vt -6.632080 -0.635498
vt -3.791992 -0.428711
vt -3.557617 -0.469727
vt -3.883789 -0.132568
vt -3.520508 -0.139648
vt -1.161133 -0.737061
vt -2.880615 -0.284668
vt -3.078369 -0.239258
vt -4.316895 -0.052002
vt -4.166260 -0.542969
vt -3.429932 0.217773
vt -3.753174 0.245117
vt 0.885498 -0.635498
s 1
usemtl jog_mtn_128
f 3/1/1 1/2/2 2/3/3
f 2/3/3 1/2/2 4/4/4
f 1/2/2 5/5/5 4/4/4
f 4/4/4 5/5/5 6/6/6
f 5/5/5 7/7/7 6/6/6
f 6/6/6 7/7/7 8/8/8
f 7/7/7 9/9/9 8/8/8
f 8/8/8 9/9/9 10/10/10
f 9/9/9 11/11/11 10/10/10
f 10/10/10 11/11/11 12/12/12
f 15/13/13 13/14/14 14/15/15
f 14/15/15 13/14/14 16/16/16
f 13/14/14 17/17/17 16/16/16
f 16/16/16 17/17/17 18/18/18
f 17/17/17 19/19/19 18/18/18
f 18/18/18 19/19/19 20/20/20
f 19/19/19 21/21/21 20/20/20
f 20/20/20 21/21/21 22/22/22
f 21/21/21 23/23/23 22/22/22
f 26/24/24 24/25/25 25/26/26
f 25/26/26 24/25/25 27/27/27
f 24/25/25 28/28/28 27/27/27
f 27/27/27 28/28/28 29/29/29
f 28/28/28 30/30/30 29/29/29
f 29/29/29 30/30/30 31/31/31
f 30/30/30 32/32/32 31/31/31
f 31/31/31 32/32/32 33/33/33
f 32/32/32 34/34/34 33/33/33
f 24/25/25 35/35/35 28/28/28
f 28/28/28 35/35/35 30/30/30
f 35/35/35 36/36/36 30/30/30
f 30/30/30 36/36/36 32/32/32
f 36/36/36 37/37/37 32/32/32
f 32/32/32 37/37/37 38/38/38
f 37/37/37 39/39/39 38/38/38
f 38/38/38 39/39/39 40/40/40
f 39/39/39 41/41/41 40/40/40
f 37/37/37 42/42/42 39/39/39
f 39/39/39 42/42/42 43/43/43
f 42/42/42 44/44/44 43/43/43
f 43/43/43 44/44/44 45/45/45
f 44/44/44 46/46/46 45/45/45
f 45/45/45 46/46/46 47/47/47
f 46/46/46 48/48/48 47/47/47
f 47/47/47 48/48/48 49/49/49
f 48/48/48 50/50/50 49/49/49
f 53/51/51 51/52/52 52/53/53
f 52/53/53 51/52/52 54/54/54
f 51/52/52 55/55/55 54/54/54
f 54/54/54 55/55/55 56/56/56
f 55/55/55 57/57/57 56/56/56
f 56/56/56 57/57/57 58/58/58
f 39/39/39 43/43/43 41/41/41
f 41/41/41 43/43/43 59/59/59
f 43/43/43 45/45/45 59/59/59
f 59/59/59 45/45/45 60/60/60
f 45/45/45 47/47/47 60/60/60
f 60/60/60 47/47/47 49/49/49
f 63/61/61 61/62/62 62/63/63
f 62/63/63 61/62/62 64/64/64
f 61/62/62 65/65/65 64/64/64
f 64/64/64 65/65/65 66/66/66
f 65/65/65 67/67/67 66/66/66
f 66/66/66 67/67/67 10/10/10
f 69/68/68 26/24/24 68/69/69
f 68/69/69 26/24/24 70/70/70
f 26/24/24 25/26/26 70/70/70
f 70/70/70 25/26/26 71/71/71
f 25/26/26 72/72/72 71/71/71
f 46/46/46 73/73/73 48/48/48
f 48/48/48 73/73/73 74/74/74
f 73/73/73 63/61/61 74/74/74
f 74/74/74 63/61/61 75/75/75
f 63/61/61 62/63/63 75/75/75
f 19/19/19 76/76/76 21/21/21
f 21/21/21 76/76/76 1/2/2
f 76/76/76 77/77/77 1/2/2
f 1/2/2 77/77/77 5/5/5
f 52/53/53 78/78/78 53/51/51
f 53/51/51 78/78/78 79/79/79
f 78/78/78 80/80/80 79/79/79
f 79/79/79 80/80/80 81/81/81
f 84/82/82 82/83/83 83/84/84
f 83/84/84 82/83/83 85/85/85
f 82/83/83 14/15/15 85/85/85
f 85/85/85 14/15/15 16/16/16
f 48/48/48 74/74/74 50/50/50
f 50/50/50 74/74/74 86/86/86
f 74/74/74 75/75/75 86/86/86
f 63/61/61 73/73/73 61/62/62
f 61/62/62 73/73/73 65/65/65
f 73/73/73 67/67/67 65/65/65
f 20/20/20 22/22/22 18/18/18
f 18/18/18 22/22/22 87/87/87
f 18/18/18 87/87/87 16/16/16
f 16/16/16 87/87/87 88/88/88
f 23/23/23 21/21/21 3/1/1
f 3/1/1 21/21/21 1/2/2
f 25/26/26 27/27/27 72/72/72
f 72/72/72 27/27/27 29/29/29
f 32/32/32 38/38/38 34/34/34
f 34/34/34 38/38/38 40/40/40
f 56/56/56 58/58/58 89/89/89
f 89/89/89 58/58/58 90/90/90
f 16/16/16 88/88/88 85/85/85
f 85/85/85 88/88/88 91/91/91
f 92/92/92 89/89/89 83/84/84
f 83/84/84 89/89/89 90/90/90
f 85/85/85 91/91/91 83/84/84
f 83/84/84 91/91/91 92/92/92
f 4/4/4 6/6/6 2/3/3
f 2/3/3 6/6/6 8/8/8
f 2/3/3 8/8/8 67/67/67
f 67/67/67 8/8/8 10/10/10
f 64/64/64 66/66/66 12/12/12
f 12/12/12 66/66/66 10/10/10
f 71/71/71 93/93/93 70/70/70
f 90/90/90 84/82/82 83/84/84
