# Blender 4.1.1
# www.blender.org
mtllib FP_jog_island.md.026.mtl
o FP_jog_island.mo.026
v 136.432007 9.166313 327.340393
v 138.955704 -1.970209 343.124481
v 138.955704 9.166313 343.124481
v 136.432007 -1.970209 327.340393
v 129.913589 9.166313 306.468018
v 129.913589 -1.970209 306.468018
v 125.009598 9.166313 282.361023
v 125.009598 -1.970209 282.361023
v 127.211098 9.166313 269.248901
v 127.211098 -1.970209 269.248901
v 135.368011 9.166313 262.460602
v 135.368011 -1.970209 262.460602
v 146.628006 8.675547 261.619385
v 146.628006 -2.460974 261.619385
v 160.857590 8.653991 268.337006
v 160.857590 -2.482531 268.337006
v 171.847702 8.403241 274.514679
v 171.847702 -2.733281 274.514679
v 183.917603 7.725410 276.373108
v 183.917603 -3.411111 276.373108
v 198.687088 7.221518 276.071808
v 198.687088 -3.915003 276.071808
vn -0.9875 -0.0000 0.1579
vn -0.9735 -0.0000 0.2286
vn -0.9685 -0.0000 0.2490
vn -0.9999 -0.0000 0.0172
vn -0.8671 -0.0000 -0.4982
vn -0.3791 -0.0000 -0.9254
vn -0.3709 -0.0000 -0.9287
vn 0.1786 -0.0000 -0.9839
vn 0.1860 -0.0000 -0.9826
vn 0.4585 -0.0000 -0.8887
vn 0.4590 -0.0000 -0.8885
vn 0.3305 -0.0000 -0.9438
vn 0.3223 -0.0000 -0.9466
vn 0.0686 -0.0000 -0.9976
vn 0.0637 -0.0000 -0.9980
vn -0.0204 -0.0000 -0.9998
vt 1.000000 1.000000
vt 0.899994 1.000000
vt 1.000000 0.000000
vt 0.899994 0.000000
vt 0.799988 1.000000
vt 0.799988 0.000000
vt 0.700012 1.000000
vt 0.700012 0.000000
vt 0.600006 1.000000
vt 0.600006 0.000000
vt 0.479217 1.000000
vt 0.479217 0.000000
vt 0.379211 1.000000
vt 0.379211 0.000000
vt 0.299988 1.000000
vt 0.299988 0.000000
vt 0.200012 1.000000
vt 0.200012 0.000000
vt 0.100006 1.000000
vt 0.100006 0.000000
vt 0.000000 1.000000
vt 0.000000 0.000000
s 1
usemtl golf_island
f 3/1/1 1/2/2 2/3/1
f 2/3/1 1/2/2 4/4/2
f 1/2/2 5/5/3 4/4/2
f 4/4/2 5/5/3 6/6/3
f 5/5/3 7/7/4 6/6/3
f 6/6/3 7/7/4 8/8/4
f 7/7/4 9/9/5 8/8/4
f 8/8/4 9/9/5 10/10/5
f 9/9/5 11/11/6 10/10/5
f 10/10/5 11/11/6 12/12/7
f 11/11/6 13/13/8 12/12/7
f 12/12/7 13/13/8 14/14/9
f 13/13/8 15/15/10 14/14/9
f 14/14/9 15/15/10 16/16/11
f 15/15/10 17/17/12 16/16/11
f 16/16/11 17/17/12 18/18/13
f 17/17/12 19/19/14 18/18/13
f 18/18/13 19/19/14 20/20/15
f 19/19/14 21/21/16 20/20/15
f 20/20/15 21/21/16 22/22/16
