# Blender 4.1.1
# www.blender.org
mtllib FP_jog_island.md.036.mtl
o FP_jog_island.mo.036
v -21.785002 1.920000 4.072500
v -21.568750 1.920000 3.495000
v -21.923750 1.920000 3.990000
v -21.285002 1.920000 3.786250
v -21.213749 1.920000 4.525000
v -20.785002 1.920000 3.500000
v -20.657499 1.920000 4.525000
v -19.650000 1.920000 4.525000
v -20.785002 1.920000 5.550000
v -19.836250 1.920000 6.025000
v -20.776249 1.920000 6.927500
v -20.003750 1.920000 8.266250
v -23.062500 1.920000 5.550000
v -23.357500 1.920000 4.525000
v -23.221249 1.920000 5.628750
v -23.189999 1.920000 4.525000
v -22.633749 1.920000 4.525000
v -23.062500 1.920000 3.500000
v -22.562500 1.920000 3.786250
v -22.278749 1.920000 3.495000
v -22.062500 1.920000 4.072500
v -21.923750 1.920000 3.990000
v -20.323750 1.920000 0.691250
v -20.003750 1.920000 0.783750
v -19.488750 1.920000 -0.108750
v -20.776249 1.920000 2.121250
v -21.923750 1.920000 1.790000
v -21.923750 1.920000 2.830000
v -22.556250 1.920000 3.013750
v -19.836250 1.920000 3.025000
v -18.412500 1.920000 2.312500
v -18.138750 1.920000 4.525000
v -16.459999 1.920000 4.525000
v -18.412500 1.920000 6.737500
v -16.831249 1.920000 7.530000
v -19.145000 1.920000 9.752500
v -21.291250 1.920000 3.013750
v -21.568750 1.920000 3.495000
v -21.923750 1.920000 3.410000
v -21.285002 1.920000 5.263750
v -21.785002 1.920000 4.977500
v -21.568750 1.920000 5.555000
v -21.923750 1.920000 5.058750
v -20.776249 1.920000 2.121250
v -20.003750 1.920000 0.783750
v -19.488750 1.920000 -0.108750
v -16.831249 1.920000 1.520000
v -22.785002 1.920000 2.617500
v -23.221249 1.920000 3.420000
v -20.776249 1.920000 6.927500
v -21.923750 1.920000 7.260000
v -20.323750 1.920000 8.358751
v -21.923750 1.920000 6.218750
v -21.291250 1.920000 6.036250
v -21.568750 1.920000 5.555000
v -22.785002 1.920000 6.432500
v -23.062500 1.920000 5.550000
v -23.221249 1.920000 5.628750
v -22.556250 1.920000 6.036250
v -22.278749 1.920000 5.555000
v -21.923750 1.920000 5.638750
v -21.923750 1.920000 5.058750
v -22.062500 1.920000 4.977500
v -22.562500 1.920000 5.263750
v -21.291250 1.920000 3.013750
v -22.562500 1.920000 5.263750
v -22.062500 1.920000 4.977500
v -20.003750 1.920000 8.266250
v -19.145000 1.920000 9.752500
v -21.291250 1.920000 6.036250
v 20.482500 0.270000 19.913750
v 20.447500 0.311250 20.000000
v 20.447500 0.270000 20.000000
v 20.482500 0.311250 19.913750
v 20.568750 0.270000 19.877499
v 20.568750 0.311250 19.877499
v 20.656250 0.270000 19.913750
v 20.656250 0.311250 19.913750
v 20.691250 0.270000 20.000000
v 20.691250 0.311250 20.000000
v 20.656250 0.270000 20.086250
v 20.656250 0.311250 20.086250
v 20.568750 0.270000 20.122499
v 20.568750 0.311250 20.122499
v 20.482500 0.270000 20.086250
v 20.482500 0.311250 20.086250
v 20.447500 0.270000 20.000000
v 20.447500 0.311250 20.000000
v 20.379999 0.310000 20.000000
v 20.435001 0.310000 19.866249
v 20.568750 0.310000 19.809999
v 20.703749 0.310000 19.866249
v 20.758749 0.310000 20.000000
v 20.703749 0.310000 20.133749
v 20.568750 0.310000 20.189999
v 20.435001 0.310000 20.133749
v 20.379999 0.310000 20.000000
v 20.258749 0.003750 20.000000
v 20.350000 0.003750 19.781250
v 20.568750 0.003750 19.689999
v 20.788750 0.003750 19.781250
v 20.878750 0.003750 20.000000
v 20.788750 0.003750 20.218750
v 20.568750 0.003750 20.309999
v 20.350000 0.003750 20.218750
v 20.258749 0.003750 20.000000
v 20.151249 0.003750 20.000000
v 20.273750 0.003750 20.296249
v 19.988749 0.003750 20.000000
v 20.158749 0.003750 20.410000
v 19.772499 0.003750 20.000000
v 20.006250 0.003750 20.563749
v 20.568750 0.003750 20.418749
v 20.568750 0.003750 20.580000
v 20.568750 0.003750 20.797499
v 20.865002 0.003750 20.296249
v 20.980000 0.003750 20.410000
v 21.132500 0.003750 20.563749
v 20.987499 0.003750 20.000000
v 21.150000 0.003750 20.000000
v 21.366249 0.003750 20.000000
v 20.865002 0.003750 19.703749
v 20.980000 0.003750 19.590000
v 21.132500 0.003750 19.436249
v 20.568750 0.003750 19.581249
v 20.568750 0.003750 19.420000
v 20.568750 0.003750 19.202499
v 20.273750 0.003750 19.703749
v 20.158749 0.003750 19.590000
v 20.006250 0.003750 19.436249
v 20.151249 0.003750 20.000000
v 19.988749 0.003750 20.000000
v 19.772499 0.003750 20.000000
vn -0.0000 1.0000 -0.0000
vn 0.9266 -0.0000 0.3760
vn 0.7115 -0.0000 0.7027
vn 0.5713 0.7873 0.2318
vn 0.4157 0.8115 0.4106
vn 0.0025 -0.0000 1.0000
vn 0.0015 0.8119 0.5837
vn -0.7097 -0.0000 0.7045
vn -0.4140 0.8122 0.4110
vn -1.0000 -0.0000 -0.0000
vn -0.5873 0.8094 -0.0000
vn -0.7097 -0.0000 -0.7045
vn -0.4140 0.8122 -0.4110
vn 0.0026 -0.0000 -1.0000
vn 0.0015 0.8119 -0.5837
vn 0.7115 -0.0000 -0.7027
vn 0.4157 0.8116 -0.4106
vn 0.9266 -0.0000 -0.3760
vn 0.5713 0.7873 -0.2318
vn -0.6269 0.7353 -0.2577
vn -0.4609 0.7602 -0.4580
vn -0.0008 0.7591 -0.6510
vn 0.4610 0.7595 -0.4590
vn 0.6502 0.7598 -0.0000
vn 0.4611 0.7596 0.4588
vn -0.0014 0.7590 0.6511
vn -0.4616 0.7596 0.4582
vn -0.6274 0.7342 0.2594
vn -0.4431 0.8774 -0.1841
vn -0.3205 0.8915 -0.3203
vn -0.0003 0.8921 -0.4518
vn 0.3199 0.8921 -0.3190
vn 0.4531 0.8915 -0.0000
vn 0.3200 0.8921 0.3191
vn -0.0006 0.8922 0.4517
vn -0.3202 0.8917 0.3199
vn -0.4425 0.8776 0.1846
vt 3.000000 9.000000
vt 2.000000 9.000000
vt 3.000000 8.000000
vt 2.000000 8.000000
vt 1.000000 8.000000
vt 2.000000 7.000000
vt 1.000000 7.000000
vt 1.000000 5.000000
vt 0.000000 7.000000
vt 0.000000 5.000000
vt -1.000000 5.000000
vt -1.000000 3.000000
vt 9.000000 5.375000
vt 9.000000 7.000000
vt 8.000000 5.375000
vt 8.000000 7.000000
vt 8.000000 8.000000
vt 7.000000 7.000000
vt 7.000000 8.000000
vt 6.000000 8.000000
vt 6.000000 9.000000
vt 4.000000 9.000000
vt 4.000000 1.000000
vt 4.375000 3.000000
vt 4.000000 3.000000
vt 4.000000 5.000000
vt 5.000000 4.875000
vt 5.000000 7.000000
vt 6.000000 7.000000
vt 2.000000 5.000000
vt 2.000000 3.000000
vt 1.000000 3.000000
vt 1.000000 1.000000
vt 0.000000 3.000000
vt 0.000000 1.000000
vt -1.000000 1.000000
vt 4.000000 7.000000
vt 4.000000 8.000000
vt 5.000000 8.000000
vt 0.000000 8.000000
vt 0.000000 9.000000
vt -1.000000 8.000000
vt -1.000000 9.000000
vt 3.000000 5.000000
vt 3.000000 3.000000
vt 3.000000 1.000000
vt 2.000000 1.000000
vt 6.000000 5.375000
vt 7.000000 5.375000
vt -2.375000 3.000000
vt -2.000000 5.001953
vt -3.000000 5.001953
vt -3.000000 7.000000
vt -2.000000 7.000000
vt -2.000000 8.000000
vt -5.000000 5.501953
vt -4.000000 5.501953
vt -5.000000 7.000000
vt -4.000000 7.000000
vt -4.000000 8.000000
vt -3.000000 8.000000
vt -2.000000 9.001954
vt 9.000000 9.000000
vt 9.000000 8.000000
vt 3.000000 7.000000
vt -5.000000 8.000000
vt -5.000000 9.000000
vt -2.000000 0.939453
vt -2.000000 3.001953
vt -1.000000 7.000000
vt 9.000000 4.500000
vt 8.000000 4.500000
vt 9.000000 4.000000
vt 8.000000 4.000000
vt 7.000000 4.500000
vt 7.000000 4.000000
vt 6.000000 4.500000
vt 6.000000 4.000000
vt 5.000000 4.500000
vt 5.000000 4.000000
vt 4.000000 4.500000
vt 4.000000 4.000000
vt 3.000000 4.500000
vt 3.000000 4.000000
vt 2.000000 4.500000
vt 2.000000 4.000000
vt 1.000000 4.500000
vt 1.000000 4.000000
vt 9.000000 3.000000
vt 8.000000 3.000000
vt 7.000000 3.000000
vt 6.000000 3.000000
vt 5.000000 3.000000
vt 9.000000 1.500000
vt 8.000000 1.500000
vt 7.000000 1.500000
vt 6.000000 1.500000
vt 5.000000 1.500000
vt 4.000000 1.500000
vt 3.000000 1.500000
vt 2.000000 1.500000
vt 1.000000 1.500000
vt 1.000000 0.500000
vt 2.000000 0.500000
vt 1.000000 -1.000000
vt 2.000000 -1.000000
vt 3.000000 0.500000
vt 3.000000 -1.000000
vt 4.000000 0.500000
vt 4.000000 -1.000000
vt 5.000000 1.000000
vt 5.000000 0.500000
vt 5.000000 -1.000000
vt 6.000000 1.000000
vt 6.000000 0.500000
vt 6.000000 -1.000000
vt 7.000000 1.000000
vt 7.000000 0.500000
vt 7.000000 -1.000000
vt 8.000000 1.000000
vt 8.000000 0.500000
vt 8.000000 -1.000000
vt 9.000000 1.000000
vt 9.000000 0.500000
vt 9.000000 -1.000000
s 0
usemtl jog_w_hamon
f 3/1/1 1/2/1 2/3/1
f 2/3/1 1/2/1 4/4/1
f 1/2/1 5/5/1 4/4/1
f 4/4/1 5/5/1 6/6/1
f 5/5/1 7/7/1 6/6/1
f 6/6/1 7/7/1 8/8/1
f 7/7/1 9/9/1 8/8/1
f 8/8/1 9/9/1 10/10/1
f 9/9/1 11/11/1 10/10/1
f 10/10/1 11/11/1 12/12/1
f 15/13/1 13/14/1 14/15/1
f 14/15/1 13/14/1 16/16/1
f 13/14/1 17/17/1 16/16/1
f 16/16/1 17/17/1 18/18/1
f 17/17/1 19/19/1 18/18/1
f 18/18/1 19/19/1 20/20/1
f 19/19/1 21/21/1 20/20/1
f 20/20/1 21/21/1 22/22/1
f 25/23/1 23/24/1 24/25/1
f 24/25/1 23/24/1 26/26/1
f 23/24/1 27/27/1 26/26/1
f 26/26/1 27/27/1 28/28/1
f 27/27/1 29/29/1 28/28/1
f 28/28/1 29/29/1 20/20/1
f 29/29/1 18/18/1 20/20/1
f 6/6/1 8/8/1 30/30/1
f 30/30/1 8/8/1 31/31/1
f 8/8/1 32/32/1 31/31/1
f 31/31/1 32/32/1 33/33/1
f 32/32/1 34/34/1 33/33/1
f 33/33/1 34/34/1 35/35/1
f 34/34/1 36/36/1 35/35/1
f 26/26/1 28/28/1 37/37/1
f 37/37/1 28/28/1 38/38/1
f 28/28/1 39/39/1 38/38/1
f 38/38/1 39/39/1 22/22/1
f 39/39/1 20/20/1 22/22/1
f 7/7/1 5/5/1 9/9/1
f 9/9/1 5/5/1 40/40/1
f 5/5/1 41/41/1 40/40/1
f 40/40/1 41/41/1 42/42/1
f 41/41/1 43/43/1 42/42/1
f 6/6/1 30/30/1 44/44/1
f 44/44/1 30/30/1 45/45/1
f 30/30/1 31/31/1 45/45/1
f 45/45/1 31/31/1 46/46/1
f 31/31/1 47/47/1 46/46/1
f 27/27/1 48/48/1 29/29/1
f 29/29/1 48/48/1 18/18/1
f 48/48/1 49/49/1 18/18/1
f 18/18/1 49/49/1 14/15/1
f 52/50/1 50/51/1 51/52/1
f 51/52/1 50/51/1 53/53/1
f 50/51/1 54/54/1 53/53/1
f 53/53/1 54/54/1 55/55/1
f 58/56/1 56/57/1 57/58/1
f 57/58/1 56/57/1 59/59/1
f 56/57/1 51/52/1 59/59/1
f 59/59/1 51/52/1 53/53/1
f 59/59/1 53/53/1 60/60/1
f 60/60/1 53/53/1 61/61/1
f 53/53/1 55/55/1 61/61/1
f 61/61/1 55/55/1 62/62/1
f 19/19/1 17/17/1 21/21/1
f 21/21/1 17/17/1 63/63/1
f 17/17/1 64/64/1 63/63/1
f 4/4/1 6/6/1 2/3/1
f 2/3/1 6/6/1 65/65/1
f 6/6/1 44/44/1 65/65/1
f 59/59/1 60/60/1 57/58/1
f 57/58/1 60/60/1 66/66/1
f 60/60/1 67/67/1 66/66/1
f 69/68/1 68/69/1 52/50/1
f 52/50/1 68/69/1 50/51/1
f 40/40/1 42/42/1 9/9/1
f 9/9/1 42/42/1 70/70/1
f 61/61/1 62/62/1 60/60/1
f 60/60/1 62/62/1 67/67/1
f 32/32/1 8/8/1 34/34/1
f 34/34/1 8/8/1 10/10/1
f 10/10/1 12/12/1 34/34/1
f 34/34/1 12/12/1 36/36/1
f 16/16/1 18/18/1 14/15/1
f 20/20/1 39/39/1 28/28/1
f 1/2/1 41/41/1 5/5/1
f 64/64/1 17/17/1 13/14/1
f 9/9/1 70/70/1 11/11/1
f 31/31/1 33/33/1 47/47/1
s 1
f 73/71/2 71/72/3 72/73/4
f 72/73/4 71/72/3 74/74/5
f 71/72/3 75/75/6 74/74/5
f 74/74/5 75/75/6 76/76/7
f 75/75/6 77/77/8 76/76/7
f 76/76/7 77/77/8 78/78/9
f 77/77/8 79/79/10 78/78/9
f 78/78/9 79/79/10 80/80/11
f 79/79/10 81/81/12 80/80/11
f 80/80/11 81/81/12 82/82/13
f 81/81/12 83/83/14 82/82/13
f 82/82/13 83/83/14 84/84/15
f 83/83/14 85/85/16 84/84/15
f 84/84/15 85/85/16 86/86/17
f 85/85/16 87/87/18 86/86/17
f 86/86/17 87/87/18 88/88/19
f 72/73/4 74/74/5 89/89/20
f 89/89/20 74/74/5 90/90/21
f 74/74/5 76/76/7 90/90/21
f 90/90/21 76/76/7 91/91/22
f 76/76/7 78/78/9 91/91/22
f 91/91/22 78/78/9 92/92/23
f 78/78/9 80/80/11 92/92/23
f 92/92/23 80/80/11 93/93/24
f 80/80/11 82/82/13 93/93/24
f 93/93/24 82/82/13 94/25/25
f 82/82/13 84/84/15 94/25/25
f 94/25/25 84/84/15 95/45/26
f 84/84/15 86/86/17 95/45/26
f 95/45/26 86/86/17 96/31/27
f 86/86/17 88/88/19 96/31/27
f 96/31/27 88/88/19 97/32/28
f 89/89/20 90/90/21 98/94/29
f 98/94/29 90/90/21 99/95/30
f 90/90/21 91/91/22 99/95/30
f 99/95/30 91/91/22 100/96/31
f 91/91/22 92/92/23 100/96/31
f 100/96/31 92/92/23 101/97/32
f 92/92/23 93/93/24 101/97/32
f 101/97/32 93/93/24 102/98/33
f 93/93/24 94/25/25 102/98/33
f 102/98/33 94/25/25 103/99/34
f 94/25/25 95/45/26 103/99/34
f 103/99/34 95/45/26 104/100/35
f 95/45/26 96/31/27 104/100/35
f 104/100/35 96/31/27 105/101/36
f 96/31/27 97/32/28 105/101/36
f 105/101/36 97/32/28 106/102/37
f 106/102/37 107/33/1 105/101/36
f 105/101/36 107/33/1 108/47/1
s 0
f 107/33/1 109/103/1 108/47/1
f 108/47/1 109/103/1 110/104/1
f 109/103/1 111/105/1 110/104/1
f 110/104/1 111/105/1 112/106/1
s 1
f 105/101/36 108/47/1 104/100/35
f 104/100/35 108/47/1 113/46/1
s 0
f 108/47/1 110/104/1 113/46/1
f 113/46/1 110/104/1 114/107/1
f 110/104/1 112/106/1 114/107/1
f 114/107/1 112/106/1 115/108/1
s 1
f 104/100/35 113/46/1 103/99/34
f 103/99/34 113/46/1 116/23/1
s 0
f 113/46/1 114/107/1 116/23/1
f 116/23/1 114/107/1 117/109/1
f 114/107/1 115/108/1 117/109/1
f 117/109/1 115/108/1 118/110/1
s 1
f 103/99/34 116/23/1 102/98/33
f 102/98/33 116/23/1 119/111/1
s 0
f 116/23/1 117/109/1 119/111/1
f 119/111/1 117/109/1 120/112/1
f 117/109/1 118/110/1 120/112/1
f 120/112/1 118/110/1 121/113/1
s 1
f 102/98/33 119/111/1 101/97/32
f 101/97/32 119/111/1 122/114/1
s 0
f 119/111/1 120/112/1 122/114/1
f 122/114/1 120/112/1 123/115/1
f 120/112/1 121/113/1 123/115/1
f 123/115/1 121/113/1 124/116/1
s 1
f 101/97/32 122/114/1 100/96/31
f 100/96/31 122/114/1 125/117/1
s 0
f 122/114/1 123/115/1 125/117/1
f 125/117/1 123/115/1 126/118/1
f 123/115/1 124/116/1 126/118/1
f 126/118/1 124/116/1 127/119/1
s 1
f 100/96/31 125/117/1 99/95/30
f 99/95/30 125/117/1 128/120/1
s 0
f 125/117/1 126/118/1 128/120/1
f 128/120/1 126/118/1 129/121/1
f 126/118/1 127/119/1 129/121/1
f 129/121/1 127/119/1 130/122/1
s 1
f 98/94/29 99/95/30 131/123/1
f 131/123/1 99/95/30 128/120/1
s 0
f 131/123/1 128/120/1 132/124/1
f 132/124/1 128/120/1 129/121/1
f 130/122/1 133/125/1 129/121/1
f 129/121/1 133/125/1 132/124/1
