# Blender 4.1.1
# www.blender.org
mtllib log.mtl
o log
v 0.086804 0.198605 -0.109458
v 0.063196 0.198605 -0.150350
v 0.109244 0.191522 -0.130592
v 0.092718 0.191522 -0.159216
v 0.050000 -0.355000 0.000000
v -0.033008 -0.355000 -0.029431
v -0.050000 -0.355000 0.000000
v -0.100000 -0.355000 -0.086603
v -0.066017 -0.355000 -0.086603
v -0.050000 -0.355000 -0.173205
v -0.033008 -0.355000 -0.143775
v 0.033008 -0.355000 -0.143775
v 0.033008 -0.355000 -0.029431
v 0.100000 -0.355000 -0.086603
v 0.066017 -0.355000 -0.086603
v 0.050000 -0.355000 -0.173205
v -0.050000 0.355000 0.000000
v -0.100000 0.355000 -0.086603
v -0.085518 -0.161875 -0.111686
v -0.124717 -0.170079 -0.143791
v -0.064482 -0.161875 -0.148121
v -0.111885 -0.170079 -0.166017
v 0.109244 0.158470 -0.130592
v 0.086804 0.151387 -0.109458
v -0.085518 -0.203946 -0.111686
v -0.124717 -0.195743 -0.143791
v 0.092718 0.158470 -0.159216
v 0.063196 0.151387 -0.150350
v -0.064482 -0.203946 -0.148121
v -0.111885 -0.195743 -0.166017
v 0.032762 0.355000 -0.029857
v 0.050000 0.355000 0.000000
v 0.100000 0.355000 -0.086603
v 0.065524 0.355000 -0.086603
v 0.050000 0.355000 -0.173205
v 0.032762 0.355000 -0.143348
v -0.032762 0.355000 -0.143348
v -0.032762 0.355000 -0.029857
v -0.065524 0.355000 -0.086603
v -0.050000 0.355000 -0.173205
v -0.026407 -0.335000 -0.040865
v 0.026407 -0.335000 -0.040865
v -0.052813 -0.335000 -0.086603
v 0.052813 -0.335000 -0.086603
v -0.026407 -0.335000 -0.132340
v 0.026407 -0.335000 -0.132340
v 0.026209 0.335000 -0.041206
v 0.052419 0.335000 -0.086603
v -0.026209 0.335000 -0.131999
v -0.052419 0.335000 -0.086603
v 0.026209 0.335000 -0.131999
v -0.026209 0.335000 -0.041206
vn 0.1990 0.9732 -0.1149
vn -0.0000 -1.0000 -0.0000
vn -0.8660 -0.0000 0.5000
vn -0.1402 0.9868 -0.0810
vn 0.6856 -0.0000 0.7280
vn -0.6336 -0.0000 0.7736
vn 0.8660 -0.0000 -0.5000
vn 0.1990 -0.9732 -0.1149
vn -0.1402 -0.9868 -0.0810
vn -0.0000 1.0000 -0.0000
vn 0.8660 -0.0000 0.5000
vn -0.8660 -0.0000 -0.5000
vn -0.2876 -0.0000 -0.9577
vn -0.0000 -0.0000 -1.0000
vn -0.0000 -0.0000 1.0000
vn 0.3532 -0.0000 -0.9356
vn -0.1990 -0.9732 0.1149
vn -0.7532 0.4935 -0.4349
vn 0.7532 -0.4935 0.4349
vn 0.1402 -0.9868 0.0810
vn -0.6856 -0.0000 -0.7280
vn 0.6336 -0.0000 -0.7736
vn 0.7532 0.4935 0.4349
vn -0.7532 -0.4935 -0.4349
vn -0.0000 0.4935 0.8697
vn -0.0000 -0.4935 -0.8697
vn -0.1990 0.9732 0.1149
vn -0.7518 -0.4963 0.4341
vn 0.7518 0.4963 -0.4341
vn 0.1402 0.9868 0.0810
vn -0.0000 0.4935 -0.8697
vn -0.0000 -0.4935 0.8697
vn -0.7532 0.4935 0.4349
vn 0.7532 -0.4935 -0.4349
vn -0.7518 -0.4963 -0.4341
vn 0.7518 0.4963 0.4341
vn -0.0000 -0.4963 0.8681
vn -0.0000 0.4963 -0.8681
vn -0.0000 -0.4963 -0.8681
vn -0.0000 0.4963 0.8681
vn 0.2876 -0.0000 0.9577
vn 0.7518 -0.4963 0.4341
vn -0.7518 0.4963 -0.4341
vn 0.7518 -0.4963 -0.4341
vn -0.7518 0.4963 0.4341
vn 0.7532 0.4935 -0.4349
vn -0.7532 -0.4935 0.4349
vn -0.3532 -0.0000 0.9356
vt 2.703359 4.159683
vt 0.871323 4.942741
vt 1.781966 3.322098
vt 2.065907 5.294131
vt 1.968504 0.000000
vt 1.299538 1.158682
vt -1.968504 0.000000
vt 3.937008 3.409549
vt 2.599077 3.409549
vt 1.968504 6.819098
vt 1.299538 5.660418
vt -1.299539 5.660418
vt -1.299539 1.158682
vt -3.937010 3.409549
vt -2.599077 3.409549
vt -1.968504 6.819098
vt 13.976380 0.984252
vt -13.976380 4.921260
vt -13.976380 0.984252
vt 13.976380 4.921260
vt -3.409993 6.294300
vt -5.803305 6.123262
vt -4.229935 4.855127
vt -5.303140 7.001155
vt -7.819087 5.442378
vt -6.238968 6.655951
vt -7.540244 6.655951
vt -5.960122 5.442378
vt -6.696020 7.385666
vt -8.029386 5.390838
vt -6.373032 5.390838
vt -7.706398 7.385666
vt -7.540244 3.603390
vt -6.238968 2.302115
vt -6.238968 3.603390
vt -7.540244 2.302115
vt -3.631493 6.493687
vt -5.463530 5.710628
vt -4.542137 4.873043
vt -4.826079 6.845077
vt 3.777136 4.968889
vt 1.383825 5.139926
vt 2.203767 3.700754
vt 3.276971 5.846782
vt 1.968504 -0.000000
vt 1.289835 1.175490
vt -1.968504 -0.000000
vt 3.937010 3.409549
vt 2.579669 3.409549
vt 1.289835 5.643606
vt -1.289834 5.643606
vt -1.289834 1.175490
vt -3.937008 3.409549
vt -2.579669 3.409549
vt -13.976380 4.921261
vt 13.976380 0.984253
vt 13.976380 4.921261
vt -13.976380 0.984253
vt -6.696020 2.447563
vt -7.706398 3.457940
vt -7.706398 2.447563
vt -6.696020 3.457940
vt 5.960122 4.085453
vt 7.540244 5.299024
vt 6.238968 5.299024
vt 7.819087 4.085453
vt 1.968504 -13.976380
vt -1.968504 13.976380
vt -1.968504 -13.976380
vt 1.968504 13.976380
vt -13.976380 0.984253
vt -8.029386 2.124577
vt -6.373031 2.124577
vt -6.373032 3.780935
vt -8.029386 3.780935
vt 7.706398 6.429482
vt 6.373032 4.434656
vt 8.029386 4.434656
vt 6.696020 6.429482
vt -5.960122 3.882238
vt 13.976380 0.984250
vt -7.819087 3.882238
vt -7.819087 2.023271
vt -5.960122 2.023271
vt -13.976380 0.984250
vt 2.079261 3.409549
vt -1.039631 1.608855
vt 1.039631 1.608855
vt -2.079262 3.409549
vt 1.039631 5.210240
vt -1.039631 5.210240
vt 12.397270 -1.803354
vt 12.162800 0.677566
vt 11.597270 -1.307171
vt 13.104180 0.677566
vt -12.397270 7.943922
vt -12.162800 5.463002
vt -11.597270 7.447739
vt -13.104180 5.463002
vt -1.289834 14.940950
vt 1.031867 14.035610
vt 1.289835 14.940950
vt -1.031867 14.035610
vt -12.152350 5.472457
vt -12.379890 7.970978
vt -13.095850 5.472458
vt -11.579570 7.471271
vt 1.031867 -10.670190
vt -1.289834 -11.575530
vt 1.289835 -11.575530
vt -1.031867 -10.670190
vt 13.104180 5.463003
vt 11.597270 7.447739
vt 12.162800 5.463003
vt 12.397270 7.943922
vt -11.579580 -1.328076
vt -13.095860 0.670739
vt -12.379900 -1.827779
vt -12.152350 0.670739
vt -1.039631 14.035790
vt 1.299538 14.942800
vt -1.299539 14.942800
vt 1.039631 14.035790
vt 1.299538 -11.558280
vt -1.039631 -10.651280
vt -1.299539 -11.558280
vt 1.039631 -10.651280
vt 2.063735 3.409549
vt -1.031867 1.622302
vt 1.031867 1.622302
vt -2.063735 3.409549
vt 1.031867 5.196795
vt -1.031867 5.196795
vt 11.579570 7.471271
vt 13.095850 5.472458
vt 12.379890 7.970978
vt 12.152340 5.472458
vt 12.152350 0.670739
vt 12.379890 -1.827779
vt 13.095860 0.670739
vt 11.579580 -1.328075
vt -13.104180 0.677567
vt -11.597270 -1.307170
vt -12.162800 0.677567
vt -12.397270 -1.803354
s 0
usemtl woodBark.001
f 3/1/1 2/2/1 1/3/1
f 2/2/1 3/1/1 4/4/1
f 7/5/2 6/6/2 5/7/2
f 6/6/2 7/5/2 8/8/2
f 6/6/2 8/8/2 9/9/2
f 9/9/2 8/8/2 10/10/2
f 9/9/2 10/10/2 11/11/2
f 11/11/2 10/10/2 12/12/2
f 13/13/2 5/7/2 6/6/2
f 5/7/2 13/13/2 14/14/2
f 14/14/2 13/13/2 15/15/2
f 14/14/2 15/15/2 12/12/2
f 14/14/2 12/12/2 16/16/2
f 16/16/2 12/12/2 10/10/2
f 17/17/3 8/18/3 7/19/3
f 8/18/3 17/17/3 18/20/3
f 21/21/4 20/22/4 19/23/4
f 20/22/4 21/21/4 22/24/4
f 1/25/5 23/26/5 3/27/5
f 23/26/5 1/25/5 24/28/5
f 20/29/6 25/30/6 19/31/6
f 25/30/6 20/29/6 26/32/6
f 4/33/7 23/34/7 27/35/7
f 23/34/7 4/33/7 3/36/7
f 28/37/8 23/38/8 24/39/8
f 23/38/8 28/37/8 27/40/8
f 26/41/9 29/42/9 25/43/9
f 29/42/9 26/41/9 30/44/9
f 32/45/10 31/46/10 17/47/10
f 31/46/10 32/45/10 33/48/10
f 31/46/10 33/48/10 34/49/10
f 34/49/10 33/48/10 35/10/10
f 34/49/10 35/10/10 36/50/10
f 36/50/10 35/10/10 37/51/10
f 38/52/10 17/47/10 31/46/10
f 17/47/10 38/52/10 18/53/10
f 18/53/10 38/52/10 39/54/10
f 18/53/10 39/54/10 37/51/10
f 18/53/10 37/51/10 40/16/10
f 40/16/10 37/51/10 35/10/10
f 33/55/11 5/56/11 14/57/11
f 5/56/11 33/55/11 32/58/11
f 20/59/12 30/60/12 26/61/12
f 30/60/12 20/59/12 22/62/12
f 28/63/13 4/64/13 27/65/13
f 4/64/13 28/63/13 2/66/13
f 10/67/14 35/68/14 16/69/14
f 35/68/14 10/67/14 40/70/14
f 17/68/15 5/67/15 32/70/15
f 5/67/15 17/68/15 7/69/15
f 8/71/12 25/72/12 10/55/12
f 25/72/12 8/71/12 18/56/12
f 25/72/12 18/56/12 19/73/12
f 19/73/12 18/56/12 21/74/12
f 29/75/12 10/55/12 25/72/12
f 10/55/12 29/75/12 40/57/12
f 40/57/12 29/75/12 21/74/12
f 40/57/12 21/74/12 18/56/12
f 30/76/16 21/77/16 29/78/16
f 21/77/16 30/76/16 22/79/16
f 16/20/7 28/80/7 14/81/7
f 28/80/7 16/20/7 35/18/7
f 28/80/7 35/18/7 2/82/7
f 2/82/7 35/18/7 1/83/7
f 24/84/7 14/81/7 28/80/7
f 14/81/7 24/84/7 33/85/7
f 33/85/7 24/84/7 1/83/7
f 33/85/7 1/83/7 35/18/7
usemtl woodInner
f 1/3/17 2/2/17 3/1/17
f 4/4/17 3/1/17 2/2/17
f 43/86/2 42/87/2 41/88/2
f 42/87/2 43/86/2 44/89/2
f 44/89/2 43/86/2 45/90/2
f 44/89/2 45/90/2 46/91/2
f 41/88/10 42/87/10 43/86/10
f 44/89/10 43/86/10 42/87/10
f 45/90/10 43/86/10 44/89/10
f 46/91/10 45/90/10 44/89/10
f 31/92/18 48/93/18 47/94/18
f 48/93/18 31/92/18 34/95/18
f 47/94/19 48/93/19 31/92/19
f 34/95/19 31/92/19 48/93/19
f 5/7/10 6/6/10 7/5/10
f 8/8/10 7/5/10 6/6/10
f 9/9/10 8/8/10 6/6/10
f 10/10/10 8/8/10 9/9/10
f 11/11/10 10/10/10 9/9/10
f 12/12/10 10/10/10 11/11/10
f 6/6/10 5/7/10 13/13/10
f 14/14/10 13/13/10 5/7/10
f 15/15/10 13/13/10 14/14/10
f 12/12/10 15/15/10 14/14/10
f 16/16/10 12/12/10 14/14/10
f 10/10/10 12/12/10 16/16/10
f 7/19/7 8/18/7 17/17/7
f 18/20/7 17/17/7 8/18/7
f 19/23/20 20/22/20 21/21/20
f 22/24/20 21/21/20 20/22/20
f 3/27/21 23/26/21 1/25/21
f 24/28/21 1/25/21 23/26/21
f 19/31/22 25/30/22 20/29/22
f 26/32/22 20/29/22 25/30/22
f 37/96/23 50/97/23 49/98/23
f 50/97/23 37/96/23 39/99/23
f 49/98/24 50/97/24 37/96/24
f 39/99/24 37/96/24 50/97/24
f 37/100/25 51/101/25 36/102/25
f 51/101/25 37/100/25 49/103/25
f 36/102/26 51/101/26 37/100/26
f 49/103/26 37/100/26 51/101/26
f 27/35/3 23/34/3 4/33/3
f 3/36/3 4/33/3 23/34/3
f 24/39/27 23/38/27 28/37/27
f 27/40/27 28/37/27 23/38/27
f 44/104/28 12/105/28 15/106/28
f 12/105/28 44/104/28 46/107/28
f 15/106/29 12/105/29 44/104/29
f 46/107/29 44/104/29 12/105/29
f 25/43/30 29/42/30 26/41/30
f 30/44/30 26/41/30 29/42/30
f 17/47/2 31/46/2 32/45/2
f 33/48/2 32/45/2 31/46/2
f 34/49/2 33/48/2 31/46/2
f 35/10/2 33/48/2 34/49/2
f 36/50/2 35/10/2 34/49/2
f 37/51/2 35/10/2 36/50/2
f 31/46/2 17/47/2 38/52/2
f 18/53/2 38/52/2 17/47/2
f 39/54/2 38/52/2 18/53/2
f 37/51/2 39/54/2 18/53/2
f 40/16/2 37/51/2 18/53/2
f 35/10/2 37/51/2 40/16/2
f 47/108/31 38/109/31 31/110/31
f 38/109/31 47/108/31 52/111/31
f 31/110/32 38/109/32 47/108/32
f 52/111/32 47/108/32 38/109/32
f 34/112/33 51/113/33 48/114/33
f 51/113/33 34/112/33 36/115/33
f 48/114/34 51/113/34 34/112/34
f 36/115/34 34/112/34 51/113/34
f 42/116/35 15/117/35 13/118/35
f 15/117/35 42/116/35 44/119/35
f 13/118/36 15/117/36 42/116/36
f 44/119/36 42/116/36 15/117/36
f 46/120/37 11/121/37 12/122/37
f 11/121/37 46/120/37 45/123/37
f 12/122/38 11/121/38 46/120/38
f 45/123/38 46/120/38 11/121/38
f 6/124/39 42/125/39 13/126/39
f 42/125/39 6/124/39 41/127/39
f 13/126/40 42/125/40 6/124/40
f 41/127/40 6/124/40 42/125/40
f 14/57/12 5/56/12 33/55/12
f 32/58/12 33/55/12 5/56/12
f 48/128/10 52/129/10 47/130/10
f 52/129/10 48/128/10 50/131/10
f 50/131/10 48/128/10 51/132/10
f 50/131/10 51/132/10 49/133/10
f 47/130/2 52/129/2 48/128/2
f 50/131/2 48/128/2 52/129/2
f 51/132/2 48/128/2 50/131/2
f 49/133/2 51/132/2 50/131/2
f 26/61/11 30/60/11 20/59/11
f 22/62/11 20/59/11 30/60/11
f 27/65/41 4/64/41 28/63/41
f 2/66/41 28/63/41 4/64/41
f 45/134/42 9/135/42 11/136/42
f 9/135/42 45/134/42 43/137/42
f 11/136/43 9/135/43 45/134/43
f 43/137/43 45/134/43 9/135/43
f 43/138/44 6/139/44 9/140/44
f 6/139/44 43/138/44 41/141/44
f 9/140/45 6/139/45 43/138/45
f 41/141/45 43/138/45 6/139/45
f 16/69/15 35/68/15 10/67/15
f 40/70/15 10/67/15 35/68/15
f 32/70/14 5/67/14 17/68/14
f 7/69/14 17/68/14 5/67/14
f 10/55/11 25/72/11 8/71/11
f 18/56/11 8/71/11 25/72/11
f 19/73/11 18/56/11 25/72/11
f 21/74/11 18/56/11 19/73/11
f 25/72/11 10/55/11 29/75/11
f 40/57/11 29/75/11 10/55/11
f 21/74/11 29/75/11 40/57/11
f 18/56/11 21/74/11 40/57/11
f 39/142/46 52/143/46 50/144/46
f 52/143/46 39/142/46 38/145/46
f 50/144/47 52/143/47 39/142/47
f 38/145/47 39/142/47 52/143/47
f 29/78/48 21/77/48 30/76/48
f 22/79/48 30/76/48 21/77/48
f 14/81/3 28/80/3 16/20/3
f 35/18/3 16/20/3 28/80/3
f 2/82/3 35/18/3 28/80/3
f 1/83/3 35/18/3 2/82/3
f 28/80/3 14/81/3 24/84/3
f 33/85/3 24/84/3 14/81/3
f 1/83/3 24/84/3 33/85/3
f 35/18/3 1/83/3 33/85/3
