# Blender 4.1.1
# www.blender.org
mtllib Cube.010.mtl
o Cube.001
v -1.870879 -1.000000 1.371769
v -1.505342 0.699176 0.833233
v -1.870879 -1.000000 -1.411644
v -1.182395 1.378930 -0.412784
v 1.000000 -1.000000 1.371769
v 1.000000 0.734036 1.000000
v 1.000000 -1.000000 -1.411644
v 0.726517 1.000000 -0.615431
v -2.483378 -1.000000 0.000000
v -1.870879 0.000000 1.000000
v -1.006724 1.331087 0.015224
v -1.870879 0.672793 -1.000000
v 0.000000 -1.000000 -1.411644
v -0.006724 1.611843 -0.412784
v 1.000000 0.000000 -1.000000
v 1.250365 -1.000000 0.000000
v 1.000000 1.000000 0.000000
v 1.000000 0.000000 1.000000
v 0.000000 -1.000000 1.371769
v 0.000000 1.000000 1.000000
v -0.262154 1.706343 0.190048
v 0.000000 -1.000000 0.000000
v 0.000000 0.000000 1.544678
v 1.162292 0.000000 0.000000
v 0.000000 0.672793 -1.000000
v -1.870879 0.914581 0.000000
vn -0.5812 0.8118 -0.0563
vn -0.5236 0.8481 0.0807
vn -0.6230 0.7603 -0.1838
vn 0.2421 0.4640 -0.8521
vn 0.2410 0.4657 -0.8515
vn 0.2757 0.4098 -0.8695
vn 0.9913 0.0959 0.0904
vn 0.9915 0.0785 0.1033
vn 0.9871 -0.0000 0.1602
vn -0.2112 0.4356 0.8750
vn -0.2401 0.3884 0.8897
vn -0.2617 0.3512 0.8990
vn -0.0000 -1.0000 -0.0000
vn -0.3228 0.7471 0.5811
vn -0.3314 0.7386 0.5871
vn -0.4549 0.5930 0.6644
vn 0.3704 0.8518 0.3704
vn 0.3953 0.8291 0.3953
vn 0.2489 0.9360 0.2489
vn 0.5224 0.8527 -0.0102
vn 0.5564 0.8183 -0.1442
vn 0.5766 0.7758 -0.2562
vn -0.3254 0.9340 -0.1475
vn -0.2512 0.9668 0.0474
vn -0.3735 0.8791 -0.2961
vn -0.0895 -0.0048 0.9960
vn -0.1904 0.1897 0.9632
vn -0.0000 -0.1704 0.9854
vn 0.2579 0.0916 0.9618
vn 0.2496 0.0827 0.9648
vn 0.3200 0.2434 0.9156
vn 0.2811 0.2947 0.9133
vn 0.4783 -0.0000 0.8782
vn 0.9826 0.0767 0.1693
vn 0.9824 0.0747 0.1713
vn 0.9816 0.0666 0.1791
vn 0.9827 0.0776 -0.1684
vn 0.9828 0.0792 -0.1668
vn 0.9821 0.0717 -0.1742
vn 0.9306 0.2306 -0.2842
vn 0.9349 0.2567 -0.2450
vn 0.9369 0.3147 -0.1521
vn 0.0765 0.3132 -0.9466
vn 0.1037 0.2881 -0.9520
vn -0.0000 0.3807 -0.9247
vn -0.0000 0.2390 -0.9710
vn -0.0361 0.6025 -0.7973
vn -0.0607 0.5761 -0.8151
vn -0.0000 0.6394 -0.7689
vn -0.9417 0.1720 -0.2891
vn -0.9524 0.2271 -0.2034
vn -0.9130 0.0975 -0.3961
vn -0.9155 0.2321 0.3286
vn -0.9147 0.2239 0.3363
vn -0.9028 0.1499 0.4031
vn -0.6417 0.6258 0.4433
vn -0.5269 0.7378 0.4219
vn -0.7410 0.4955 0.4532
vn -0.4219 0.8655 0.2699
vn 0.2047 0.5200 -0.8293
vn 0.9862 0.1601 0.0426
vn -0.1894 0.4697 0.8623
vn -0.2226 0.8325 0.5074
vn 0.4820 0.7316 0.4820
vn 0.4955 0.8654 0.0743
vn -0.1909 0.9638 0.1861
vn -0.2633 0.3362 0.9043
vn 0.4547 0.3104 0.8348
vn 0.1262 0.4745 0.8712
vn 0.9834 0.0866 0.1596
vn 0.9834 0.0866 -0.1596
vn 0.9039 0.1467 -0.4017
vn 0.1587 0.2359 -0.9587
vn -0.1044 0.5268 -0.8436
vn -0.9499 0.3039 -0.0735
vn -0.9175 0.2935 0.2684
vn -0.4051 0.8263 0.3913
vt 0.500000 0.125000
vt 0.625000 0.250000
vt 0.500000 0.250000
vt 0.500000 0.375000
vt 0.625000 0.500000
vt 0.500000 0.500000
vt 0.500000 0.625000
vt 0.625000 0.750000
vt 0.500000 0.750000
vt 0.500000 0.875000
vt 0.625000 1.000000
vt 0.500000 1.000000
vt 0.250000 0.625000
vt 0.375000 0.750000
vt 0.250000 0.750000
vt 0.875000 0.625000
vt 0.750000 0.750000
vt 0.750000 0.625000
vt 0.625000 0.625000
vt 0.750000 0.500000
vt 0.125000 0.750000
vt 0.125000 0.625000
vt 0.125000 0.500000
vt 0.375000 0.500000
vt 0.250000 0.500000
vt 0.375000 1.000000
vt 0.375000 0.875000
vt 0.375000 0.625000
vt 0.375000 0.375000
vt 0.375000 0.250000
vt 0.375000 0.125000
vt 0.500000 0.000000
vt 0.375000 0.000000
vt 0.625000 0.000000
vt 0.625000 0.125000
vt 0.625000 0.375000
vt 0.625000 0.875000
vt 0.875000 0.750000
vt 0.875000 0.500000
s 1
usemtl Material.003
f 26/1/1 4/2/2 12/3/3
f 25/4/4 8/5/5 15/6/6
f 24/7/7 6/8/8 18/9/9
f 23/10/10 2/11/11 10/12/12
f 22/13/13 5/14/13 19/15/13
f 11/16/14 20/17/15 21/18/16
f 17/19/17 20/17/18 6/8/19
f 14/20/20 17/19/21 8/5/22
f 14/20/23 11/16/24 21/18/25
f 22/13/13 1/21/13 9/22/13
f 3/23/13 22/13/13 9/22/13
f 7/24/13 22/13/13 13/25/13
f 23/10/26 1/26/27 19/27/28
f 5/14/29 23/10/30 19/27/28
f 6/8/31 23/10/32 18/9/33
f 16/28/34 18/9/35 5/14/36
f 15/6/37 16/28/38 7/24/39
f 8/5/40 24/7/41 15/6/42
f 13/29/43 15/6/44 7/24/45
f 12/3/46 13/29/46 3/30/46
f 4/2/47 25/4/48 12/3/49
f 9/31/50 12/3/51 3/30/52
f 10/32/53 9/31/54 1/33/55
f 2/34/56 26/1/57 10/32/58
f 26/1/1 11/35/59 4/2/2
f 25/4/4 14/36/60 8/5/5
f 24/7/7 17/19/61 6/8/8
f 23/10/10 20/37/62 2/11/11
f 22/13/13 16/28/13 5/14/13
f 11/16/14 2/38/63 20/17/15
f 17/19/17 21/18/64 20/17/18
f 14/20/20 21/18/65 17/19/21
f 14/20/23 4/39/66 11/16/24
f 22/13/13 19/15/13 1/21/13
f 3/23/13 13/25/13 22/13/13
f 7/24/13 16/28/13 22/13/13
f 23/10/26 10/12/67 1/26/27
f 5/14/29 18/9/68 23/10/30
f 6/8/31 20/37/69 23/10/32
f 16/28/34 24/7/70 18/9/35
f 15/6/37 24/7/71 16/28/38
f 8/5/40 17/19/72 24/7/41
f 13/29/43 25/4/73 15/6/44
f 12/3/46 25/4/46 13/29/46
f 4/2/47 14/36/74 25/4/48
f 9/31/50 26/1/75 12/3/51
f 10/32/53 26/1/76 9/31/54
f 2/34/56 11/35/77 26/1/57
