# Blender 4.1.1
# www.blender.org
mtllib FP_jog_island.md.040.mtl
o FP_jog_island.mo.040
v -524.999573 102.000000 -303.108795
v -349.999786 178.865295 -0.000039
v -606.217468 102.000000 -0.000078
v -303.108704 178.865295 -174.999893
v -303.108704 102.000000 -524.999817
v -174.999893 178.865295 -303.108704
v 0.000000 102.000000 -606.217773
v 0.000000 178.865295 -350.000000
v 303.108887 102.000000 -525.000000
v 175.000000 178.865295 -303.108887
v 525.000000 102.000000 -303.108795
v 303.108887 178.865295 -175.000000
v 606.217712 102.000000 0.000020
v 349.999878 178.865295 0.000010
v 524.999878 102.000000 303.108887
v 303.108795 178.865295 175.000000
v 303.108795 102.000000 524.999878
v 174.999893 178.865295 303.108795
v -0.000039 102.000000 606.217590
v -0.000020 178.865295 349.999878
v -303.108795 102.000000 524.999817
v -524.999817 102.000000 303.108704
v -606.217590 -3.000000 349.999786
v -676.147766 -3.000000 181.173203
v -494.974579 -3.000000 494.974487
v -349.999878 -3.000000 606.217590
v -181.173294 -3.000000 676.147888
v -606.217468 102.000000 -0.000078
v -699.999573 -3.000000 -0.000083
v -303.108795 178.865295 174.999893
v -175.000000 178.865295 303.108795
v -676.147705 -3.000000 -181.173294
v -699.999573 -3.000000 -0.000083
v -606.217407 -3.000000 -349.999878
v -494.974396 -3.000000 -494.974487
v -0.000042 -3.000000 699.999756
v 181.173203 -3.000000 676.147888
v 349.999878 -3.000000 606.217712
v 494.974579 -3.000000 494.974701
v 606.217712 -3.000000 350.000000
v 676.148010 -3.000000 181.173294
v 699.999756 -3.000000 0.000021
v 676.148010 -3.000000 -181.173294
v 606.217712 -3.000000 -349.999878
v 494.974701 -3.000000 -494.974701
v 350.000000 -3.000000 -606.217773
v 181.173294 -3.000000 -676.148071
v 0.000000 -3.000000 -700.000000
v -181.173203 -3.000000 -676.147705
v -349.999786 -3.000000 -606.217468
v -349.999786 178.865295 -0.000039
vn 0.5407 -0.8337 0.1119
vn 0.4712 -0.8390 0.2721
vn 0.2865 -0.9550 0.0768
vn 0.2489 -0.9578 0.1437
vn 0.2721 -0.8390 0.4712
vn 0.1437 -0.9578 0.2489
vn -0.0000 -0.8390 0.5441
vn -0.0000 -0.9578 0.2873
vn -0.2721 -0.8390 0.4712
vn -0.1437 -0.9578 0.2489
vn -0.4712 -0.8390 0.2721
vn -0.2489 -0.9578 0.1437
vn -0.5441 -0.8390 -0.0000
vn -0.2873 -0.9578 -0.0000
vn -0.4712 -0.8390 -0.2721
vn -0.2489 -0.9578 -0.1437
vn -0.2721 -0.8390 -0.4712
vn -0.1437 -0.9578 -0.2489
vn -0.0000 -0.8390 -0.5441
vn -0.0000 -0.9578 -0.2873
vn 0.2721 -0.8390 -0.4712
vn 0.6852 -0.7049 -0.1836
vn 0.4712 -0.8390 -0.2721
vn 0.6459 -0.6661 -0.3729
vn 0.5016 -0.7049 -0.5016
vn 0.3729 -0.6661 -0.6459
vn 0.1836 -0.7049 -0.6852
vn 0.7423 -0.6630 -0.0977
vn 0.5407 -0.8337 -0.1119
vn 0.2489 -0.9578 -0.1437
vn 0.1437 -0.9578 -0.2489
vn 0.7423 -0.6630 0.0977
vn 0.6852 -0.7049 0.1836
vn 0.6459 -0.6661 0.3729
vn 0.5016 -0.7049 0.5016
vn -0.0000 -0.6661 -0.7458
vn -0.1836 -0.7049 -0.6852
vn -0.3729 -0.6661 -0.6459
vn -0.5016 -0.7049 -0.5016
vn -0.6459 -0.6661 -0.3729
vn -0.6852 -0.7049 -0.1836
vn -0.7458 -0.6661 -0.0000
vn -0.6852 -0.7049 0.1836
vn -0.6459 -0.6661 0.3729
vn -0.5016 -0.7049 0.5016
vn -0.3729 -0.6661 0.6459
vn -0.1836 -0.7049 0.6852
vn -0.0000 -0.6661 0.7458
vn 0.1836 -0.7049 0.6852
vn 0.3729 -0.6661 0.6459
vn 0.2865 -0.9550 -0.0768
vt 3.000000 0.375000
vt 2.500000 0.375000
vt 3.000000 1.000000
vt 2.500000 1.000000
vt 2.000000 0.375000
vt 2.000000 1.000000
vt 1.500000 0.375000
vt 1.500000 1.000000
vt 1.000000 0.375000
vt 1.000000 1.000000
vt 0.500000 0.375000
vt 0.500000 1.000000
vt 0.000000 0.375000
vt 0.000000 1.000000
vt -0.500000 0.375000
vt -0.500000 1.000000
vt -1.000000 0.375000
vt -1.000000 1.000000
vt -1.500000 0.375000
vt -1.500000 1.000000
vt -2.000000 0.375000
vt -2.750000 0.000000
vt -2.500000 0.375000
vt -2.500000 0.000000
vt -2.250000 0.000000
vt -2.000000 0.000000
vt -1.750000 0.000000
vt -3.000000 0.000000
vt -3.000000 0.375000
vt -2.500000 1.000000
vt -2.000000 1.000000
vt 3.000000 0.000000
vt 2.750000 0.000000
vt 2.500000 0.000000
vt 2.250000 0.000000
vt -1.500000 0.000000
vt -1.250000 0.000000
vt -1.000000 0.000000
vt -0.750000 0.000000
vt -0.500000 0.000000
vt -0.250000 0.000000
vt 0.000000 0.000000
vt 0.250000 0.000000
vt 0.500000 0.000000
vt 0.750000 0.000000
vt 1.000000 0.000000
vt 1.250000 0.000000
vt 1.500000 0.000000
vt 1.750000 0.000000
vt 2.000000 0.000000
vt -3.000000 1.000000
s 1
usemtl jog_cloud_256
f 3/1/1 1/2/2 2/3/3
f 2/3/3 1/2/2 4/4/4
f 1/2/2 5/5/5 4/4/4
f 4/4/4 5/5/5 6/6/6
f 5/5/5 7/7/7 6/6/6
f 6/6/6 7/7/7 8/8/8
f 7/7/7 9/9/9 8/8/8
f 8/8/8 9/9/9 10/10/10
f 9/9/9 11/11/11 10/10/10
f 10/10/10 11/11/11 12/12/12
f 11/11/11 13/13/13 12/12/12
f 12/12/12 13/13/13 14/14/14
f 13/13/13 15/15/15 14/14/14
f 14/14/14 15/15/15 16/16/16
f 15/15/15 17/17/17 16/16/16
f 16/16/16 17/17/17 18/18/18
f 17/17/17 19/19/19 18/18/18
f 18/18/18 19/19/19 20/20/20
f 19/19/19 21/21/21 20/20/20
f 24/22/22 22/23/23 23/24/24
f 23/24/24 22/23/23 25/25/25
f 22/23/23 21/21/21 25/25/25
f 25/25/25 21/21/21 26/26/26
f 21/21/21 27/27/27 26/26/26
f 29/28/28 28/29/29 24/22/22
f 24/22/22 28/29/29 22/23/23
f 28/29/29 30/30/30 22/23/23
f 22/23/23 30/30/30 31/31/31
f 33/32/32 32/33/33 3/1/1
f 3/1/1 32/33/33 1/2/2
f 32/33/33 34/34/34 1/2/2
f 1/2/2 34/34/34 35/35/35
f 21/21/21 19/19/19 27/27/27
f 27/27/27 19/19/19 36/36/36
f 19/19/19 37/37/37 36/36/36
f 19/19/19 17/17/17 37/37/37
f 37/37/37 17/17/17 38/38/38
f 17/17/17 39/39/39 38/38/38
f 17/17/17 15/15/15 39/39/39
f 39/39/39 15/15/15 40/40/40
f 15/15/15 41/41/41 40/40/40
f 15/15/15 13/13/13 41/41/41
f 41/41/41 13/13/13 42/42/42
f 13/13/13 43/43/43 42/42/42
f 13/13/13 11/11/11 43/43/43
f 43/43/43 11/11/11 44/44/44
f 11/11/11 45/45/45 44/44/44
f 11/11/11 9/9/9 45/45/45
f 45/45/45 9/9/9 46/46/46
f 9/9/9 47/47/47 46/46/46
f 9/9/9 7/7/7 47/47/47
f 47/47/47 7/7/7 48/48/48
f 7/7/7 49/49/49 48/48/48
f 7/7/7 5/5/5 49/49/49
f 49/49/49 5/5/5 50/50/50
f 5/5/5 35/35/35 50/50/50
f 22/23/23 31/31/31 21/21/21
f 21/21/21 31/31/31 20/20/20
f 30/30/30 28/29/29 51/51/51
f 1/2/2 35/35/35 5/5/5
