# Blender 4.1.1
# www.blender.org
mtllib FP_jog_island.md.050.mtl
o FP_jog_island.mo.049
v 56.358990 0.692945 -91.375481
v 55.845249 1.672551 -91.496124
v 54.854610 0.857688 -89.382469
v 55.530220 1.699992 -92.895294
v 55.938457 0.750402 -93.133430
v 53.127510 1.633962 -95.328217
v 53.299568 0.827174 -95.673164
v 48.222900 1.531937 -95.558624
v 47.957569 0.608870 -96.039268
v 95.043541 2.968895 -44.969528
v 94.716545 1.276503 -44.363819
v 98.675011 2.973334 -43.576660
v 90.089951 2.336167 -52.541618
v 90.474495 3.873536 -52.943188
v 85.254570 3.347762 -55.869827
v 85.426941 4.817709 -56.394287
v 79.624290 5.686090 -53.806229
v 101.815094 3.963451 -46.704258
v 103.217796 2.110918 -51.667809
v 102.588501 4.410876 -51.632809
v 102.494797 2.227700 -46.143658
v 98.787109 0.907974 -42.733318
v 53.800549 0.696855 -87.505348
v 50.508820 1.669294 -86.811401
v 50.585529 0.807716 -86.333450
v 53.444977 1.948821 -87.934219
v 54.494450 1.811022 -89.615166
v 63.630127 1.383704 -71.233070
v 64.410446 3.673870 -71.106155
v 64.594505 1.376519 -72.408806
v 64.082130 3.630911 -68.687157
v 63.279228 0.934260 -68.428261
v 64.949089 1.355946 -65.741119
v 72.081482 2.900018 -64.098061
v 72.462509 4.734730 -64.439171
v 70.168335 4.629387 -66.374886
v 72.133415 5.734022 -58.659988
v 71.618675 3.378499 -58.416218
v 73.975136 3.446146 -54.963520
v 79.438347 3.725089 -53.275558
v 74.359940 6.234183 -55.424957
v 44.650078 0.581577 -91.271286
v 44.779140 1.435821 -90.839005
v 46.232590 0.779101 -92.125008
v 41.775009 1.147042 -90.624504
v 41.574570 0.398704 -90.919914
v 41.244770 0.337424 -90.602211
v 40.943211 0.587458 -89.049706
v 41.040718 1.046632 -89.707985
v 40.489338 0.307394 -89.822861
v 41.559860 0.923141 -88.472610
v 41.189789 0.442414 -88.287079
v 44.095577 0.218868 -86.581764
v 46.788559 1.589689 -94.259140
v 46.395508 0.662495 -94.467331
v 46.548687 1.563096 -91.882561
v 47.305958 0.406258 -87.029076
v 44.216431 0.957461 -87.088898
v 46.064510 0.353894 -86.840324
v 47.288517 0.853126 -87.459511
v 87.007721 4.474852 -80.018921
v 79.586121 5.866158 -83.914368
v 86.874847 6.546946 -79.501747
v 79.535645 3.374361 -84.534119
v 72.062950 5.245814 -80.426842
v 71.865471 3.079098 -81.039719
v 71.865471 3.079098 -81.039719
v 67.902588 4.743441 -74.349228
v 72.062950 5.245814 -80.426842
v 67.767830 3.960883 -74.508835
v 65.633057 3.725708 -72.944290
v 65.361328 2.772460 -73.165169
v 65.410957 3.960325 -66.340660
v 69.760216 2.253348 -65.851791
v 47.957569 0.608870 -96.039268
v 48.222900 1.531937 -95.558624
v 48.569557 0.604996 -86.693840
v 97.769707 5.924798 -63.937557
v 98.387680 4.278846 -63.939407
v 93.535240 7.082753 -72.784088
v 93.661674 4.682301 -73.367401
vn 0.7692 0.4110 0.4893
vn 0.8645 0.4723 0.1717
vn 0.8656 0.4692 0.1752
vn 0.7847 0.4472 -0.4293
vn 0.7862 0.4438 -0.4300
vn 0.3560 0.4323 -0.8285
vn 0.3585 0.4343 -0.8264
vn 0.0419 0.4469 -0.8936
vn 0.0426 0.4518 -0.8911
vn 0.1705 0.3984 0.9012
vn -0.6114 0.3686 0.7003
vn -0.5632 0.3671 0.7403
vn -0.6761 0.3400 0.6537
vn -0.6457 0.3410 0.6832
vn -0.0464 0.3335 0.9416
vn -0.0090 0.3370 0.9415
vn 0.0627 0.2473 0.9669
vn 0.9597 0.2640 -0.0963
vn 0.8151 0.4225 0.3963
vn 0.9560 0.2851 -0.0695
vn 0.7620 0.4340 0.4806
vn 0.0980 0.3808 0.9195
vn 0.0599 0.4883 0.8706
vn 0.5694 0.4167 0.7086
vn 0.0637 0.4986 0.8645
vn 0.5743 0.4102 0.7084
vn 0.7727 0.4102 0.4844
vn -0.7985 0.2472 -0.5488
vn -0.8888 0.3057 -0.3416
vn -0.8870 0.3034 -0.3480
vn -0.9341 0.3003 0.1928
vn -0.9303 0.2976 0.2146
vn -0.5575 0.2901 0.7778
vn -0.3810 0.2602 0.8872
vn -0.8893 0.2579 0.3776
vn -0.9013 0.2526 0.3520
vn -0.9398 0.2233 0.2585
vn -0.9440 0.2307 0.2360
vn -0.5880 0.2257 0.7767
vn 0.0372 0.2577 0.9655
vn -0.5759 0.2102 0.7900
vn -0.7604 0.4558 -0.4626
vn -0.2861 0.4610 -0.8400
vn -0.3026 0.4629 -0.8332
vn -0.4175 0.4508 -0.7890
vn -0.4476 0.4295 -0.7843
vn -0.6737 0.4706 -0.5698
vn -0.7600 0.6041 -0.2398
vn -0.7149 0.6197 0.3238
vn -0.7810 0.6062 -0.1499
vn -0.5340 0.6268 0.5675
vn -0.5495 0.6333 0.5449
vn -0.1659 0.5771 0.7996
vn -0.8093 0.4324 -0.3976
vn -0.8090 0.4447 -0.3844
vn -0.7615 0.4510 -0.4655
vn 0.0904 0.6031 0.7925
vn -0.0992 0.6777 0.7286
vn -0.1564 0.5880 0.7936
vn -0.1030 0.6880 0.7184
vn 0.6016 0.2286 -0.7654
vn 0.5800 0.2285 -0.7819
vn 0.0653 0.2429 -0.9679
vn -0.0038 0.2471 -0.9690
vn -0.4067 0.2828 -0.8687
vn -0.4102 0.2724 -0.8704
vn -0.8124 0.2261 -0.5375
vn -0.8119 0.2278 -0.5376
vn -0.7220 0.2532 -0.6439
vn -0.6979 0.2638 -0.6659
vn -0.6797 0.3376 -0.6512
vn -0.7603 0.2939 -0.5793
vn -0.4594 0.2742 0.8448
vn -0.2881 0.2545 0.9232
vn -0.5693 0.5025 -0.6507
vn -0.5921 0.4754 -0.6507
vn -0.2789 0.5917 0.7564
vn 0.8814 0.3266 -0.3413
vn 0.8870 0.3203 -0.3326
vn 0.8060 0.1891 -0.5608
vn 0.7875 0.1852 -0.5878
vt 8.638672 1.994141
vt 8.785157 1.994141
vt 8.779297 1.005859
vt 8.879883 1.005859
vt 8.903321 1.994141
vt 9.082032 1.005859
vt 9.099609 1.994141
vt 9.411133 1.005859
vt 9.451172 1.994141
vt 3.549805 1.005859
vt 3.305664 1.005859
vt 3.283203 1.994141
vt 3.004883 1.994141
vt 3.011719 1.005859
vt 2.730469 1.994141
vt 2.724609 1.005859
vt 2.527344 1.005859
vt 4.070312 1.005859
vt 3.770508 1.005859
vt 4.072266 1.994141
vt 3.752930 1.994141
vt 3.511719 1.994141
vt 8.319336 1.994141
vt 8.477540 1.994141
vt 8.309571 1.005859
vt 8.498047 1.005859
vt 8.644532 1.005859
vt 1.168945 1.994141
vt 1.252930 1.994141
vt 1.246094 1.005859
vt 1.386719 1.005859
vt 1.393555 1.994141
vt 1.571289 1.994141
vt 1.708008 1.005859
vt 1.856445 1.994141
vt 1.865234 1.005859
vt 2.050781 1.005859
vt 2.033203 1.994141
vt 2.233398 1.994141
vt 2.532227 1.994141
vt 2.239258 1.005859
vt 7.201172 1.994141
vt 7.323242 1.994141
vt 7.330078 1.005859
vt 7.459961 1.005859
vt 7.456055 1.994141
vt 7.488281 1.994141
vt 7.564453 1.994141
vt 7.620117 1.994141
vt 7.542969 1.005859
vt 7.665039 1.005859
vt 7.678711 1.994141
vt 7.893555 1.994141
vt 7.053711 1.994141
vt 7.037109 1.005859
vt 7.190430 1.005859
vt 8.019532 1.994141
vt 8.098633 1.994141
vt 7.897461 1.005859
vt 8.093750 1.005859
vt 5.350586 1.005859
vt 5.378906 1.994141
vt 5.655273 1.005859
vt 5.674805 1.994141
vt 6.091797 1.994141
vt 6.065430 1.005859
vt 0.593750 1.005859
vt 0.561523 1.994141
vt 0.790039 1.005859
vt 0.779297 1.994141
vt 1.029297 1.005859
vt 1.017578 1.994141
vt 1.540039 1.005859
vt 1.702148 1.994141
vt 6.909180 1.005859
vt 6.909180 1.994141
vt 8.184571 1.994141
vt 4.383789 1.005859
vt 4.394531 1.994141
vt 4.959961 1.005859
vt 4.993164 1.994141
s 1
usemtl grad_64.001
f 3/1/1 1/2/2 2/3/3
f 2/3/3 1/2/2 4/4/4
f 1/2/2 5/5/5 4/4/4
f 4/4/4 5/5/5 6/6/6
f 5/5/5 7/7/7 6/6/6
f 6/6/6 7/7/7 8/8/8
f 7/7/7 9/9/9 8/8/8
f 12/10/10 10/11/11 11/12/12
f 11/12/12 10/11/11 13/13/13
f 10/11/11 14/14/14 13/13/13
f 13/13/13 14/14/14 15/15/15
f 14/14/14 16/16/16 15/15/15
f 15/15/15 16/16/16 17/17/17
f 20/18/18 18/19/19 19/20/20
f 19/20/20 18/19/19 21/21/21
f 18/19/19 12/10/10 21/21/21
f 21/21/21 12/10/10 22/22/22
f 12/10/10 11/12/12 22/22/22
f 25/23/23 23/24/24 24/25/25
f 24/25/25 23/24/24 26/26/26
f 23/24/24 3/1/1 26/26/26
f 26/26/26 3/1/1 27/27/27
f 3/1/1 2/3/3 27/27/27
f 30/28/28 28/29/29 29/30/30
f 29/30/30 28/29/29 31/31/31
f 28/29/29 32/32/32 31/31/31
f 31/31/31 32/32/32 33/33/33
f 36/34/34 34/35/35 35/36/36
f 35/36/36 34/35/35 37/37/37
f 34/35/35 38/38/38 37/37/37
f 37/37/37 38/38/38 39/39/39
f 15/15/15 17/17/17 40/40/40
f 40/40/40 17/17/17 39/39/39
f 17/17/17 41/41/41 39/39/39
f 39/39/39 41/41/41 37/37/37
f 44/42/42 42/43/43 43/44/44
f 43/44/44 42/43/43 45/45/45
f 42/43/43 46/46/46 45/45/45
f 45/45/45 46/46/46 47/47/47
f 50/48/48 48/49/49 49/50/50
f 49/50/50 48/49/49 51/51/51
f 48/49/49 52/52/52 51/51/51
f 51/51/51 52/52/52 53/53/53
f 55/54/54 44/42/42 54/55/55
f 54/55/55 44/42/42 56/56/56
f 44/42/42 43/44/44 56/56/56
f 59/57/57 57/58/58 58/59/59
f 58/59/59 57/58/58 60/60/60
f 57/58/58 24/25/25 60/60/60
f 63/61/61 61/62/62 62/63/63
f 62/63/63 61/62/62 64/64/64
f 66/65/65 65/66/66 64/64/64
f 64/64/64 65/66/66 62/63/63
f 69/67/67 67/68/68 68/69/69
f 68/69/69 67/68/68 70/70/70
f 68/69/69 70/70/70 71/71/71
f 71/71/71 70/70/70 72/72/72
f 71/71/71 72/72/72 29/30/30
f 29/30/30 72/72/72 30/28/28
f 31/31/31 33/33/33 73/73/73
f 73/73/73 33/33/33 74/74/74
f 73/73/73 74/74/74 36/34/34
f 36/34/34 74/74/74 34/35/35
f 76/75/75 75/76/76 54/55/55
f 54/55/55 75/76/76 55/54/54
f 45/45/45 47/47/47 49/50/50
f 49/50/50 47/47/47 50/48/48
f 51/51/51 53/53/53 58/59/59
f 58/59/59 53/53/53 59/57/57
f 57/58/58 77/77/77 24/25/25
f 24/25/25 77/77/77 25/23/23
f 20/18/18 19/20/20 78/78/78
f 78/78/78 19/20/20 79/79/79
f 78/78/78 79/79/79 80/80/80
f 80/80/80 79/79/79 81/81/81
f 80/80/80 81/81/81 63/61/61
f 63/61/61 81/81/81 61/62/62
