# Blender 4.1.1
# www.blender.org
mtllib FP_jog_island.md.006.mtl
o FP_jog_island.mo.006
v 27.714989 0.474049 32.367699
v 27.707489 0.489049 32.244648
v 27.714989 0.474049 32.244648
v 27.707489 0.489049 32.367699
v 27.722488 0.489049 32.244648
v 27.722488 0.489049 32.367699
v 27.714989 0.474049 32.244648
v 27.714989 0.474049 32.367699
v 27.714989 0.332237 32.367699
v 27.707489 0.347237 32.244648
v 27.714989 0.332237 32.244648
v 27.707489 0.347237 32.367699
v 27.722488 0.347237 32.244648
v 27.722488 0.347237 32.367699
v 27.714989 0.332237 32.244648
v 27.714989 0.332237 32.367699
v 27.702620 0.312124 32.488258
v 27.702620 0.508888 32.329819
v 27.702620 0.312124 32.329819
v 27.702620 0.508889 32.488258
v 27.724720 0.508888 32.488258
v 27.724720 0.312124 32.329819
v 27.724720 0.508888 32.329819
v 27.724720 0.312124 32.488258
v 24.076799 0.487128 31.990200
v 24.271002 0.146069 32.184399
v 24.271002 0.487128 32.184399
v 24.076799 0.146069 31.990200
v 27.702620 0.458594 32.329819
v 27.724720 0.261829 32.329819
v 27.702620 0.261829 32.329819
v 27.724720 0.458594 32.329819
v 27.702620 0.458594 32.488258
v 27.724720 0.458594 32.488258
v 27.702620 0.261829 32.488258
v 27.724720 0.261829 32.488258
v 27.710629 1.566973 29.349998
v 26.597139 1.962145 29.349998
v 27.710529 1.962145 29.349998
v 26.597229 1.565331 29.349998
v 25.483749 1.962146 29.349998
v 25.483829 1.563689 29.349998
v 27.404219 1.962143 32.000000
v 24.370459 1.562054 32.000000
v 27.404039 1.565722 32.000000
v 24.370499 1.962008 32.000000
v 24.300001 1.961930 31.859610
v 24.300001 1.561939 29.434420
v 24.300001 1.561902 31.860270
v 24.300001 1.961905 29.434410
v 24.370369 1.962146 29.349998
v 24.370430 1.562046 29.349998
v 27.800001 1.961886 29.434479
v 27.800001 1.567195 31.261539
v 27.800001 1.567166 29.434259
v 27.800001 1.961540 31.261610
v 24.173038 0.258447 29.285978
v 24.083399 0.101035 29.375620
v 24.083399 0.258447 29.375620
v 24.173038 0.101035 29.285978
v 24.189489 0.554230 29.268620
v 24.045839 0.301946 29.412279
v 24.045839 0.554229 29.412279
v 24.189489 0.301946 29.268620
v 24.343250 0.393814 29.116219
v 24.199600 0.141530 29.259869
v 24.199600 0.393813 29.259869
v 24.343250 0.141530 29.116219
v 28.128090 0.503246 29.347239
v 27.934740 0.162188 29.152199
v 27.934740 0.503246 29.152199
v 28.128090 0.162188 29.347239
v 28.135099 1.750213 31.862589
v 28.127449 1.531467 31.872108
v 28.219980 1.618980 31.775148
v 28.070309 1.622171 31.929338
v 28.005508 1.810666 31.996090
v 28.005508 1.658098 31.996090
v 27.875919 1.750213 32.129589
v 27.940710 1.622171 32.062828
v 27.791039 1.618980 32.217018
v 27.885210 1.531467 32.121658
v 27.858549 0.422253 32.292099
v 27.740170 0.520424 32.176308
v 27.740170 0.392141 32.176308
v 27.858549 0.454881 32.292099
v 28.294430 0.422253 31.846430
v 28.294430 0.454881 31.846430
v 28.176050 0.392141 31.730639
v 28.176050 0.520424 31.730639
v 27.723309 0.529757 32.159821
v 27.841690 0.431587 32.275608
v 27.723309 0.401475 32.159821
v 27.841690 0.464215 32.275608
v 28.277578 0.464215 31.829939
v 28.277578 0.431587 31.829939
v 28.159199 0.401475 31.714149
v 28.159199 0.529757 31.714149
vn -0.8944 -0.4472 -0.0000
vn -0.8507 0.5257 -0.0000
vn -0.8506 0.5257 -0.0000
vn 0.8506 0.5257 -0.0000
vn 0.8944 -0.4472 -0.0000
vn -1.0000 -0.0000 -0.0000
vn 1.0000 -0.0000 -0.0000
vn -0.7071 -0.0000 0.7071
vn -0.0000 -0.7071 -0.7071
vn -0.0000 0.7071 -0.7071
vn -0.0000 0.7071 0.7071
vn -0.0000 -0.7071 0.7071
vn -0.0000 -0.0000 -1.0000
vn -0.0000 -0.0000 1.0000
vn -0.7071 -0.0000 -0.7071
vn 0.7102 -0.0000 -0.7040
vn 0.7212 0.0049 0.6927
vn 0.7175 0.0027 0.6966
vn 0.7171 0.0053 0.6970
vn 0.7170 0.0053 0.6970
vn 0.7148 0.0028 0.6993
vn 0.7175 -0.0000 0.6965
vn 0.7149 0.0028 0.6993
vn 0.7175 -0.0000 0.6966
vn 0.7175 -0.0002 0.6966
vn 0.7175 0.0029 0.6966
vn 0.7176 -0.0000 0.6965
vn 0.7175 0.0054 0.6966
vn 0.7174 0.0128 0.6966
vn -0.6993 -0.0000 0.7149
vn -0.0430 -0.0000 0.9991
vn -0.2137 0.7403 0.6375
vn 0.0537 0.4498 0.8915
vn 0.9979 -0.0000 -0.0651
vn 0.8925 0.4498 0.0339
vn 0.6992 -0.0000 -0.7149
vn 0.6326 0.7403 -0.2277
vn 0.2136 -0.7403 -0.6375
vn 0.0430 -0.0000 -0.9991
vn -0.0537 -0.4498 -0.8915
vn -0.8925 -0.4498 -0.0339
vn -0.9979 -0.0000 0.0651
vn -0.6992 -0.0000 0.7149
vn -0.6326 -0.7403 0.2277
vt -0.003296 -0.028870
vt -0.009583 -0.028870
vt -0.003296 -0.083069
vt -0.009583 -0.083069
vt -0.003296 -0.137268
vt -0.009583 -0.137268
vt -0.010010 -0.191467
vt -0.002869 -0.191467
vt 0.774414 0.718018
vt 0.999756 0.718018
vt 0.774414 0.999512
vt 0.999756 0.999512
vt 0.997437 0.716003
vt 0.750244 0.716003
vt 0.997437 0.400879
vt 0.750244 0.400879
vt 0.780457 0.755066
vt 0.780457 0.855042
vt 0.781189 0.755066
vt 0.781189 0.855042
vt 0.780457 0.955078
vt 0.781189 0.955078
vt 0.008789 -0.014893
vt 0.008545 -0.123901
vt 0.240234 -0.015503
vt 0.239685 -0.124329
vt 0.471619 -0.016052
vt 0.470764 -0.124756
vt 0.626099 -0.125671
vt 0.627319 -0.017151
vt 0.009521 -0.124390
vt 0.009766 -0.015381
vt 0.772583 -0.282654
vt 0.773804 -0.140869
vt 0.003601 -0.281372
vt 0.003845 -0.139099
vt 0.701904 -0.125183
vt 0.703064 -0.016663
vt 0.495972 0.715332
vt 0.252869 0.715332
vt 0.495972 0.402466
vt 0.252869 0.402466
vt 0.743652 0.715454
vt 0.498657 0.715454
vt 0.743652 0.400940
vt 0.498657 0.400940
vt 0.250854 0.715637
vt 0.000671 0.715637
vt 0.250854 0.401428
vt 0.000671 0.401428
vt 0.251160 0.399780
vt 0.001770 0.399780
vt 0.251160 0.084229
vt 0.001770 0.084229
vt 0.397888 0.402527
vt 0.295105 0.327759
vt 0.457397 0.320312
vt 0.379761 0.263184
vt 0.253296 0.201111
vt 0.360962 0.201050
vt 0.292603 0.074402
vt 0.378479 0.137695
vt 0.395996 -0.002258
vt 0.456116 0.079956
vt 0.479675 0.398560
vt 0.479675 0.005859
vt 0.993042 0.005859
vt 0.993042 0.398560
s 1
usemtl collect_256
f 3/1/1 1/2/1 2/3/2
f 2/3/2 1/2/1 4/4/3
f 2/3/2 4/4/3 5/5/4
f 5/5/4 4/4/3 6/6/4
f 8/7/5 7/8/5 6/6/4
f 6/6/4 7/8/5 5/5/4
f 11/1/1 9/2/1 10/3/2
f 10/3/2 9/2/1 12/4/3
f 10/3/2 12/4/3 13/5/4
f 13/5/4 12/4/3 14/6/4
f 16/7/5 15/8/5 14/6/4
f 14/6/4 15/8/5 13/5/4
s 0
f 19/9/6 17/10/6 18/11/6
f 18/11/6 17/10/6 20/12/6
f 23/12/7 21/11/7 22/10/7
f 22/10/7 21/11/7 24/9/7
f 27/13/8 25/14/8 26/15/8
f 26/15/8 25/14/8 28/16/8
s 1
f 31/17/9 29/18/10 30/19/9
f 30/19/9 29/18/10 32/20/10
f 29/18/10 33/21/11 32/20/10
f 32/20/10 33/21/11 34/22/11
f 33/21/11 35/18/12 34/22/11
f 34/22/11 35/18/12 36/20/12
f 35/18/12 31/17/9 36/20/12
f 36/20/12 31/17/9 30/19/9
s 0
f 39/23/13 37/24/13 38/25/13
f 38/25/13 37/24/13 40/26/13
f 38/25/13 40/26/13 41/27/13
f 41/27/13 40/26/13 42/28/13
f 45/29/14 43/30/14 44/31/14
f 44/31/14 43/30/14 46/32/14
f 49/33/6 47/34/6 48/35/6
f 48/35/6 47/34/6 50/36/6
f 52/37/13 51/38/13 42/28/13
f 42/28/13 51/38/13 41/27/13
f 55/33/7 53/34/7 54/35/7
f 54/35/7 53/34/7 56/36/7
f 59/39/15 57/40/15 58/41/15
f 58/41/15 57/40/15 60/42/15
f 63/43/15 61/44/15 62/45/15
f 62/45/15 61/44/15 64/46/15
f 67/47/15 65/48/15 66/49/15
f 66/49/15 65/48/15 68/50/15
f 71/51/16 69/52/16 70/53/16
f 70/53/16 69/52/16 72/54/16
s 1
f 75/55/17 73/56/18 74/57/19
s 0
f 74/57/20 73/56/18 76/58/21
f 73/56/18 77/59/22 76/58/23
s 1
f 76/58/23 77/59/24 78/60/24
s 0
f 77/59/22 79/61/22 78/60/22
f 78/60/25 79/61/25 80/62/26
s 1
f 79/61/27 81/63/28 80/62/26
f 80/62/26 81/63/28 82/64/29
f 85/65/30 83/66/31 84/65/32
f 84/65/32 83/66/31 86/66/33
f 83/66/31 87/67/34 86/66/33
f 86/66/33 87/67/34 88/67/35
f 87/67/34 89/68/36 88/67/35
f 88/67/35 89/68/36 90/68/37
f 86/66/33 88/67/35 84/65/32
f 84/65/32 88/67/35 90/68/37
f 93/65/36 91/65/38 92/66/39
f 92/66/39 91/65/38 94/66/40
f 91/65/38 95/67/41 94/66/40
f 94/66/40 95/67/41 96/67/42
f 95/67/41 97/68/43 96/67/42
f 97/68/43 95/67/41 98/68/44
f 98/68/44 95/67/41 91/65/38
f 96/67/42 92/66/39 94/66/40
