# Blender 4.1.1
# www.blender.org
mtllib FP_jog_island.md.042.mtl
o FP_jog_island.mo.042
v -7.214704 3.773045 27.025030
v -7.290350 3.884135 26.942389
v -7.297255 3.773045 26.949989
v -7.207800 3.884135 27.017439
v 37.667191 0.278252 12.285480
v 37.582138 0.376399 12.236380
v 37.582169 0.278224 12.236390
v 37.667160 0.376427 12.285470
v -36.507378 5.216781 26.934389
v -36.598141 5.376806 27.044828
v -36.586201 5.226727 27.063650
v -36.519318 5.366860 26.915560
v 20.569269 0.311732 20.061880
v 20.569269 0.435492 19.938120
v 20.569269 0.311732 19.938120
v 20.569269 0.435492 20.061880
v -14.011260 3.756473 21.022850
v -14.132299 3.901563 21.059780
v -14.141979 3.765771 21.059719
v -14.001579 3.892265 21.022909
v 10.586900 1.664808 25.789099
v 10.586900 1.788568 25.665339
v 10.586900 1.664808 25.665339
v 10.586900 1.788568 25.789099
v 4.987342 1.700579 26.988039
v 4.982404 1.798975 26.889769
v 4.982404 1.700579 26.889769
v 4.987342 1.798975 26.988039
v -3.108261 3.452904 36.886108
v -3.178259 3.522904 36.885460
v -3.178259 3.452904 36.885460
v -3.108261 3.522904 36.886108
v -50.213558 6.521820 40.769928
v -50.213558 6.773821 40.517929
v -50.213558 6.521820 40.517929
v -50.213558 6.773821 40.769928
v 3.903153 0.263700 -0.096679
v 3.403914 0.844177 0.170064
v 3.451105 0.279258 0.255577
v 3.855963 0.828619 -0.182188
v 13.853009 1.011993 21.417860
v 13.853009 1.111993 21.317860
v 13.853009 1.011993 21.317860
v 13.853009 1.111993 21.417860
v 26.963428 0.932695 29.095770
v 26.863430 1.032695 29.095770
v 26.863430 0.932695 29.095770
v 26.963428 1.032695 29.095770
v 14.279429 2.844939 -10.658660
v 14.348720 2.942939 -10.727960
v 14.348720 2.844939 -10.727960
v 14.279429 2.942939 -10.658660
v -33.353310 3.303645 -43.251480
v -33.387608 3.403645 -43.345409
v -33.387608 3.303645 -43.345409
v -33.353310 3.403645 -43.251480
v -9.562229 3.325105 -33.302837
v -9.464168 3.425105 -33.283230
v -9.464168 3.325105 -33.283230
v -9.562229 3.425105 -33.302837
v -10.284140 7.126908 51.948418
v -10.370709 7.226908 51.898357
v -10.370709 7.126908 51.898357
v -10.284140 7.226908 51.948418
v -17.957640 8.520348 30.983068
v -17.840549 8.639655 30.896929
v -17.827450 8.519256 30.944180
v -17.970739 8.640746 30.935820
v 30.318930 0.203400 22.320000
v 30.197119 0.318400 22.320000
v 30.197119 0.203400 22.320000
v 30.318930 0.318400 22.320000
vn -0.6698 0.0921 0.7368
vn -0.6698 0.0920 0.7368
vn -0.5000 -0.0000 0.8660
vn -0.5000 -0.0001 0.8660
vn 0.8508 0.1315 0.5088
vn 0.8509 0.1315 0.5087
vn -1.0000 -0.0000 -0.0000
vn 0.2701 -0.0197 0.9626
vn -0.9987 -0.0000 0.0502
vn -0.0093 -0.0000 1.0000
vn 0.6095 0.1682 0.7747
vn -0.0000 -0.0000 1.0000
vn -0.7072 -0.0000 -0.7071
vn -0.7071 -0.0000 -0.7071
vn -0.9393 -0.0000 0.3430
vn 0.1961 -0.0000 -0.9806
vn -0.5006 -0.0000 0.8657
vn -0.2680 -0.3771 -0.8866
vt 0.000000 0.000000
vt 0.500000 0.000000
vt 0.000000 0.500000
vt 0.500000 0.500000
vt 1.000000 0.500000
vt 0.500000 1.000000
vt 1.000000 1.000000
vt 0.000000 1.000000
vt 1.000000 0.000000
vt 0.510529 0.001312
vt 0.989471 0.001312
vt 0.510529 0.490997
vt 0.989471 0.490997
s 0
usemtl jog_dot_chara
f 3/1/1 1/2/1 2/3/1
f 2/3/2 1/2/2 4/4/2
f 7/2/3 5/1/3 6/4/3
f 6/4/4 5/1/4 8/3/4
f 11/1/5 9/2/5 10/3/5
f 10/3/6 9/2/6 12/4/6
f 15/4/7 13/5/7 14/6/7
f 14/6/7 13/5/7 16/7/7
f 19/4/8 17/5/8 18/6/8
f 18/6/8 17/5/8 20/7/8
f 23/5/7 21/4/7 22/7/7
f 22/7/7 21/4/7 24/6/7
f 27/3/9 25/4/9 26/8/9
f 26/8/9 25/4/9 28/6/9
f 31/4/10 29/3/10 30/6/10
f 30/6/10 29/3/10 32/8/10
f 35/3/7 33/4/7 34/8/7
f 34/8/7 33/4/7 36/6/7
f 39/3/11 37/4/11 38/8/11
f 38/8/11 37/4/11 40/6/11
f 43/3/7 41/4/7 42/8/7
f 42/8/7 41/4/7 44/6/7
f 47/4/12 45/3/12 46/6/12
f 46/6/12 45/3/12 48/8/12
f 51/4/13 49/3/13 50/6/13
f 50/6/14 49/3/14 52/8/14
f 55/3/15 53/4/15 54/8/15
f 54/8/15 53/4/15 56/6/15
f 59/3/16 57/4/16 58/8/16
f 58/8/16 57/4/16 60/6/16
f 63/4/17 61/3/17 62/6/17
f 62/6/17 61/3/17 64/8/17
f 67/2/18 65/9/18 66/4/18
f 66/4/18 65/9/18 68/5/18
f 71/10/12 69/11/12 70/12/12
f 70/12/12 69/11/12 72/13/12
