# Blender 4.1.1
# www.blender.org
mtllib FP_jog_island.md.015.mtl
o FP_jog_island.mo.015
v -31.993858 13.197980 2.822651
v -31.794729 13.027730 2.823076
v -31.794729 13.197980 2.823076
v -31.993858 13.027730 2.822651
v -33.223209 13.197980 2.823369
v -33.024078 13.027730 2.823372
v -33.024078 13.197980 2.823372
v -33.223209 13.027730 2.823369
v -33.151051 14.443749 2.861597
v -33.077888 14.301709 2.861326
v -33.077888 14.443749 2.861499
v -33.151051 14.301709 2.861597
v -31.926659 14.445530 2.859114
v -31.853498 14.303490 2.858975
v -31.853489 14.445530 2.858867
v -31.926659 14.303490 2.859114
v -33.301357 14.443749 2.637307
v -33.301411 14.301709 2.710476
v -33.301159 14.443749 2.710479
v -33.301357 14.301709 2.637307
v -31.700819 14.301709 2.708162
v -31.700569 14.443749 2.634993
v -31.700699 14.443749 2.708163
v -31.700569 14.301709 2.634993
v -32.121349 13.950430 4.969998
v -32.048180 13.808390 4.969998
v -32.048180 13.950430 4.969998
v -32.121349 13.808390 4.969998
v -32.977657 13.948649 4.969999
v -32.904488 13.806610 4.969999
v -32.904488 13.948649 4.969999
v -32.977657 13.806610 4.969999
v -34.337368 14.904039 -0.576721
v -34.337521 14.658400 -0.453169
v -34.337521 14.904039 -0.453169
v -34.337368 14.658400 -0.576721
v -31.111938 14.264270 -1.272588
v -31.235418 14.018670 -1.272693
v -31.235418 14.264270 -1.272693
v -31.111938 14.018670 -1.272588
v -33.783890 14.248779 -1.260024
v -33.907341 14.003190 -1.258970
v -33.907341 14.248779 -1.258970
v -33.783890 14.003190 -1.260024
v -34.155277 14.904019 0.494368
v -34.031837 14.658420 0.492566
v -34.031837 14.904019 0.492566
v -34.155277 14.658420 0.494368
v -34.126389 14.237700 0.494221
v -34.002968 13.992100 0.491880
v -34.002968 14.237700 0.491880
v -34.126389 13.992100 0.494221
v -33.154278 14.237700 0.500076
v -33.030807 13.992100 0.499321
v -33.030807 14.237700 0.499321
v -33.154278 13.992100 0.500076
v -33.165249 14.904019 0.500300
v -33.041798 14.658420 0.499582
v -33.041798 14.904019 0.499582
v -33.165249 14.658420 0.500300
v -32.123768 14.904019 0.494614
v -32.000259 14.658420 0.495898
v -32.000259 14.904019 0.495898
v -32.123768 14.658420 0.494614
v -32.097080 14.237700 0.495779
v -31.973610 13.992100 0.495266
v -31.973610 14.237700 0.495266
v -32.097080 13.992100 0.495779
v -32.659470 13.443959 0.490322
v -32.378948 12.996810 0.489553
v -32.378948 13.443959 0.489553
v -32.659470 12.996810 0.490322
v -31.981390 15.587549 -1.018530
v -32.104790 15.341949 -1.015598
v -32.104790 15.587549 -1.015598
v -31.981390 15.341949 -1.018530
v -34.333858 14.904039 0.048101
v -34.333858 14.658400 0.171650
v -34.333858 14.904039 0.171650
v -34.333858 14.658400 0.048101
v -33.418961 14.364710 -1.387280
v -33.416637 14.170139 -1.289478
v -33.416637 14.364710 -1.289478
v -33.418961 14.170139 -1.387280
v -33.428051 14.364710 -1.638196
v -33.425728 14.170139 -1.540393
v -33.425728 14.364710 -1.540393
v -33.428051 14.170139 -1.638196
v -31.103849 14.904019 0.504827
v -30.980370 14.658420 0.504773
v -30.980370 14.904019 0.504773
v -31.103849 14.658420 0.504827
v -31.077160 14.237700 0.505615
v -30.953720 13.992100 0.504138
v -30.953720 14.237700 0.504138
v -31.077160 13.992100 0.505615
v -32.192970 14.170139 -1.569851
v -32.195290 14.364710 -1.667655
v -32.192970 14.364710 -1.569851
v -32.195290 14.170139 -1.667655
v -32.183128 14.170139 -1.319025
v -32.185448 14.364710 -1.416829
v -32.183128 14.364710 -1.319025
v -32.185448 14.170139 -1.416829
v -30.850149 14.658400 -0.720883
v -30.850229 14.904039 -0.844429
v -30.850149 14.904039 -0.720883
v -30.850229 14.658400 -0.844429
v -30.850069 14.017200 -0.717551
v -30.850149 14.262839 -0.841096
v -30.850069 14.262839 -0.717551
v -30.850149 14.017200 -0.841096
v -30.836390 14.017200 0.129506
v -30.836679 14.262839 0.005963
v -30.836390 14.262839 0.129506
v -30.836679 14.017200 0.005963
v -30.836470 14.658400 0.126173
v -30.836760 14.904039 0.002630
v -30.836470 14.904039 0.126173
v -30.836760 14.658400 0.002630
v -34.333790 14.262839 0.051433
v -34.333771 14.017200 0.174983
v -34.333771 14.262839 0.174983
v -34.333790 14.017200 0.051433
v -33.184940 15.643080 -0.664566
v -33.187870 15.888720 -0.788045
v -33.184940 15.888720 -0.664566
v -33.187870 15.643080 -0.788045
v -33.656311 15.888720 -0.776917
v -33.653370 15.643080 -0.653436
v -33.653370 15.888720 -0.653436
v -33.656311 15.643080 -0.776917
v -34.749329 15.174319 -1.237161
v -34.749310 14.932640 -1.151296
v -34.749310 15.174319 -1.151296
v -34.749329 14.932640 -1.237161
v -34.392719 14.932640 -1.540203
v -34.478588 15.174319 -1.540266
v -34.392719 15.174319 -1.540203
v -34.478588 14.932640 -1.540266
v -31.933310 15.646420 -1.582959
v -31.933300 15.404739 -1.497095
v -31.933300 15.646420 -1.497095
v -31.933310 15.404739 -1.582959
v -31.533588 15.404739 -1.867222
v -31.619450 15.646420 -1.867285
v -31.533588 15.646420 -1.867222
v -31.619450 15.404739 -1.867285
v -31.603409 15.646420 -1.192070
v -31.517529 15.404739 -1.191637
v -31.517529 15.646420 -1.191637
v -31.603409 15.404739 -1.192070
v -31.259560 15.404739 -1.490491
v -31.259550 15.646420 -1.576356
v -31.259560 15.646420 -1.490491
v -31.259550 15.404739 -1.576356
v -32.779739 16.597980 -0.362344
v -32.780041 16.356289 -0.276472
v -32.780041 16.597980 -0.276472
v -32.779739 16.356289 -0.362344
v -32.366688 16.356289 -0.643369
v -32.452538 16.597980 -0.643023
v -32.366688 16.597980 -0.643369
v -32.452538 16.356289 -0.643023
v -34.337288 14.262839 -0.573386
v -34.337440 14.017200 -0.449836
v -34.337440 14.262839 -0.449836
v -34.337288 14.017200 -0.573386
v -32.099049 16.356289 -0.270039
v -32.099041 16.597980 -0.355906
v -32.099049 16.597980 -0.270039
v -32.099041 16.356289 -0.355906
v -32.507618 16.597980 0.037786
v -32.421761 16.356289 0.037590
v -32.421761 16.597980 0.037590
v -32.507618 16.356289 0.037786
v -31.817150 16.410650 0.541331
v -31.817039 16.168970 0.608105
v -31.817039 16.410650 0.608105
v -31.817150 16.168970 0.541331
v -31.515709 16.410650 0.853687
v -31.429840 16.168970 0.853887
v -31.429840 16.410650 0.853887
v -31.515709 16.168970 0.853687
v -31.142679 16.163700 0.612683
v -31.142580 16.405380 0.545898
v -31.142679 16.405380 0.612683
v -31.142580 16.163700 0.545898
v -31.443640 16.168970 0.329746
v -31.529499 16.410650 0.329607
v -31.443640 16.410650 0.329746
v -31.529499 16.168970 0.329607
v -33.695747 15.873960 0.892666
v -33.609898 15.632270 0.892554
v -33.609898 15.873960 0.892554
v -33.695747 15.632270 0.892666
v -33.997078 15.873960 0.580352
v -33.997238 15.632270 0.647136
v -33.997238 15.873960 0.647136
v -33.997078 15.632270 0.580352
v -33.323418 15.632270 0.652273
v -33.323238 15.873960 0.585486
v -33.323418 15.873960 0.652273
v -33.323238 15.632270 0.585486
v -33.623737 15.632270 0.366489
v -33.709610 15.873960 0.366504
v -33.623737 15.873960 0.366489
v -33.709610 15.632270 0.366504
v -34.346100 14.262839 -1.147991
v -34.343170 14.017200 -1.024512
v -34.343170 14.262839 -1.024512
v -34.346100 14.017200 -1.147991
v -32.072559 15.304540 0.328483
v -31.949160 15.550130 0.325551
v -32.072559 15.550130 0.328483
v -31.949160 15.304540 0.325551
v -33.044579 14.363110 -1.867249
v -33.142281 14.168580 -1.862861
v -33.142281 14.363110 -1.862861
v -33.044579 14.168580 -1.867249
v -33.356857 15.888720 -0.967659
v -33.480328 15.643080 -0.964724
v -33.480328 15.888720 -0.964724
v -33.356857 15.643080 -0.967659
v -34.346100 14.904039 -1.147991
v -34.343170 14.658400 -1.024512
v -34.343170 14.904039 -1.024512
v -34.346100 14.658400 -1.147991
v -32.618820 14.904019 0.495359
v -32.495358 14.658420 0.494641
v -32.495358 14.904019 0.494641
v -32.618820 14.658420 0.495359
v -32.484379 13.992100 0.494386
v -32.607838 14.237700 0.495140
v -32.607838 13.992100 0.495140
v -32.484379 14.237700 0.494386
v -32.577408 14.368620 -1.911811
v -32.675259 14.174089 -1.913901
v -32.675259 14.368620 -1.913901
v -32.577408 14.174089 -1.911811
v -33.783890 14.904019 -1.260024
v -33.907341 14.658420 -1.258970
v -33.907341 14.904019 -1.258970
v -33.783890 14.658420 -1.260024
v -31.111938 14.904019 -1.272588
v -31.235418 14.658420 -1.272693
v -31.235418 14.904019 -1.272693
v -31.111938 14.658420 -1.272588
vn -0.0021 -0.0000 1.0000
vn -0.0000 -0.0000 1.0000
vn 0.0013 -0.0012 1.0000
vn 0.0021 -0.0008 1.0000
vn 0.0030 -0.0004 1.0000
vn 0.0029 -0.0004 1.0000
vn 0.0020 -0.0009 1.0000
vn 0.0037 -0.0000 1.0000
vn 0.0034 0.0008 1.0000
vn 0.0031 0.0006 1.0000
vn 0.0024 0.0003 1.0000
vn 0.0019 -0.0000 1.0000
vn 0.0029 0.0005 1.0000
vn -1.0000 0.0018 0.0027
vn -1.0000 0.0013 0.0018
vn -1.0000 0.0005 0.0003
vn -1.0000 0.0012 0.0017
vn -1.0000 -0.0000 -0.0007
vn 1.0000 -0.0008 0.0017
vn 1.0000 -0.0003 0.0028
vn 1.0000 -0.0007 0.0020
vn 1.0000 -0.0006 0.0022
vn 1.0000 -0.0002 0.0029
vn 1.0000 -0.0000 0.0034
vn -1.0000 -0.0000 -0.0013
vn -1.0000 -0.0000 -0.0012
vn 0.0009 -0.0000 -1.0000
vn -0.0085 -0.0000 -1.0000
vn 0.0146 -0.0000 0.9999
vn 0.0190 -0.0000 0.9998
vn 0.0061 -0.0000 1.0000
vn 0.0058 -0.0000 1.0000
vn -0.0104 -0.0000 0.9999
vn 0.0042 -0.0000 1.0000
vn 0.0027 -0.0000 1.0000
vn -0.0238 -0.0000 -0.9997
vn -1.0000 -0.0000 -0.0000
vn -0.9997 -0.0000 0.0238
vn -0.9997 -0.0000 0.0237
vn 0.0004 -0.0000 1.0000
vn 0.0120 -0.0000 0.9999
vn 0.9997 -0.0000 -0.0237
vn 1.0000 -0.0000 -0.0007
vn 1.0000 -0.0000 -0.0006
vn 1.0000 -0.0000 -0.0024
vn 1.0000 -0.0000 -0.0023
vn -1.0000 -0.0000 0.0001
vn -1.0000 -0.0000 0.0002
vn 0.9997 -0.0000 -0.0238
vn -1.0000 -0.0000 0.0003
vn 0.0007 -0.0000 -1.0000
vn -0.0050 -0.0000 1.0000
vn 1.0000 -0.0000 0.0001
vn -1.0000 -0.0000 -0.0035
vn -0.0040 -0.0000 -1.0000
vn 0.0023 -0.0000 1.0000
vn -1.0000 -0.0000 0.0017
vn -0.0023 -0.0000 1.0000
vn 1.0000 -0.0000 0.0015
vn 0.0016 -0.0000 -1.0000
vn 0.0013 -0.0000 1.0000
vn -1.0000 -0.0000 -0.0024
vn -1.0000 -0.0000 -0.0025
vn 1.0000 -0.0000 0.0024
vn 1.0000 -0.0000 0.0027
vn -0.0002 -0.0000 -1.0000
vn 0.0238 -0.0000 0.9997
vn -0.0449 -0.0000 -0.9990
vn 0.0214 -0.0000 -0.9998
vt 1.231323 3.510010
vt 0.995972 3.510010
vt 1.231323 3.019897
vt 0.995972 3.019897
vt 1.231323 3.509766
vt 0.997315 3.509766
vt 0.997315 3.019897
vt -0.650024 2.550049
vt -0.650024 2.973267
vt -0.956787 2.550049
vt -0.956787 2.973267
vt 0.722900 3.430298
vt 0.722900 3.976074
vt 0.390991 3.430298
vt 0.390991 3.976074
vt -0.300903 3.120728
vt -0.300903 3.298950
vt -0.611206 3.120728
vt -0.611206 3.298950
s 0
usemtl can_madoA
f 3/1/1 1/2/1 2/3/1
f 2/3/1 1/2/1 4/4/1
f 7/1/2 5/2/2 6/3/2
f 6/3/2 5/2/2 8/4/2
f 11/5/3 9/6/4 10/3/5
f 10/3/6 9/6/7 12/7/8
f 15/5/9 13/6/10 14/3/11
f 14/3/12 13/6/13 16/7/12
f 19/5/14 17/6/15 18/3/16
f 18/3/16 17/6/17 20/7/18
f 23/5/19 21/3/20 22/6/21
f 22/6/22 21/3/23 24/7/24
f 27/5/2 25/6/2 26/3/2
f 26/3/2 25/6/2 28/7/2
f 31/5/2 29/6/2 30/3/2
f 30/3/2 29/6/2 32/7/2
f 35/8/25 33/9/25 34/10/25
f 34/10/26 33/9/26 36/11/26
f 39/8/27 37/9/27 38/10/27
f 38/10/27 37/9/27 40/11/27
f 43/8/28 41/9/28 42/10/28
f 42/10/28 41/9/28 44/11/28
f 47/8/29 45/9/29 46/10/29
f 46/10/29 45/9/29 48/11/29
f 51/8/30 49/9/30 50/10/30
f 50/10/30 49/9/30 52/11/30
f 55/8/31 53/9/31 54/10/31
f 54/10/31 53/9/31 56/11/31
f 59/8/32 57/9/32 58/10/32
f 58/10/32 57/9/32 60/11/32
f 63/8/33 61/9/33 62/10/33
f 62/10/33 61/9/33 64/11/33
f 67/8/34 65/9/34 66/10/34
f 66/10/34 65/9/34 68/11/34
f 71/12/35 69/13/35 70/14/35
f 70/14/35 69/13/35 72/15/35
f 75/8/36 73/9/36 74/10/36
f 74/10/36 73/9/36 76/11/36
f 79/8/37 77/9/37 78/10/37
f 78/10/37 77/9/37 80/11/37
f 83/8/38 81/9/38 82/10/38
f 82/10/39 81/9/39 84/11/39
f 87/8/39 85/9/39 86/10/39
f 86/10/38 85/9/38 88/11/38
f 91/8/40 89/9/40 90/10/40
f 90/10/40 89/9/40 92/11/40
f 95/8/41 93/9/41 94/10/41
f 94/10/41 93/9/41 96/11/41
f 99/8/42 97/10/42 98/9/42
f 98/9/42 97/10/42 100/11/42
f 103/8/42 101/10/42 102/9/42
f 102/9/42 101/10/42 104/11/42
f 107/8/43 105/10/43 106/9/43
f 106/9/43 105/10/43 108/11/43
f 111/8/43 109/10/43 110/9/43
f 110/9/44 109/10/44 112/11/44
f 115/8/45 113/10/45 114/9/45
f 114/9/46 113/10/46 116/11/46
f 119/8/45 117/10/45 118/9/45
f 118/9/45 117/10/45 120/11/45
f 123/8/47 121/9/47 122/10/47
f 122/10/48 121/9/48 124/11/48
f 127/8/49 125/10/49 126/9/49
f 126/9/42 125/10/42 128/11/42
f 131/8/38 129/9/38 130/10/38
f 130/10/38 129/9/38 132/11/38
f 135/16/50 133/17/50 134/18/50
f 134/18/48 133/17/48 136/19/48
f 139/16/51 137/18/51 138/17/51
f 138/17/51 137/18/51 140/19/51
f 143/16/47 141/17/47 142/18/47
f 142/18/47 141/17/47 144/19/47
f 147/16/51 145/18/51 146/17/51
f 146/17/51 145/18/51 148/19/51
f 151/16/52 149/17/52 150/18/52
f 150/18/52 149/17/52 152/19/52
f 155/16/53 153/18/53 154/17/53
f 154/17/53 153/18/53 156/19/53
f 159/16/54 157/17/54 158/18/54
f 158/18/54 157/17/54 160/19/54
f 163/16/55 161/18/55 162/17/55
f 162/17/55 161/18/55 164/19/55
f 167/8/26 165/9/26 166/10/26
f 166/10/25 165/9/25 168/11/25
f 171/16/53 169/18/53 170/17/53
f 170/17/53 169/18/53 172/19/53
f 175/16/56 173/17/56 174/18/56
f 174/18/56 173/17/56 176/19/56
f 179/16/57 177/17/57 178/18/57
f 178/18/57 177/17/57 180/19/57
f 183/16/58 181/17/58 182/18/58
f 182/18/58 181/17/58 184/19/58
f 187/16/59 185/18/59 186/17/59
f 186/17/59 185/18/59 188/19/59
f 191/16/60 189/18/60 190/17/60
f 190/17/60 189/18/60 192/19/60
f 195/16/61 193/17/61 194/18/61
f 194/18/61 193/17/61 196/19/61
f 199/16/62 197/17/62 198/18/62
f 198/18/63 197/17/63 200/19/63
f 203/16/64 201/18/65 202/17/65
f 202/17/65 201/18/65 204/19/65
f 207/16/66 205/18/66 206/17/66
f 206/17/66 205/18/66 208/19/66
f 211/8/39 209/9/39 210/10/39
f 210/10/38 209/9/38 212/11/38
f 215/8/67 213/10/67 214/9/67
f 214/9/67 213/10/67 216/11/67
f 219/8/68 217/9/68 218/10/68
f 218/10/68 217/9/68 220/11/68
f 223/8/36 221/9/36 222/10/36
f 222/10/36 221/9/36 224/11/36
f 227/8/39 225/9/39 226/10/39
f 226/10/38 225/9/38 228/11/38
f 231/8/32 229/9/32 230/10/32
f 230/10/32 229/9/32 232/11/32
f 235/11/31 233/10/31 234/9/31
f 234/9/31 233/10/31 236/8/31
f 239/8/69 237/9/69 238/10/69
f 238/10/69 237/9/69 240/11/69
f 243/8/28 241/9/28 242/10/28
f 242/10/28 241/9/28 244/11/28
f 247/8/27 245/9/27 246/10/27
f 246/10/27 245/9/27 248/11/27
