# Blender 4.1.1
# www.blender.org
mtllib Cylinder.002.mtl
o Tree
v 0.000000 -1.000000 -2.119151
v 0.000000 1.000000 -1.256163
v 0.781832 -1.000000 -1.742640
v 0.716959 1.000000 -0.910894
v 0.974928 -1.000000 -0.896630
v 0.894033 1.000000 -0.135080
v 0.433884 -1.000000 -0.218182
v 0.397882 1.000000 0.487074
v -0.433884 -1.000000 -0.218182
v -0.397882 1.000000 0.487073
v -0.974928 -1.000000 -0.896629
v -0.894034 1.000000 -0.135080
v -0.781832 -1.000000 -1.742640
v -0.716959 1.000000 -0.910893
v 0.977289 1.000000 -1.118500
v 0.000000 1.000000 -1.589138
v 1.218660 1.000000 -0.060987
v 0.542355 1.000000 0.787074
v -0.542355 1.000000 0.787073
v -1.218660 1.000000 -0.060986
v -0.977290 1.000000 -1.118500
v 0.691541 2.503710 -0.415831
v 0.000000 2.503710 -0.748860
v 0.862338 2.503710 0.332478
v 0.383776 2.503710 0.932575
v -0.383776 2.503710 0.932575
v -0.862338 2.503710 0.332478
v -0.691541 2.503710 -0.415831
v 0.908483 2.503710 -0.588836
v 0.000000 2.503710 -1.026339
v 1.132860 2.503710 0.394222
v 0.504170 2.503710 1.182575
v -0.504170 2.503710 1.182575
v -1.132860 2.503710 0.394223
v -0.908483 2.503710 -0.588836
v 0.598876 4.205998 0.065030
v 0.000000 4.205998 -0.223373
v 0.746786 4.205998 0.713067
v 0.332351 4.205998 1.232752
v -0.332351 4.205998 1.232752
v -0.746786 4.205998 0.713067
v -0.598876 4.205998 0.065031
v 0.861731 4.205998 -0.144589
v 0.000000 4.205998 -0.559577
v 1.074561 4.205998 0.787879
v 0.478224 4.205998 1.535661
v -0.478224 4.205998 1.535661
v -1.074561 4.205998 0.787879
v -0.861731 4.205998 -0.144589
v 0.547142 5.899208 0.174114
v 0.000000 5.899208 -0.089375
v 0.682275 5.899208 0.766171
v 0.303641 5.899208 1.240963
v -0.303641 5.899208 1.240963
v -0.682275 5.899208 0.766171
v -0.547143 5.899208 0.174115
v 0.813945 5.899208 -0.038653
v 0.000000 5.899208 -0.430628
v 1.014972 5.899208 0.842107
v 0.451705 5.899208 1.548422
v -0.451705 5.899208 1.548421
v -1.014972 5.899208 0.842107
v -0.813945 5.899208 -0.038653
v 0.407274 7.418022 0.116088
v 0.000003 7.418022 -0.080043
v 0.507861 7.418022 0.556792
v 0.226021 7.418022 0.910209
v -0.226016 7.418022 0.910208
v -0.507857 7.418022 0.556792
v -0.407269 7.418022 0.116089
v 0.668758 7.418022 -0.092438
v 0.000003 7.418022 -0.414494
v 0.833926 7.418022 0.631214
v 0.371133 7.418022 1.211538
v -0.371129 7.418022 1.211538
v -0.833922 7.418022 0.631214
v -0.668753 7.418022 -0.092438
v 0.519838 8.809484 -0.414556
v 0.000004 8.809484 -0.664895
v 0.648226 8.809484 0.147951
v 0.288490 8.809484 0.599047
v -0.288483 8.809484 0.599047
v -0.648220 8.809484 0.147951
v -0.519832 8.809484 -0.414555
vn 0.4220 0.2322 -0.8763
vn 0.9746 -0.0258 -0.2224
vn 0.7366 -0.3352 0.5874
vn -0.0000 -0.4491 0.8935
vn -0.7366 -0.3352 0.5874
vn -0.0000 -0.4198 0.9076
vn -0.9746 -0.0258 -0.2224
vn -0.4220 0.2322 -0.8763
vn -0.0000 -1.0000 -0.0000
vn -0.0000 1.0000 -0.0000
vn -0.4317 0.0997 -0.8965
vn 0.9721 -0.0763 -0.2219
vn -0.4298 0.1364 -0.8925
vn -0.7394 -0.3250 0.5896
vn 0.7394 -0.3250 0.5896
vn 0.4298 0.1364 -0.8925
vn -0.9721 -0.0763 -0.2219
vn 0.7706 -0.1689 0.6145
vn -0.7559 -0.2555 0.6028
vn 0.7559 -0.2555 0.6028
vn 0.4317 0.0997 -0.8965
vn -0.9731 -0.0619 -0.2221
vn -0.0000 -0.3339 0.9426
vn 0.9731 -0.0619 -0.2221
vn -0.9683 -0.1163 -0.2210
vn 0.4313 -0.1096 -0.8955
vn -0.9658 -0.1362 -0.2204
vn -0.0000 -0.1833 0.9831
vn 0.9658 -0.1362 -0.2204
vn -0.4313 -0.1096 -0.8955
vn -0.7706 -0.1689 0.6145
vn 0.9621 -0.1616 -0.2196
vn -0.0000 0.0194 0.9998
vn 0.9683 -0.1163 -0.2210
vn -0.4260 -0.1894 -0.8847
vn -0.7816 -0.0227 0.6233
vn 0.7816 -0.0227 0.6233
vn 0.4260 -0.1894 -0.8847
vn -0.4058 -0.3541 -0.8426
vn -0.7776 0.1038 0.6201
vn 0.7776 0.1038 0.6201
vn 0.4058 -0.3541 -0.8426
vn -0.9621 -0.1616 -0.2196
vn -0.0000 0.2182 0.9759
vt 1.000000 1.000000
vt 0.857143 0.500000
vt 1.000000 0.500000
vt 0.857143 1.000000
vt 0.714286 0.500000
vt 0.714286 1.000000
vt 0.571429 0.500000
vt 0.571429 1.000000
vt 0.428571 0.500000
vt 0.285714 1.000000
vt 0.285714 0.500000
vt 0.326393 0.091367
vt 0.173607 0.091367
vt 0.142857 1.000000
vt 0.142857 0.500000
vt 0.000000 1.000000
vt 0.000000 0.500000
vt 0.937640 0.399638
vt 0.854132 0.033767
vt 0.516017 0.196595
vt 0.387656 0.359777
vt 0.250000 0.490000
vt 0.250000 0.426069
vt 0.421654 0.210821
vt 0.437640 0.399638
vt 0.483983 0.196595
vt 0.145868 0.033767
vt 0.354132 0.033767
vt 0.016017 0.196595
vt 0.078346 0.210821
vt 0.062360 0.399638
vt 0.112344 0.359777
vt 0.145216 0.333563
vt 0.250000 0.384024
vt 0.354784 0.333563
vt 0.308151 0.129248
vt 0.380664 0.220177
vt 0.119336 0.220177
vt 0.191849 0.129248
vt 0.290413 0.166081
vt 0.340807 0.229274
vt 0.250000 0.343143
vt 0.322822 0.308074
vt 0.159193 0.229274
vt 0.209587 0.166081
vt 0.177178 0.308073
vt 0.201048 0.289038
vt 0.188958 0.236068
vt 0.298952 0.289038
vt 0.250000 0.312612
vt 0.277166 0.193589
vt 0.311042 0.236068
vt 0.222834 0.193589
vt 0.279812 0.273774
vt 0.287174 0.241515
vt 0.250000 0.288130
vt 0.266544 0.215646
vt 0.212826 0.241515
vt 0.233456 0.215646
vt 0.220188 0.273774
vt 0.428571 1.000000
vt 0.562360 0.399638
vt 0.750000 0.490000
vt 0.983983 0.196595
vt 0.645868 0.033767
s 1
usemtl GentengTralisWarna
f 16/1/1 3/2/1 1/3/1
f 15/4/2 5/5/2 3/2/2
f 17/6/3 7/7/3 5/5/3
f 18/8/4 9/9/4 7/7/4
f 9/9/5 20/10/5 11/11/5
f 8/12/6 33/13/6 10/13/6
f 11/11/7 21/14/7 13/15/7
f 13/15/8 16/16/8 1/17/8
f 3/18/9 7/19/9 11/20/9
f 4/21/10 16/22/10 2/23/10
f 6/24/10 15/25/10 4/21/10
f 8/12/10 17/26/10 6/24/10
f 8/12/10 19/27/10 18/28/10
f 10/13/10 20/29/10 19/27/10
f 12/30/10 21/31/10 20/29/10
f 2/23/10 21/31/10 14/32/10
f 28/33/11 44/34/11 23/34/11
f 6/24/12 29/21/12 31/24/12
f 14/32/13 30/23/13 2/23/13
f 10/13/14 34/30/14 12/30/14
f 8/12/15 31/24/15 32/12/15
f 4/21/16 30/23/16 29/21/16
f 12/30/17 35/32/17 14/32/17
f 22/35/10 30/23/10 23/34/10
f 22/35/10 31/24/10 29/21/10
f 25/36/10 31/24/10 24/37/10
f 25/36/10 33/13/10 32/12/10
f 27/38/10 33/13/10 26/39/10
f 28/33/10 34/30/10 27/38/10
f 23/34/10 35/32/10 28/33/10
f 39/40/18 59/41/18 60/40/18
f 26/39/19 48/38/19 27/38/19
f 25/36/20 45/37/20 46/36/20
f 22/35/21 44/34/21 43/35/21
f 27/38/22 49/33/22 28/33/22
f 25/36/23 47/39/23 26/39/23
f 24/37/24 43/35/24 45/37/24
f 37/42/10 43/35/10 44/34/10
f 38/41/10 43/35/10 36/43/10
f 39/40/10 45/37/10 38/41/10
f 39/40/10 47/39/10 46/36/10
f 41/44/10 47/39/10 40/45/10
f 42/46/10 48/38/10 41/44/10
f 42/46/10 44/34/10 49/33/10
f 56/47/25 76/48/25 77/47/25
f 36/43/26 58/42/26 57/43/26
f 41/44/27 63/46/27 42/46/27
f 39/40/28 61/45/28 40/45/28
f 38/41/29 57/43/29 59/41/29
f 42/46/30 58/42/30 37/42/30
f 40/45/31 62/44/31 41/44/31
f 50/49/10 58/42/10 51/50/10
f 50/49/10 59/41/10 57/43/10
f 53/51/10 59/41/10 52/52/10
f 53/51/10 61/45/10 60/40/10
f 54/53/10 62/44/10 61/45/10
f 56/47/10 62/44/10 55/48/10
f 56/47/10 58/42/10 63/46/10
f 64/54/32 80/55/32 66/55/32
f 53/51/33 75/53/33 54/53/33
f 50/49/34 73/52/34 52/52/34
f 51/50/35 77/47/35 72/50/35
f 55/48/36 75/53/36 76/48/36
f 52/52/37 74/51/37 53/51/37
f 51/50/38 71/49/38 50/49/38
f 64/54/10 72/50/10 65/56/10
f 66/55/10 71/49/10 64/54/10
f 67/57/10 73/52/10 66/55/10
f 67/57/10 75/53/10 74/51/10
f 69/58/10 75/53/10 68/59/10
f 69/58/10 77/47/10 76/48/10
f 70/60/10 72/50/10 77/47/10
f 79/56/10 83/58/10 81/57/10
f 65/56/39 84/60/39 79/56/39
f 69/58/40 82/59/40 83/58/40
f 66/55/41 81/57/41 67/57/41
f 65/56/42 78/54/42 64/54/42
f 70/60/43 83/58/43 84/60/43
f 67/57/44 82/59/44 68/59/44
f 16/1/1 15/4/1 3/2/1
f 15/4/2 17/6/2 5/5/2
f 17/6/3 18/8/3 7/7/3
f 18/8/4 19/61/4 9/9/4
f 9/9/5 19/61/5 20/10/5
f 8/12/6 32/12/6 33/13/6
f 11/11/7 20/10/7 21/14/7
f 13/15/8 21/14/8 16/16/8
f 13/62/9 1/63/9 3/18/9
f 3/18/9 5/64/9 7/19/9
f 7/19/9 9/65/9 11/20/9
f 11/20/9 13/62/9 3/18/9
f 4/21/10 15/25/10 16/22/10
f 6/24/10 17/26/10 15/25/10
f 8/12/10 18/28/10 17/26/10
f 8/12/10 10/13/10 19/27/10
f 10/13/10 12/30/10 20/29/10
f 12/30/10 14/32/10 21/31/10
f 2/23/10 16/22/10 21/31/10
f 28/33/11 49/33/11 44/34/11
f 6/24/12 4/21/12 29/21/12
f 14/32/13 35/32/13 30/23/13
f 10/13/14 33/13/14 34/30/14
f 8/12/15 6/24/15 31/24/15
f 4/21/16 2/23/16 30/23/16
f 12/30/17 34/30/17 35/32/17
f 22/35/10 29/21/10 30/23/10
f 22/35/10 24/37/10 31/24/10
f 25/36/10 32/12/10 31/24/10
f 25/36/10 26/39/10 33/13/10
f 27/38/10 34/30/10 33/13/10
f 28/33/10 35/32/10 34/30/10
f 23/34/10 30/23/10 35/32/10
f 39/40/18 38/41/18 59/41/18
f 26/39/19 47/39/19 48/38/19
f 25/36/20 24/37/20 45/37/20
f 22/35/21 23/34/21 44/34/21
f 27/38/22 48/38/22 49/33/22
f 25/36/23 46/36/23 47/39/23
f 24/37/24 22/35/24 43/35/24
f 37/42/10 36/43/10 43/35/10
f 38/41/10 45/37/10 43/35/10
f 39/40/10 46/36/10 45/37/10
f 39/40/10 40/45/10 47/39/10
f 41/44/10 48/38/10 47/39/10
f 42/46/10 49/33/10 48/38/10
f 42/46/10 37/42/10 44/34/10
f 56/47/25 55/48/25 76/48/25
f 36/43/26 37/42/26 58/42/26
f 41/44/27 62/44/27 63/46/27
f 39/40/28 60/40/28 61/45/28
f 38/41/29 36/43/29 57/43/29
f 42/46/30 63/46/30 58/42/30
f 40/45/31 61/45/31 62/44/31
f 50/49/10 57/43/10 58/42/10
f 50/49/10 52/52/10 59/41/10
f 53/51/10 60/40/10 59/41/10
f 53/51/10 54/53/10 61/45/10
f 54/53/10 55/48/10 62/44/10
f 56/47/10 63/46/10 62/44/10
f 56/47/10 51/50/10 58/42/10
f 64/54/32 78/54/32 80/55/32
f 53/51/33 74/51/33 75/53/33
f 50/49/34 71/49/34 73/52/34
f 51/50/35 56/47/35 77/47/35
f 55/48/36 54/53/36 75/53/36
f 52/52/37 73/52/37 74/51/37
f 51/50/38 72/50/38 71/49/38
f 64/54/10 71/49/10 72/50/10
f 66/55/10 73/52/10 71/49/10
f 67/57/10 74/51/10 73/52/10
f 67/57/10 68/59/10 75/53/10
f 69/58/10 76/48/10 75/53/10
f 69/58/10 70/60/10 77/47/10
f 70/60/10 65/56/10 72/50/10
f 80/55/10 78/54/10 79/56/10
f 79/56/10 84/60/10 83/58/10
f 83/58/10 82/59/10 81/57/10
f 81/57/10 80/55/10 79/56/10
f 65/56/39 70/60/39 84/60/39
f 69/58/40 68/59/40 82/59/40
f 66/55/41 80/55/41 81/57/41
f 65/56/42 79/56/42 78/54/42
f 70/60/43 69/58/43 83/58/43
f 67/57/44 81/57/44 82/59/44
