# Blender 4.1.1
# www.blender.org
mtllib log_large.mtl
o log_large
v -0.197683 -0.045181 -0.416719
v -0.197683 -0.003001 -0.416719
v -0.239847 -0.045181 -0.415534
v -0.239847 -0.003001 -0.415534
v -0.252630 -0.060050 -0.304145
v -0.178659 -0.060050 -0.306225
v 0.125387 0.142276 -0.188449
v 0.125387 0.142276 -0.114449
v 0.105323 0.252741 -0.172539
v 0.105323 0.252741 -0.130359
v 0.051416 0.140196 -0.188449
v 0.063160 0.251556 -0.172539
v 0.051416 0.140196 -0.114449
v 0.063160 0.251556 -0.130359
v -0.252630 0.013950 -0.304145
v -0.178659 0.013950 -0.306225
v 0.276998 -0.296580 -0.198593
v 0.276998 -0.296580 -0.141593
v 0.301301 -0.147224 -0.220093
v 0.301301 -0.147224 -0.120093
v 0.201341 -0.144413 -0.120093
v 0.220021 -0.294978 -0.141593
v 0.220021 -0.294978 -0.198593
v 0.201341 -0.144413 -0.220093
v 0.500000 -0.172500 0.000000
v 0.500000 -0.122500 -0.295000
v 0.500000 -0.172500 -0.345000
v 0.500000 0.172500 -0.345000
v 0.500000 0.122500 -0.295000
v 0.500000 0.122500 -0.050000
v 0.500000 -0.122500 -0.050000
v 0.500000 0.172500 0.000000
v -0.400000 0.127500 -0.045000
v 0.400000 0.150000 -0.022500
v 0.400000 0.150000 -0.322500
v -0.400000 0.127500 -0.300000
v 0.400000 -0.150000 -0.322500
v -0.400000 -0.127500 -0.300000
v -0.500000 -0.146625 -0.319125
v -0.500000 -0.104125 -0.068375
v -0.500000 -0.146625 -0.025875
v -0.500000 0.146625 -0.025875
v -0.500000 0.104125 -0.068375
v -0.500000 0.104125 -0.276625
v -0.500000 -0.104125 -0.276625
v -0.500000 0.146625 -0.319125
v 0.400000 -0.150000 -0.022500
v -0.400000 -0.127500 -0.045000
vn -0.0281 -0.0000 -0.9996
vn -0.0037 -0.9911 -0.1327
vn 0.9839 0.1787 -0.0000
vn -0.0040 0.1418 -0.9899
vn -0.0040 0.1418 0.9899
vn -0.0042 0.9885 -0.1509
vn 0.9870 -0.1606 -0.0000
vn -0.0040 -0.1418 0.9899
vn -0.0281 -0.9996 -0.0000
vn -0.0040 -0.1418 -0.9899
vn -0.9924 -0.1231 -0.0000
vn -0.9935 -0.0000 -0.1140
vn 1.0000 -0.0000 -0.0000
vn -0.0281 0.9996 -0.0000
vn -0.9945 0.1049 -0.0000
vn -1.0000 -0.0000 -0.0000
vn 0.9855 -0.0000 -0.1697
vn 0.1878 -0.0000 -0.9822
vn 0.1878 0.9822 -0.0000
vn -0.2195 -0.9756 -0.0000
vn -0.2195 0.9756 -0.0000
vn -0.2195 -0.0000 -0.9756
vn 0.1878 -0.9822 -0.0000
vn 0.1878 -0.0000 0.9822
vn -0.2195 -0.0000 0.9756
vn -0.0281 -0.0000 0.9996
vn 0.0184 -0.0000 -0.9998
vn 0.0184 0.9998 -0.0000
vn 0.0184 -0.0000 0.9998
vn 0.0184 -0.9998 -0.0000
vt -1.778767 -8.979124
vt -0.118137 -7.318494
vt -1.778767 -7.318494
vt -0.118137 -8.979124
vt 9.436021 15.973990
vt 7.024886 11.632080
vt 9.937099 11.549450
vt 7.776060 16.021090
vt -9.049256 6.792871
vt -4.629087 4.505864
vt -4.629087 7.419250
vt -9.049256 5.132242
vt 2.178627 -4.352380
vt 4.424681 -8.766551
vt 5.092012 -4.352380
vt 2.764051 -8.766551
vt 4.424681 10.458740
vt 2.178627 6.044573
vt 5.092012 6.044573
vt 2.764051 10.458740
vt -7.031418 11.830590
vt -9.443209 16.183929
vt -9.943625 11.747740
vt -7.783250 16.231159
vt 3.815837 8.665076
vt 9.773332 5.574525
vt 9.773332 7.818619
vt 3.815837 4.728068
vt -8.083515 6.076104
vt -11.229410 12.041200
vt -12.020520 6.076104
vt -8.985313 12.041200
vt -8.985313 7.818619
vt -11.229410 5.574525
vt -8.985313 5.574525
vt -11.229410 7.818619
vt -11.229410 -10.140690
vt -8.083515 -4.175596
vt -12.020520 -4.175596
vt -8.985313 -10.140690
vt -6.618252 4.728068
vt -12.591450 7.818619
vt -12.591450 5.574525
vt -6.618252 8.665076
vt 0.549194 10.762110
vt -1.778767 15.176280
vt -2.364192 10.762110
vt -0.118137 15.176280
vt 6.791338 13.582680
vt 4.822834 11.614170
vt 6.791338 -0.000000
vt -6.791338 13.582680
vt -4.822834 11.614170
vt -4.822834 1.968504
vt 4.822834 1.968504
vt -6.791338 -0.000000
vt 15.907830 0.885827
vt 5.092012 4.505864
vt -15.600680 1.771654
vt 15.907830 12.696850
vt 5.092012 7.419250
vt 2.178627 7.419250
vt -15.600680 11.811020
vt 2.178627 4.505864
vt -5.905512 16.098761
vt -2.364192 -6.692116
vt 5.905512 16.098761
vt -5.019685 -15.409750
vt -2.364192 -9.605502
vt 0.549194 -9.605502
vt 0.549194 -6.692116
vt 5.019685 -15.409750
vt 4.424681 6.792871
vt 2.764051 5.132242
vt 4.424681 5.132242
vt 2.764051 6.792871
vt 10.109930 5.132242
vt 5.701387 7.419250
vt 5.701387 4.505864
vt 10.109930 6.792871
vt -5.772638 1.018701
vt -4.099410 2.691929
vt -5.772638 12.563980
vt 5.772638 1.018701
vt 4.099410 2.691929
vt 4.099410 10.890750
vt -4.099410 10.890750
vt 5.772638 12.563980
vt 1.778767 17.488939
vt -0.549194 13.074760
vt 2.364192 13.074760
vt 0.118137 17.488939
vt 5.772638 21.694700
vt -5.019685 17.686340
vt 5.019685 17.686340
vt -5.772638 21.694700
vt -16.410620 1.771654
vt -20.418980 12.563980
vt -20.418980 1.018701
vt -16.410620 11.811020
vt -16.660259 0.885827
vt -20.695700 13.582680
vt -20.695700 -0.000000
vt -16.660259 12.696850
vt 20.695700 13.582680
vt 16.660259 0.885827
vt 20.695700 -0.000000
vt 16.660259 12.696850
vt -5.905512 18.151051
vt 6.791338 22.186480
vt -6.791338 22.186480
vt 5.905512 18.151051
vt 20.418980 12.563980
vt 16.410620 1.771654
vt 20.418980 1.018701
vt 16.410620 11.811020
vt -5.772638 -19.143259
vt 5.019685 -15.134900
vt -5.019685 -15.134900
vt 5.772638 -19.143259
vt 15.600680 11.811020
vt -8.083515 4.728068
vt 15.600680 1.771654
vt -8.083515 8.665076
vt -12.020520 8.665076
vt -12.020520 4.728068
vt -15.907830 0.885827
vt -15.907830 12.696850
vt 5.905512 -15.169480
vt -6.791338 -19.204920
vt 6.791338 -19.204920
vt -5.905512 -15.169480
vt 5.019685 15.791610
vt -5.905512 -15.716900
vt 5.905512 -15.716900
vt -5.019685 15.791610
vt 4.099410 19.731171
vt -4.822834 -19.645550
vt 4.822834 -19.645550
vt -4.099410 19.731171
vt 19.770321 11.614170
vt -19.606400 2.691929
vt 19.770321 1.968504
vt -19.606400 10.890750
vt -4.099410 -19.481630
vt 4.822834 19.895090
vt -4.822834 19.895090
vt 4.099410 -19.481630
vt 19.606400 2.691929
vt -19.770321 11.614170
vt -19.770321 1.968504
vt 19.606400 10.890750
s 0
usemtl woodBark.002
f 3/1/1 2/2/1 1/3/1
f 2/2/1 3/1/1 4/4/1
f 3/5/2 6/6/2 5/7/2
f 6/6/2 3/5/2 1/8/2
f 9/9/3 8/10/3 7/11/3
f 8/10/3 9/9/3 10/12/3
f 11/13/4 9/14/4 7/15/4
f 9/14/4 11/13/4 12/16/4
f 10/17/5 13/18/5 8/19/5
f 13/18/5 10/17/5 14/20/5
f 16/21/6 4/22/6 15/23/6
f 4/22/6 16/21/6 2/24/6
f 19/25/7 18/26/7 17/27/7
f 18/26/7 19/25/7 20/28/7
f 21/29/8 18/30/8 20/31/8
f 18/30/8 21/29/8 22/32/8
f 23/33/9 18/34/9 22/35/9
f 18/34/9 23/33/9 17/36/9
f 17/37/10 24/38/10 19/39/10
f 24/38/10 17/37/10 23/40/10
f 21/41/11 23/42/11 22/43/11
f 23/42/11 21/41/11 24/44/11
f 15/45/12 3/46/12 5/47/12
f 3/46/12 15/45/12 4/48/12
f 27/49/13 26/50/13 25/51/13
f 26/50/13 27/49/13 28/52/13
f 26/50/13 28/52/13 29/53/13
f 29/53/13 28/52/13 30/54/13
f 31/55/13 25/51/13 26/50/13
f 25/51/13 31/55/13 32/56/13
f 32/56/13 31/55/13 30/54/13
f 32/56/13 30/54/13 28/52/13
f 34/57/14 8/58/14 33/59/14
f 8/58/14 34/57/14 35/60/14
f 8/58/14 35/60/14 7/61/14
f 7/61/14 35/60/14 11/62/14
f 11/62/14 35/60/14 36/63/14
f 33/59/14 13/64/14 36/63/14
f 13/64/14 33/59/14 8/58/14
f 36/63/14 13/64/14 11/62/14
f 37/65/1 6/66/1 35/67/1
f 6/66/1 37/65/1 38/68/1
f 6/66/1 38/68/1 5/69/1
f 5/69/1 38/68/1 15/70/1
f 16/71/1 35/67/1 6/66/1
f 35/67/1 16/71/1 36/72/1
f 36/72/1 16/71/1 15/70/1
f 36/72/1 15/70/1 38/68/1
f 9/73/14 14/74/14 10/75/14
f 14/74/14 9/73/14 12/76/14
f 14/77/15 11/78/15 13/79/15
f 11/78/15 14/77/15 12/80/15
f 41/81/16 40/82/16 39/83/16
f 40/82/16 41/81/16 42/84/16
f 40/82/16 42/84/16 43/85/16
f 43/85/16 42/84/16 44/86/16
f 45/87/16 39/83/16 40/82/16
f 39/83/16 45/87/16 46/88/16
f 46/88/16 45/87/16 44/86/16
f 46/88/16 44/86/16 42/84/16
f 1/89/17 16/90/17 6/91/17
f 16/90/17 1/89/17 2/92/17
f 39/93/18 36/94/18 38/95/18
f 36/94/18 39/93/18 46/96/18
f 33/97/19 46/98/19 42/99/19
f 46/98/19 33/97/19 36/100/19
f 47/101/20 27/102/20 25/103/20
f 27/102/20 47/101/20 37/104/20
f 28/105/21 34/106/21 32/107/21
f 34/106/21 28/105/21 35/108/21
f 37/109/22 28/110/22 27/111/22
f 28/110/22 37/109/22 35/112/22
f 39/113/23 48/114/23 41/115/23
f 48/114/23 39/113/23 38/116/23
f 42/117/24 48/118/24 33/119/24
f 48/118/24 42/117/24 41/120/24
f 38/121/9 21/122/9 48/123/9
f 21/122/9 38/121/9 24/124/9
f 24/124/9 38/121/9 19/125/9
f 20/126/9 48/123/9 21/122/9
f 20/126/9 47/127/9 48/123/9
f 47/127/9 20/126/9 37/128/9
f 37/128/9 20/126/9 19/125/9
f 37/128/9 19/125/9 38/121/9
f 34/129/25 25/130/25 32/131/25
f 25/130/25 34/129/25 47/132/25
f 33/133/26 47/134/26 34/135/26
f 47/134/26 33/133/26 48/136/26
usemtl woodInner.001
f 40/137/27 30/138/27 31/139/27
f 30/138/27 40/137/27 43/140/27
f 26/141/28 40/142/28 31/143/28
f 40/142/28 26/141/28 45/144/28
f 44/145/29 26/146/29 29/147/29
f 26/146/29 44/145/29 45/148/29
f 43/149/30 29/150/30 30/151/30
f 29/150/30 43/149/30 44/152/30
